<svg width="1031" height="1006" viewBox="0 0 1031 1006" fill="none" xmlns="http://www.w3.org/2000/svg">
<path d="M654.521 226.246H376.711C370.381 226.254 364.311 228.771 359.835 233.246C355.358 237.721 352.84 243.788 352.832 250.116V867.315L349.648 868.286L281.497 889.148C278.267 890.133 274.779 889.796 271.797 888.212C268.815 886.627 266.585 883.925 265.594 880.698L62.8755 218.783C61.889 215.554 62.2253 212.066 63.8104 209.085C65.3955 206.104 68.0997 203.874 71.3288 202.885L176.35 170.74L480.809 77.5834L585.829 45.4384C587.427 44.9467 589.107 44.7749 590.771 44.9328C592.436 45.0907 594.053 45.5752 595.53 46.3586C597.008 47.142 598.316 48.2089 599.38 49.4982C600.444 50.7875 601.244 52.274 601.733 53.8725L653.55 223.063L654.521 226.246Z" fill="#F2F2F2"/>
<path d="M715.142 223.064L652.69 19.1501C651.651 15.7525 649.953 12.5929 647.692 9.85176C645.431 7.11065 642.651 4.84178 639.513 3.17479C636.374 1.5078 632.938 0.47535 629.4 0.136477C625.862 -0.202396 622.292 0.15895 618.894 1.19983L471.241 46.3778L166.798 139.55L19.1454 184.744C12.2863 186.85 6.543 191.59 3.17626 197.924C-0.190474 204.258 -0.905616 211.668 1.18784 218.528L214.636 915.422C216.336 920.959 219.768 925.807 224.426 929.252C229.085 932.697 234.726 934.56 240.521 934.565C243.203 934.567 245.87 934.164 248.433 933.372L349.648 902.404L352.832 901.418V898.092L349.648 899.063L247.494 930.332C241.439 932.177 234.9 931.546 229.31 928.578C223.72 925.61 219.537 920.546 217.677 914.499L4.24502 217.59C3.32343 214.593 3.00223 211.444 3.29981 208.323C3.59738 205.202 4.50786 202.171 5.97917 199.402C7.45047 196.633 9.4537 194.182 11.8741 192.188C14.2945 190.195 17.0845 188.698 20.0844 187.784L167.737 142.59L472.181 49.4332L619.833 4.23931C622.109 3.54516 624.474 3.19124 626.853 3.18902C631.959 3.20048 636.927 4.84585 641.029 7.88413C645.131 10.9224 648.153 15.1939 649.65 20.0731L711.815 223.064L712.803 226.246H716.114L715.142 223.064Z" fill="#3F3D56"/>
<path d="M195.301 203.406C192.233 203.404 189.246 202.419 186.779 200.595C184.312 198.772 182.494 196.206 181.592 193.274L161.088 126.324C160.537 124.526 160.345 122.636 160.525 120.764C160.704 118.892 161.251 117.073 162.134 115.412C163.017 113.751 164.218 112.28 165.669 111.084C167.121 109.887 168.794 108.987 170.593 108.437L450.678 22.7219C454.312 21.6135 458.236 21.9915 461.591 23.7729C464.946 25.5542 467.457 28.5933 468.573 32.2233L489.078 99.1743C490.186 102.806 489.807 106.729 488.025 110.083C486.243 113.436 483.204 115.946 479.573 117.062L199.487 202.777C198.131 203.193 196.72 203.405 195.301 203.406V203.406Z" fill="#7952B3"/>
<path d="M302.714 71.5377C320.298 71.5377 334.552 57.2884 334.552 39.711C334.552 22.1336 320.298 7.88428 302.714 7.88428C285.13 7.88428 270.875 22.1336 270.875 39.711C270.875 57.2884 285.13 71.5377 302.714 71.5377Z" fill="#7952B3"/>
<path d="M302.714 59.8649C313.848 59.8649 322.875 50.8418 322.875 39.7113C322.875 28.5807 313.848 19.5576 302.714 19.5576C291.579 19.5576 282.552 28.5807 282.552 39.7113C282.552 50.8418 291.579 59.8649 302.714 59.8649Z" fill="white"/>
<path d="M959.363 926.433H421.286C417.699 926.429 414.259 925.003 411.722 922.467C409.186 919.931 407.759 916.493 407.755 912.907V268.416C407.759 264.83 409.186 261.392 411.722 258.856C414.259 256.321 417.699 254.894 421.286 254.89H959.363C962.95 254.894 966.39 256.321 968.927 258.856C971.463 261.392 972.89 264.83 972.894 268.416V912.907C972.89 916.493 971.463 919.931 968.926 922.467C966.39 925.003 962.95 926.429 959.363 926.433V926.433Z" fill="#E6E6E6"/>
<path d="M711.815 223.063H376.711C369.537 223.074 362.659 225.927 357.586 230.998C352.513 236.069 349.659 242.944 349.648 250.116V899.062L352.832 898.092V250.116C352.84 243.788 355.358 237.721 359.835 233.246C364.311 228.771 370.381 226.254 376.711 226.246H712.803L711.815 223.063ZM1003.94 223.063H376.711C369.537 223.074 362.659 225.927 357.586 230.998C352.513 236.069 349.659 242.944 349.648 250.116V978.947C349.659 986.119 352.513 992.994 357.586 998.065C362.659 1003.14 369.537 1005.99 376.711 1006H1003.94C1011.11 1005.99 1017.99 1003.14 1023.06 998.065C1028.14 992.994 1030.99 986.119 1031 978.947V250.116C1030.99 242.944 1028.14 236.069 1023.06 230.998C1017.99 225.927 1011.11 223.074 1003.94 223.063V223.063ZM1027.82 978.947C1027.81 985.276 1025.29 991.343 1020.81 995.817C1016.34 1000.29 1010.27 1002.81 1003.94 1002.82H376.711C370.381 1002.81 364.311 1000.29 359.835 995.817C355.358 991.343 352.84 985.276 352.832 978.947V250.116C352.84 243.788 355.358 237.721 359.835 233.246C364.311 228.771 370.381 226.254 376.711 226.246H1003.94C1010.27 226.254 1016.34 228.771 1020.81 233.246C1025.29 237.721 1027.81 243.788 1027.82 250.116V978.947Z" fill="#3F3D56"/>
<path d="M836.783 293.082H543.866C540.067 293.078 536.425 291.568 533.739 288.883C531.053 286.198 529.543 282.557 529.538 278.76V208.741C529.543 204.944 531.054 201.304 533.74 198.619C536.426 195.934 540.067 194.424 543.866 194.419H836.783C840.582 194.424 844.224 195.934 846.91 198.619C849.596 201.304 851.107 204.944 851.111 208.741V278.76C851.107 282.557 849.596 286.198 846.91 288.883C844.224 291.568 840.582 293.078 836.783 293.082V293.082Z" fill="#7952B3"/>
<path d="M690.324 199.193C707.908 199.193 722.163 184.944 722.163 167.367C722.163 149.789 707.908 135.54 690.324 135.54C672.74 135.54 658.485 149.789 658.485 167.367C658.485 184.944 672.74 199.193 690.324 199.193Z" fill="#7952B3"/>
<path d="M690.324 186.752C701.035 186.752 709.717 178.073 709.717 167.367C709.717 156.661 701.035 147.981 690.324 147.981C679.614 147.981 670.931 156.661 670.931 167.367C670.931 178.073 679.614 186.752 690.324 186.752Z" fill="white"/>
<path d="M533.05 439.1V507H520.149L486.296 465.775V507H470.776V439.1H483.774L517.53 480.325V439.1H533.05ZM572.879 507.776C567.383 507.776 562.436 506.644 558.038 504.381C553.706 502.053 550.311 498.852 547.853 494.778C545.396 490.704 544.167 486.08 544.167 480.907C544.167 475.734 545.396 471.11 547.853 467.036C550.311 462.962 553.706 459.793 558.038 457.53C562.436 455.202 567.383 454.038 572.879 454.038C578.376 454.038 583.291 455.202 587.623 457.53C591.956 459.793 595.351 462.962 597.808 467.036C600.266 471.11 601.494 475.734 601.494 480.907C601.494 486.08 600.266 490.704 597.808 494.778C595.351 498.852 591.956 502.053 587.623 504.381C583.291 506.644 578.376 507.776 572.879 507.776ZM572.879 495.36C576.759 495.36 579.928 494.067 582.385 491.48C584.907 488.829 586.168 485.304 586.168 480.907C586.168 476.51 584.907 473.018 582.385 470.431C579.928 467.78 576.759 466.454 572.879 466.454C568.999 466.454 565.798 467.78 563.276 470.431C560.754 473.018 559.493 476.51 559.493 480.907C559.493 485.304 560.754 488.829 563.276 491.48C565.798 494.067 568.999 495.36 572.879 495.36ZM639.08 454.814H654.212V507H639.08V454.814ZM646.646 447.539C643.865 447.539 641.602 446.731 639.856 445.114C638.11 443.497 637.237 441.493 637.237 439.1C637.237 436.707 638.11 434.703 639.856 433.086C641.602 431.469 643.865 430.661 646.646 430.661C649.426 430.661 651.69 431.437 653.436 432.989C655.182 434.541 656.055 436.481 656.055 438.809C656.055 441.331 655.182 443.433 653.436 445.114C651.69 446.731 649.426 447.539 646.646 447.539ZM701.914 504.478C700.427 505.577 698.584 506.418 696.385 507C694.251 507.517 691.988 507.776 689.595 507.776C683.387 507.776 678.57 506.192 675.142 503.023C671.78 499.854 670.098 495.198 670.098 489.055V467.618H662.047V455.978H670.098V443.271H685.23V455.978H698.228V467.618H685.23V488.861C685.23 491.06 685.78 492.773 686.879 494.002C688.043 495.166 689.66 495.748 691.729 495.748C694.122 495.748 696.159 495.101 697.84 493.808L701.914 504.478ZM759.917 481.101C759.917 481.295 759.82 482.653 759.626 485.175H720.147C720.859 488.408 722.54 490.963 725.191 492.838C727.843 494.713 731.141 495.651 735.085 495.651C737.801 495.651 740.194 495.263 742.263 494.487C744.397 493.646 746.37 492.353 748.18 490.607L756.231 499.337C751.317 504.963 744.139 507.776 734.697 507.776C728.813 507.776 723.607 506.644 719.08 504.381C714.554 502.053 711.062 498.852 708.604 494.778C706.147 490.704 704.918 486.08 704.918 480.907C704.918 475.798 706.115 471.207 708.507 467.133C710.965 462.994 714.295 459.793 718.498 457.53C722.766 455.202 727.519 454.038 732.757 454.038C737.866 454.038 742.49 455.137 746.628 457.336C750.767 459.535 754 462.703 756.328 466.842C758.721 470.916 759.917 475.669 759.917 481.101ZM732.854 465.484C729.427 465.484 726.549 466.454 724.221 468.394C721.893 470.334 720.471 472.985 719.953 476.348H745.658C745.141 473.05 743.718 470.431 741.39 468.491C739.062 466.486 736.217 465.484 732.854 465.484ZM836.825 454.038C843.356 454.038 848.529 455.978 852.345 459.858C856.225 463.673 858.165 469.429 858.165 477.124V507H843.033V479.452C843.033 475.313 842.16 472.242 840.414 470.237C838.732 468.168 836.307 467.133 833.139 467.133C829.582 467.133 826.769 468.297 824.7 470.625C822.63 472.888 821.596 476.283 821.596 480.81V507H806.464V479.452C806.464 471.239 803.166 467.133 796.57 467.133C793.078 467.133 790.297 468.297 788.228 470.625C786.158 472.888 785.124 476.283 785.124 480.81V507H769.992V454.814H784.445V460.828C786.385 458.629 788.745 456.948 791.526 455.784C794.371 454.62 797.475 454.038 800.838 454.038C804.524 454.038 807.854 454.782 810.829 456.269C813.803 457.692 816.196 459.793 818.007 462.574C820.141 459.858 822.824 457.756 826.058 456.269C829.356 454.782 832.945 454.038 836.825 454.038ZM889.285 507.776C884.952 507.776 880.717 507.259 876.578 506.224C872.439 505.125 869.141 503.767 866.684 502.15L871.728 491.286C874.056 492.773 876.869 494.002 880.167 494.972C883.465 495.877 886.698 496.33 889.867 496.33C896.269 496.33 899.47 494.746 899.47 491.577C899.47 490.09 898.597 489.023 896.851 488.376C895.105 487.729 892.421 487.18 888.8 486.727C884.532 486.08 881.008 485.337 878.227 484.496C875.446 483.655 873.021 482.168 870.952 480.034C868.947 477.9 867.945 474.861 867.945 470.916C867.945 467.618 868.883 464.708 870.758 462.186C872.698 459.599 875.479 457.595 879.1 456.172C882.786 454.749 887.119 454.038 892.098 454.038C895.784 454.038 899.438 454.458 903.059 455.299C906.745 456.075 909.784 457.174 912.177 458.597L907.133 469.364C902.542 466.777 897.53 465.484 892.098 465.484C888.865 465.484 886.44 465.937 884.823 466.842C883.206 467.747 882.398 468.911 882.398 470.334C882.398 471.951 883.271 473.082 885.017 473.729C886.763 474.376 889.544 474.99 893.359 475.572C897.627 476.283 901.119 477.059 903.835 477.9C906.551 478.676 908.911 480.131 910.916 482.265C912.921 484.399 913.923 487.374 913.923 491.189C913.923 494.422 912.953 497.3 911.013 499.822C909.073 502.344 906.228 504.316 902.477 505.739C898.791 507.097 894.394 507.776 889.285 507.776ZM464.39 572.038C470.856 572.038 476.062 573.978 480.007 577.858C484.016 581.738 486.021 587.493 486.021 595.124V625H470.889V597.452C470.889 593.313 469.983 590.242 468.173 588.237C466.362 586.168 463.743 585.133 460.316 585.133C456.5 585.133 453.461 586.329 451.198 588.722C448.934 591.05 447.803 594.542 447.803 599.198V625H432.671V553.026H447.803V578.246C449.807 576.241 452.232 574.722 455.078 573.687C457.923 572.588 461.027 572.038 464.39 572.038ZM520.786 572.038C528.869 572.038 535.077 573.978 539.41 577.858C543.743 581.673 545.909 587.461 545.909 595.221V625H531.747V618.501C528.902 623.351 523.599 625.776 515.839 625.776C511.83 625.776 508.338 625.097 505.363 623.739C502.453 622.381 500.222 620.506 498.67 618.113C497.118 615.72 496.342 613.004 496.342 609.965C496.342 605.115 498.153 601.3 501.774 598.519C505.46 595.738 511.118 594.348 518.749 594.348H530.777C530.777 591.05 529.775 588.528 527.77 586.782C525.765 584.971 522.758 584.066 518.749 584.066C515.968 584.066 513.22 584.519 510.504 585.424C507.853 586.265 505.589 587.429 503.714 588.916L498.282 578.343C501.127 576.338 504.522 574.786 508.467 573.687C512.476 572.588 516.583 572.038 520.786 572.038ZM519.622 615.591C522.209 615.591 524.504 615.009 526.509 613.845C528.514 612.616 529.936 610.838 530.777 608.51V603.175H520.398C514.19 603.175 511.086 605.212 511.086 609.286C511.086 611.226 511.83 612.778 513.317 613.942C514.869 615.041 516.971 615.591 519.622 615.591ZM610.455 572.814L588.436 625H572.819L550.897 572.814H566.514L580.967 608.316L595.905 572.814H610.455ZM666.328 599.101C666.328 599.295 666.231 600.653 666.037 603.175H626.558C627.269 606.408 628.95 608.963 631.602 610.838C634.253 612.713 637.551 613.651 641.496 613.651C644.212 613.651 646.604 613.263 648.674 612.487C650.808 611.646 652.78 610.353 654.591 608.607L662.642 617.337C657.727 622.963 650.549 625.776 641.108 625.776C635.223 625.776 630.017 624.644 625.491 622.381C620.964 620.053 617.472 616.852 615.015 612.778C612.557 608.704 611.329 604.08 611.329 598.907C611.329 593.798 612.525 589.207 614.918 585.133C617.375 580.994 620.705 577.793 624.909 575.53C629.177 573.202 633.93 572.038 639.168 572.038C644.276 572.038 648.9 573.137 653.039 575.336C657.177 577.535 660.411 580.703 662.739 584.842C665.131 588.916 666.328 593.669 666.328 599.101ZM639.265 583.484C635.837 583.484 632.96 584.454 630.632 586.394C628.304 588.334 626.881 590.985 626.364 594.348H652.069C651.551 591.05 650.129 588.431 647.801 586.491C645.473 584.486 642.627 583.484 639.265 583.484ZM734.719 572.038C739.569 572.038 743.966 573.17 747.911 575.433C751.92 577.632 755.056 580.768 757.32 584.842C759.583 588.851 760.715 593.54 760.715 598.907C760.715 604.274 759.583 608.995 757.32 613.069C755.056 617.078 751.92 620.215 747.911 622.478C743.966 624.677 739.569 625.776 734.719 625.776C727.541 625.776 722.076 623.513 718.326 618.986V625H703.873V553.026H719.005V578.343C722.82 574.14 728.058 572.038 734.719 572.038ZM732.1 613.36C735.98 613.36 739.148 612.067 741.606 609.48C744.128 606.829 745.389 603.304 745.389 598.907C745.389 594.51 744.128 591.018 741.606 588.431C739.148 585.78 735.98 584.454 732.1 584.454C728.22 584.454 725.019 585.78 722.497 588.431C720.039 591.018 718.811 594.51 718.811 598.907C718.811 603.304 720.039 606.829 722.497 609.48C725.019 612.067 728.22 613.36 732.1 613.36ZM821.963 599.101C821.963 599.295 821.866 600.653 821.672 603.175H782.193C782.905 606.408 784.586 608.963 787.237 610.838C789.889 612.713 793.187 613.651 797.131 613.651C799.847 613.651 802.24 613.263 804.309 612.487C806.443 611.646 808.416 610.353 810.226 608.607L818.277 617.337C813.363 622.963 806.185 625.776 796.743 625.776C790.859 625.776 785.653 624.644 781.126 622.381C776.6 620.053 773.108 616.852 770.65 612.778C768.193 608.704 766.964 604.08 766.964 598.907C766.964 593.798 768.161 589.207 770.553 585.133C773.011 580.994 776.341 577.793 780.544 575.53C784.812 573.202 789.565 572.038 794.803 572.038C799.912 572.038 804.536 573.137 808.674 575.336C812.813 577.535 816.046 580.703 818.374 584.842C820.767 588.916 821.963 593.669 821.963 599.101ZM794.9 583.484C791.473 583.484 788.595 584.454 786.267 586.394C783.939 588.334 782.517 590.985 781.999 594.348H807.704C807.187 591.05 805.764 588.431 803.436 586.491C801.108 584.486 798.263 583.484 794.9 583.484ZM883.157 599.101C883.157 599.295 883.06 600.653 882.866 603.175H843.387C844.098 606.408 845.779 608.963 848.431 610.838C851.082 612.713 854.38 613.651 858.325 613.651C861.041 613.651 863.433 613.263 865.503 612.487C867.637 611.646 869.609 610.353 871.42 608.607L879.471 617.337C874.556 622.963 867.378 625.776 857.937 625.776C852.052 625.776 846.846 624.644 842.32 622.381C837.793 620.053 834.301 616.852 831.844 612.778C829.386 608.704 828.158 604.08 828.158 598.907C828.158 593.798 829.354 589.207 831.747 585.133C834.204 580.994 837.534 577.793 841.738 575.53C846.006 573.202 850.759 572.038 855.997 572.038C861.105 572.038 865.729 573.137 869.868 575.336C874.006 577.535 877.24 580.703 879.568 584.842C881.96 588.916 883.157 593.669 883.157 599.101ZM856.094 583.484C852.666 583.484 849.789 584.454 847.461 586.394C845.133 588.334 843.71 590.985 843.193 594.348H868.898C868.38 591.05 866.958 588.431 864.63 586.491C862.302 584.486 859.456 583.484 856.094 583.484ZM924.95 572.038C931.417 572.038 936.622 573.978 940.567 577.858C944.576 581.738 946.581 587.493 946.581 595.124V625H931.449V597.452C931.449 593.313 930.544 590.242 928.733 588.237C926.922 586.168 924.303 585.133 920.876 585.133C917.061 585.133 914.021 586.329 911.758 588.722C909.495 591.05 908.363 594.542 908.363 599.198V625H893.231V572.814H907.684V578.925C909.689 576.726 912.178 575.045 915.153 573.881C918.128 572.652 921.393 572.038 924.95 572.038ZM555.977 690.038C564.06 690.038 570.268 691.978 574.601 695.858C578.934 699.673 581.1 705.461 581.1 713.221V743H566.938V736.501C564.093 741.351 558.79 743.776 551.03 743.776C547.021 743.776 543.529 743.097 540.554 741.739C537.644 740.381 535.413 738.506 533.861 736.113C532.309 733.72 531.533 731.004 531.533 727.965C531.533 723.115 533.344 719.3 536.965 716.519C540.651 713.738 546.309 712.348 553.94 712.348H565.968C565.968 709.05 564.966 706.528 562.961 704.782C560.956 702.971 557.949 702.066 553.94 702.066C551.159 702.066 548.411 702.519 545.695 703.424C543.044 704.265 540.78 705.429 538.905 706.916L533.473 696.343C536.318 694.338 539.713 692.786 543.658 691.687C547.667 690.588 551.774 690.038 555.977 690.038ZM554.813 733.591C557.4 733.591 559.695 733.009 561.7 731.845C563.705 730.616 565.127 728.838 565.968 726.51V721.175H555.589C549.381 721.175 546.277 723.212 546.277 727.286C546.277 729.226 547.021 730.778 548.508 731.942C550.06 733.041 552.162 733.591 554.813 733.591ZM648.519 671.026V743H634.066V736.986C630.316 741.513 624.884 743.776 617.77 743.776C612.856 743.776 608.394 742.677 604.384 740.478C600.44 738.279 597.336 735.143 595.072 731.069C592.809 726.995 591.677 722.274 591.677 716.907C591.677 711.54 592.809 706.819 595.072 702.745C597.336 698.671 600.44 695.535 604.384 693.336C608.394 691.137 612.856 690.038 617.77 690.038C624.431 690.038 629.637 692.14 633.387 696.343V671.026H648.519ZM620.389 731.36C624.205 731.36 627.373 730.067 629.895 727.48C632.417 724.829 633.678 721.304 633.678 716.907C633.678 712.51 632.417 709.018 629.895 706.431C627.373 703.78 624.205 702.454 620.389 702.454C616.509 702.454 613.308 703.78 610.786 706.431C608.264 709.018 607.003 712.51 607.003 716.907C607.003 721.304 608.264 724.829 610.786 727.48C613.308 730.067 616.509 731.36 620.389 731.36ZM715.681 671.026V743H701.228V736.986C697.477 741.513 692.045 743.776 684.932 743.776C680.017 743.776 675.555 742.677 671.546 740.478C667.601 738.279 664.497 735.143 662.234 731.069C659.97 726.995 658.839 722.274 658.839 716.907C658.839 711.54 659.97 706.819 662.234 702.745C664.497 698.671 667.601 695.535 671.546 693.336C675.555 691.137 680.017 690.038 684.932 690.038C691.592 690.038 696.798 692.14 700.549 696.343V671.026H715.681ZM687.551 731.36C691.366 731.36 694.535 730.067 697.057 727.48C699.579 724.829 700.84 721.304 700.84 716.907C700.84 712.51 699.579 709.018 697.057 706.431C694.535 703.78 691.366 702.454 687.551 702.454C683.671 702.454 680.47 703.78 677.948 706.431C675.426 709.018 674.165 712.51 674.165 716.907C674.165 721.304 675.426 724.829 677.948 727.48C680.47 730.067 683.671 731.36 687.551 731.36ZM780.805 717.101C780.805 717.295 780.708 718.653 780.514 721.175H741.035C741.746 724.408 743.427 726.963 746.079 728.838C748.73 730.713 752.028 731.651 755.973 731.651C758.689 731.651 761.081 731.263 763.151 730.487C765.285 729.646 767.257 728.353 769.068 726.607L777.119 735.337C772.204 740.963 765.026 743.776 755.585 743.776C749.7 743.776 744.494 742.644 739.968 740.381C735.441 738.053 731.949 734.852 729.492 730.778C727.034 726.704 725.806 722.08 725.806 716.907C725.806 711.798 727.002 707.207 729.395 703.133C731.852 698.994 735.182 695.793 739.386 693.53C743.654 691.202 748.407 690.038 753.645 690.038C758.753 690.038 763.377 691.137 767.516 693.336C771.654 695.535 774.888 698.703 777.216 702.842C779.608 706.916 780.805 711.669 780.805 717.101ZM753.742 701.484C750.314 701.484 747.437 702.454 745.109 704.394C742.781 706.334 741.358 708.985 740.841 712.348H766.546C766.028 709.05 764.606 706.431 762.278 704.491C759.95 702.486 757.104 701.484 753.742 701.484ZM844.035 671.026V743H829.582V736.986C825.831 741.513 820.399 743.776 813.286 743.776C808.371 743.776 803.909 742.677 799.9 740.478C795.955 738.279 792.851 735.143 790.588 731.069C788.325 726.995 787.193 722.274 787.193 716.907C787.193 711.54 788.325 706.819 790.588 702.745C792.851 698.671 795.955 695.535 799.9 693.336C803.909 691.137 808.371 690.038 813.286 690.038C819.947 690.038 825.152 692.14 828.903 696.343V671.026H844.035ZM815.905 731.36C819.72 731.36 822.889 730.067 825.411 727.48C827.933 724.829 829.194 721.304 829.194 716.907C829.194 712.51 827.933 709.018 825.411 706.431C822.889 703.78 819.72 702.454 815.905 702.454C812.025 702.454 808.824 703.78 806.302 706.431C803.78 709.018 802.519 712.51 802.519 716.907C802.519 721.304 803.78 724.829 806.302 727.48C808.824 730.067 812.025 731.36 815.905 731.36Z" fill="#333333"/>
</svg>
