<svg width="971" height="543" viewBox="0 0 971 543" fill="none" xmlns="http://www.w3.org/2000/svg">
<g clip-path="url(#clip0)">
<path opacity="0.1" d="M401.193 433.53C455.624 433.53 499.749 425.171 499.749 414.86C499.749 404.548 455.624 396.189 401.193 396.189C346.762 396.189 302.636 404.548 302.636 414.86C302.636 425.171 346.762 433.53 401.193 433.53Z" fill="#0077CC"/>
<path opacity="0.1" d="M531.268 62.3469C495.047 61.0932 460.549 49.3963 427.608 36.6025C394.666 23.8086 362.038 9.63801 326.684 2.86051C303.945 -1.49924 277.938 -2.12047 259.62 10.0578C241.985 21.8106 236.288 42.0424 233.226 60.8302C230.921 74.9672 229.566 89.8486 235.879 103.085C240.267 112.274 248.046 119.998 253.43 128.801C272.162 159.426 258.92 197.192 238.627 227.094C229.113 241.119 218.06 254.518 210.711 269.433C203.363 284.348 199.966 301.496 206.396 316.752C212.765 331.863 227.949 343.19 244.397 351.165C277.803 367.368 317.153 372.002 355.551 374.632C440.525 380.441 525.946 377.928 611.143 375.404C642.674 374.475 674.34 373.529 705.356 368.655C722.583 365.946 740.363 361.648 752.872 351.272C768.743 338.103 772.678 315.806 762.039 299.296C744.197 271.593 694.879 264.715 682.393 234.991C675.532 218.627 682.578 200.404 692.557 185.232C713.958 152.676 749.827 124.117 751.713 86.9104C753.011 61.3563 735.768 35.763 709.106 23.6687C681.162 10.9924 642.406 12.5874 621.799 33.5691C600.56 55.1496 563.253 63.4606 531.268 62.3469Z" fill="#0077CC"/>
<path d="M502.486 202.452L485.343 190.895L493.99 178.022L448.713 174.413L432.444 186.994L412.078 175.577L395.092 177.619L394.891 173.142C394.681 168.475 394.212 163.822 393.486 159.207C393.559 157.807 393.609 156.201 393.604 154.455C393.604 147.096 392.607 137.341 388.231 130.837L389.238 121.782L381.067 112.128C382.379 109.514 383.876 106.997 385.544 104.595C385.824 104.192 386.104 103.8 386.406 103.42C397.012 102.653 405.379 93.9334 405.379 83.2719C405.379 82.7794 405.379 82.2868 405.323 81.7999C405.323 81.6041 405.284 81.4026 405.261 81.2067C406.297 81.7664 407.343 82.326 408.39 82.8857C408.586 83.1655 408.81 83.4453 409.056 83.7755L409.106 83.8371L409.42 84.2233L409.52 84.3408C409.632 84.4751 409.75 84.6038 409.867 84.7382L409.946 84.8277C410.242 85.1579 410.556 85.4937 410.892 85.8239C410.932 85.8564 410.969 85.892 411.003 85.9302L411.423 86.322L411.541 86.4283C411.899 86.7473 412.279 87.0552 412.66 87.3462L412.783 87.4357L413.264 87.7659L413.421 87.8667C413.606 87.9786 413.796 88.0961 413.981 88.2025L414.048 88.2416C414.266 88.3592 414.49 88.4711 414.714 88.5774L414.826 88.6222C415.016 88.7043 415.203 88.7826 415.386 88.8573L415.559 88.9188C415.755 88.986 415.945 89.0476 416.147 89.1035L416.27 89.1371C416.516 89.1987 416.762 89.249 417.014 89.2882H417.042C417.279 89.3266 417.519 89.3509 417.759 89.361H417.921C418.135 89.3722 418.35 89.3722 418.564 89.361H418.704C418.973 89.3455 419.24 89.3137 419.505 89.2658C420.757 89.1012 421.959 88.6699 423.031 88.001C423.303 87.8186 423.545 87.5938 423.747 87.335C424.866 85.8687 423.635 84.2624 423.635 84.2624C423.198 83.2215 420.367 82.4883 420.367 82.4883C420.367 82.4883 411.412 78.7498 411.412 75.7724C411.412 72.795 409.173 57.3484 386.065 53.8169C386.065 53.8169 371.032 52.9718 366.807 61.0197L366.717 61.96C365.475 62.7379 364.445 64.2994 363.22 64.7583C362.69 64.872 362.179 65.0604 361.703 65.3179V65.2116C361.561 65.3353 361.445 65.4855 361.362 65.6537C361.098 66.1776 360.94 66.748 360.897 67.3327C360.771 68.0469 360.523 68.7341 360.164 69.3643C360.064 69.5433 359.952 69.7154 359.828 69.8792L359.733 70.0303C360.383 70.0809 361.035 69.9754 361.636 69.7225C361.541 70.4887 361.353 71.2405 361.076 71.9611C361.432 71.9726 361.783 71.8817 362.089 71.6991C362.395 71.5166 362.641 71.2501 362.8 70.9313V70.8866L362.873 70.7858C363.013 70.5267 363.13 70.255 363.22 69.9743L363.158 70.0415C363.27 69.6777 363.371 69.3083 363.494 68.9501C363.55 68.7484 363.643 68.5587 363.768 68.3905C363.917 68.2399 364.1 68.1265 364.301 68.0594C364.503 67.9923 364.717 67.9735 364.927 68.0043L364.697 72.8566H364.798C364.663 73.2095 364.498 73.5503 364.305 73.8751C363.511 75.1624 362.067 76.041 361.535 77.4514C361.306 78.1316 361.218 78.8515 361.278 79.5669C361.278 79.9866 361.328 80.412 361.362 80.8317V80.7981C361.44 81.9175 361.462 82.9808 360.858 83.8819C360.444 84.4975 359.778 84.962 359.548 85.6616C359.485 85.8565 359.456 86.0612 359.464 86.266C359.509 86.8793 359.637 87.4837 359.845 88.0625C359.847 88.0515 359.847 88.04 359.845 88.029C359.984 88.4548 360.017 88.9084 359.94 89.3498C359.688 90.4691 358.328 91.4037 358.395 92.4727C358.392 92.6133 358.412 92.7534 358.457 92.8868C358.719 93.4089 359.172 93.8099 359.722 94.0061C360.585 94.4968 361.576 94.7153 362.565 94.633C362.936 94.566 363.294 94.4433 363.628 94.2692C363.236 95.1702 362.833 96.0601 362.425 96.9052C362.363 97.0395 362.296 97.1738 362.229 97.3081C362.229 97.3081 358.77 94.9967 356.806 99.7091C356.232 100.688 355.822 101.754 355.591 102.866C355.493 103.31 355.354 103.745 355.177 104.164C354.305 105.64 353 106.813 351.439 107.522C347.432 109.358 331.246 129.545 330.961 134.772C330.821 136.812 330.476 138.834 329.931 140.805C328.657 145.448 328.33 150.299 328.968 155.071C329.168 156.613 329.5 158.135 329.959 159.621C331.677 164.842 332.824 174.586 332.824 174.586L334.682 191.499C334.614 193.833 334.715 196.17 334.985 198.489C333.087 200.655 325.47 209.682 328.381 212.139C330.619 214.076 334.537 213.757 336.736 213.359C334.884 217.943 331.968 225.913 331.582 231.386C331.022 239.484 332.539 250.213 334.94 254.332C337.341 258.451 345.344 269.018 345.344 269.018C345.344 269.018 344.969 283.513 347.829 288.779C350.689 294.046 351.842 304.97 351.842 304.97C351.842 304.97 354.511 314.194 353.174 317.585C351.836 320.977 355.653 323.797 351.646 326.053C347.639 328.308 342.512 379.142 342.512 379.142C342.512 379.142 340.447 412.459 342.512 414.155C342.623 414.235 342.741 414.304 342.865 414.362V425.555C342.865 425.555 341.432 427.905 347.258 428.381C351.248 428.7 362.559 429.422 369.27 429.842L374.469 430.166C374.469 430.166 386.781 432.618 392.221 430.166C397.661 427.715 407.304 427.771 405.871 421.296C405.681 420.415 405.427 419.549 405.11 418.705C403.538 414.686 400.868 414.227 395.949 413.108C395.663 413.046 395.389 412.99 395.137 412.946C389.955 412.045 388.253 414.457 385.349 411.317C382.825 408.603 374.788 405.564 372.051 404.601C372.118 404.4 372.202 404.204 372.269 403.997C371.494 403.865 370.774 403.514 370.193 402.984L377.608 403.454L382.024 403.728C382.024 403.728 392.49 405.816 397.135 403.728C401.78 401.641 409.951 401.696 408.731 396.195C408.571 395.445 408.355 394.708 408.088 393.99C406.75 390.576 404.478 390.201 400.297 389.255C400.056 389.205 399.833 389.154 399.609 389.115C395.204 388.349 393.76 390.397 391.292 387.733C389.177 385.461 382.5 382.914 380.099 382.047C380.099 380.804 378.42 379.036 377.362 377.262C376.12 375.191 378.414 367.943 378.414 367.943L379.724 337.873C380.223 337.651 380.75 337.5 381.291 337.425C381.291 337.425 387.212 331.772 385.875 325.751C385.602 323.929 385.46 322.091 385.449 320.249C387.397 318.441 390.078 315.772 390.839 314.126C392.081 311.446 390.839 298.456 390.839 298.456V248.786L400.745 249.788L409.733 250.711L412.47 250.991L421.458 251.898L442.115 253.985L460.729 250.459L468.783 248.937L485.343 245.803V205.284L502.486 202.452ZM366.147 68.1834L364.994 68.0603C365.374 68.0771 365.777 68.1498 366.147 68.1834Z" fill="url(#paint0_linear)"/>
<path d="M462.308 228.761C456.711 236.77 436.591 232.528 436.591 232.528L420.999 217.938L418.9 215.962L422.421 208.485C422.421 208.485 423.54 208.793 425.46 209.341C435.539 212.268 467.031 222.029 462.308 228.761Z" fill="#EFB7B9"/>
<path opacity="0.1" d="M425.448 209.341C424.76 211.736 422.874 215.324 420.999 217.938L418.9 215.962L422.421 208.485C422.421 208.485 423.551 208.793 425.448 209.341Z" fill="black"/>
<path d="M371.973 125.023C371.973 125.023 357.601 131.397 358.306 147.051C358.813 157.136 359.912 167.182 361.597 177.138C361.597 177.138 358.658 200.694 370.893 206.767C383.127 212.839 394.449 217.831 394.449 217.831C394.449 217.831 413.589 219.891 415.968 220.742C418.346 221.592 425.779 208.586 424.407 206.56C423.036 204.534 405.468 200.286 403.23 196.906C400.991 193.525 395.814 191.438 395.814 191.438C395.814 191.438 390.47 188.203 390.106 185.281C389.742 182.36 391.152 180.183 391.511 178.901C391.869 177.62 392.775 165.246 392.775 165.246C392.775 165.246 398.809 121.2 371.973 125.023Z" fill="#DCE6F2"/>
<path opacity="0.1" d="M381.459 176.495C381.459 176.495 361.742 179.797 363.651 186.697C363.651 186.697 370.809 179.248 381.459 176.495Z" fill="black"/>
<path opacity="0.1" d="M381.61 179.287C381.61 179.287 370.769 188.136 372.891 188.589C375.012 189.042 381.61 179.287 381.61 179.287Z" fill="black"/>
<path opacity="0.1" d="M386.821 182.371C386.821 182.371 383.916 188.32 385.701 187.917C387.487 187.514 386.821 182.371 386.821 182.371Z" fill="black"/>
<path opacity="0.1" d="M426.176 209.974L424.978 209.632C425.32 208.513 425.415 207.606 425.135 207.186C423.764 205.16 406.207 200.918 403.974 197.532C401.741 194.146 396.559 192.064 396.559 192.064C396.559 192.064 391.214 188.83 390.85 185.908C390.486 182.987 391.897 180.81 392.255 179.528C392.613 178.246 393.52 165.867 393.52 165.867C393.52 165.867 399.536 121.827 372.7 125.649C372.7 125.649 358.328 132.03 359.028 147.683C359.535 157.768 360.636 167.815 362.324 177.771C362.324 177.771 359.386 201.327 371.62 207.399C383.854 213.471 395.176 218.464 395.176 218.464C395.176 218.464 414.311 220.518 416.695 221.374C417.596 221.698 419.225 220.025 420.82 217.725L421.727 218.57L437.319 233.155C437.319 233.155 457.439 237.402 463.035 229.394C467.764 222.655 436.278 212.895 426.176 209.974Z" fill="black"/>
<path d="M363.701 66.2694C363.153 66.3765 362.628 66.5792 362.151 66.8683C361.591 67.3328 361.591 68.1275 361.451 68.8215C361.287 69.7869 360.904 70.7019 360.332 71.4967C360.969 71.5434 361.607 71.4379 362.195 71.1889C362.1 71.9549 361.912 72.7065 361.636 73.4275C361.985 73.4364 362.328 73.3445 362.626 73.1628C362.924 72.9812 363.163 72.7174 363.315 72.4033C363.611 71.7727 363.845 71.1148 364.014 70.4389C364.067 70.2368 364.158 70.0467 364.283 69.8793C364.798 69.2692 365.755 69.5435 366.55 69.6218C367.211 69.6776 367.875 69.5555 368.474 69.2681C369.072 68.9808 369.582 68.5387 369.952 67.9876C370.797 66.706 370.848 63.4264 368.833 63.0794C366.729 62.7324 365.419 65.6314 363.701 66.2694Z" fill="#965D7B"/>
<g opacity="0.1">
<path opacity="0.1" d="M362.095 67.5566C362.145 67.2823 362.179 66.9969 362.24 66.7227C361.709 67.1872 361.681 67.9763 361.541 68.6759C361.47 69.0795 361.36 69.4751 361.21 69.8568C361.651 69.1544 361.951 68.3732 362.095 67.5566Z" fill="black"/>
<path opacity="0.1" d="M362.274 72.1793C362.553 71.4592 362.741 70.7072 362.834 69.9407C362.273 70.1766 361.666 70.2818 361.059 70.2485C360.883 70.6421 360.667 71.0171 360.416 71.3678C361.05 71.4169 361.688 71.3133 362.274 71.0656C362.181 71.8322 361.993 72.5841 361.714 73.3043C362.063 73.3124 362.406 73.2202 362.704 73.0387C363.002 72.8571 363.241 72.5938 363.393 72.2801C363.533 72.0257 363.645 71.7575 363.729 71.4798C363.565 71.7093 363.345 71.8937 363.091 72.0159C362.837 72.1382 362.556 72.1944 362.274 72.1793Z" fill="black"/>
<path opacity="0.1" d="M367.188 68.3737C366.393 68.2953 365.43 68.0211 364.915 68.6311C364.793 68.7999 364.702 68.9896 364.647 69.1908C364.596 69.3363 364.552 69.4874 364.512 69.6385C365.044 69.2188 365.906 69.4426 366.628 69.5154C367.289 69.5694 367.953 69.4465 368.551 69.1593C369.149 68.8721 369.66 68.431 370.031 67.8812C370.2 67.6094 370.327 67.313 370.406 67.0025C370.022 67.4769 369.529 67.85 368.967 68.089C368.406 68.3281 367.795 68.4258 367.188 68.3737Z" fill="black"/>
</g>
<path d="M380.547 112.492L389.082 122.756L387.968 133.115L377.653 116.969L380.547 112.492Z" fill="#DCE6F2"/>
<path opacity="0.1" d="M389.076 122.756L388.029 132.5L387.962 133.115L378.655 118.542L377.653 116.969L377.944 116.516L380.541 112.492L381.118 113.186L389.076 122.756Z" fill="black"/>
<path d="M393.509 98.5954C390.621 99.4237 387.862 102.267 385.461 105.72C383.838 108.102 382.387 110.597 381.118 113.186C380.329 114.764 379.635 116.281 379.058 117.601L378.655 118.542C377.681 120.842 377.139 122.381 377.139 122.381C377.139 122.381 355.032 105.759 358.53 104.64C359.705 104.265 361.25 101.746 362.778 98.573L362.968 98.17C363.936 96.1329 364.888 93.8606 365.733 91.7227C367.462 87.3294 368.744 83.5125 368.744 83.5125C368.744 83.5125 402.323 96.0769 393.509 98.5954Z" fill="#EFB7B9"/>
<path d="M406.733 82.5781C406.733 82.5781 411.838 91.8125 418.693 90.5532C425.549 89.294 422.729 85.5946 422.729 85.5946L406.733 82.5781Z" fill="#EDEDED"/>
<path d="M396.844 402.228C392.322 404.293 382.097 402.228 382.097 402.228L377.788 401.96C372.191 401.601 362.822 400.997 359.509 400.728C354.674 400.331 355.86 398.35 355.86 398.35V386.379L379.321 380.435C379.321 380.435 388.595 383.608 391.136 386.379C393.548 389.02 394.958 386.989 399.262 387.75C399.475 387.789 399.699 387.834 399.934 387.89C404.019 388.824 406.235 389.194 407.545 392.58C407.808 393.291 408.019 394.021 408.177 394.762C409.386 400.213 401.361 400.174 396.844 402.228Z" fill="#919191"/>
<path opacity="0.1" d="M407.545 392.58C406.704 393.105 405.821 393.558 404.903 393.934C401.825 395.339 398.898 397.051 395.786 398.378C392.675 399.704 389.322 400.65 385.953 400.398C384.19 400.269 382.388 399.838 380.704 400.342C379.662 400.744 378.681 401.289 377.788 401.96C372.191 401.601 362.822 400.997 359.509 400.728C354.674 400.331 355.86 398.35 355.86 398.35V396.951C356.034 396.951 356.23 396.9 356.454 396.883C357.612 396.865 358.765 397.037 359.867 397.393C362.296 398.053 364.714 398.702 367.143 399.352C367.343 398.598 367.694 397.892 368.175 397.278C368.656 396.665 369.257 396.155 369.941 395.781C371.328 395.045 372.884 394.688 374.452 394.746C378.219 394.796 381.784 396.581 385.545 396.76C386.596 396.857 387.655 396.68 388.617 396.245C389.132 395.988 389.585 395.613 390.089 395.328C390.895 394.938 391.747 394.65 392.624 394.471C395.091 393.857 397.512 393.076 399.872 392.132C400.544 391.869 401.327 391.393 401.238 390.677C401.12 389.725 399.626 389.613 399.234 388.74C399.165 388.583 399.133 388.412 399.141 388.24C399.148 388.068 399.196 387.9 399.279 387.75C399.491 387.789 399.715 387.834 399.95 387.89C404.019 388.824 406.235 389.194 407.545 392.58Z" fill="black"/>
<path d="M392.065 428.42C386.748 430.849 374.715 428.42 374.715 428.42L369.65 428.124C363.091 427.704 352.043 427.004 348.142 426.674C342.451 426.204 343.85 423.876 343.85 423.876V409.767L371.458 402.771C371.458 402.771 382.371 406.504 385.36 409.767C388.197 412.873 389.837 410.483 394.924 411.379C395.176 411.423 395.439 411.479 395.714 411.541C400.521 412.66 403.129 413.08 404.668 417.065C404.98 417.901 405.228 418.76 405.412 419.634C406.8 426.047 397.381 425.997 392.065 428.42Z" fill="#919191"/>
<path opacity="0.1" d="M404.657 417.065C403.668 417.682 402.629 418.216 401.551 418.66C397.93 420.311 394.482 422.326 390.822 423.887C387.162 425.449 383.216 426.557 379.248 426.266C377.178 426.115 375.056 425.594 373.092 426.198C371.861 426.678 370.703 427.326 369.65 428.124C363.091 427.704 352.043 427.004 348.142 426.674C342.451 426.204 343.85 423.876 343.85 423.876V422.23C344.081 422.193 344.315 422.166 344.549 422.152C345.913 422.127 347.271 422.33 348.568 422.751L357.125 425.057C357.363 424.167 357.781 423.336 358.351 422.613C358.922 421.891 359.634 421.292 360.444 420.854C362.075 419.984 363.908 419.563 365.755 419.634C370.187 419.695 374.379 421.794 378.806 422.007C380.039 422.119 381.28 421.913 382.41 421.408C383.02 421.1 383.53 420.658 384.145 420.328C385.092 419.864 386.095 419.525 387.128 419.32C390.015 418.592 392.849 417.672 395.613 416.567C396.402 416.253 397.325 415.694 397.219 414.854C397.079 413.735 395.322 413.6 394.857 412.571C394.779 412.385 394.743 412.184 394.753 411.982C394.763 411.781 394.817 411.584 394.913 411.407C395.165 411.451 395.428 411.507 395.702 411.569C400.51 412.643 403.118 413.08 404.657 417.065Z" fill="black"/>
<path d="M380.032 331.605L378.538 366.768C378.538 366.768 376.299 373.949 377.513 376.003C378.728 378.057 380.776 380.105 380.032 381.319C379.288 382.534 370.333 395.664 367.44 390.627C364.546 385.59 361.692 363.763 361.692 363.763L364.361 336.804L380.032 331.605Z" fill="#E9E9E9"/>
<path d="M386.513 243.995L390.666 249.547V297.835C390.666 297.835 391.88 310.707 390.666 313.365C389.451 316.024 383.295 321.34 383.295 321.34L378.118 294.756L379.237 266.634L386.513 243.995Z" fill="#E9E9E9"/>
<path d="M390.666 223.4V249.519L386.004 269.852C386.004 269.852 384.509 318.917 385.813 324.883C387.117 330.849 381.336 336.451 381.336 336.451C381.336 336.451 377.978 336.826 377.978 339.434C377.978 342.042 372.381 349.508 372.381 349.508L372.566 364.059C372.566 364.059 374.995 391.298 371.262 396.52C367.529 401.741 372.566 402.491 372.566 402.491C367.904 417.787 345.518 414.244 343.497 412.565C341.477 410.886 343.497 377.866 343.497 377.866C343.497 377.866 348.501 327.497 352.418 325.258C356.336 323.02 352.609 320.221 353.913 316.863C355.217 313.505 352.609 304.366 352.609 304.366C352.609 304.366 351.489 293.542 348.691 288.321C345.893 283.099 346.262 268.732 346.262 268.732C346.262 268.732 338.427 258.284 336.099 254.181C333.77 250.079 332.271 239.445 332.83 231.42C333.211 225.997 336.059 218.1 337.867 213.555C338.735 211.378 339.361 209.968 339.361 209.968L339.893 210.108L370.462 218.111L390.666 223.4Z" fill="#F2F2F2"/>
<path opacity="0.1" d="M393.509 98.5955C390.621 99.4238 387.862 102.267 385.461 105.72H384.834C381.315 105.722 377.857 104.796 374.811 103.034C371.764 101.272 369.237 98.737 367.484 95.6853C366.752 94.4208 366.163 93.0786 365.727 91.6837C367.456 87.2903 368.738 83.4734 368.738 83.4734C368.738 83.4734 402.323 96.077 393.509 98.5955Z" fill="black"/>
<path d="M404.842 84.6039C404.847 87.6662 404.149 90.6887 402.801 93.4387C401.454 96.1886 399.494 98.5927 397.071 100.466C394.648 102.339 391.828 103.63 388.827 104.242C385.827 104.853 382.726 104.767 379.764 103.991C376.801 103.215 374.057 101.77 371.741 99.7656C369.426 97.7618 367.601 95.2531 366.408 92.433C365.214 89.6128 364.684 86.5563 364.858 83.499C365.032 80.4417 365.906 77.4652 367.412 74.7987C368.018 73.7152 368.726 72.692 369.527 71.7429C370.847 70.1706 372.398 68.8081 374.127 67.7022C377.049 65.8459 380.401 64.7791 383.858 64.606C387.315 64.433 390.757 65.1596 393.849 66.7148C396.941 68.2701 399.577 70.6009 401.499 73.4794C403.42 76.3579 404.563 79.6857 404.814 83.1376C404.825 83.6301 404.842 84.117 404.842 84.6039Z" fill="#EFB7B9"/>
<path opacity="0.1" d="M388.03 132.5L387.962 133.115L378.655 118.564C377.681 120.864 377.139 122.403 377.139 122.403C377.139 122.403 355.032 105.759 358.53 104.64C359.705 104.265 361.25 101.746 362.778 98.573L362.968 98.17C364.591 103.006 374.021 112.671 377.944 116.544C378.398 116.991 378.773 117.361 379.064 117.629L379.663 118.189L379.976 118.503C381.403 119.974 387.425 126.466 388.03 132.5Z" fill="black"/>
<path d="M394.986 181.873L393.967 214.652L393.788 220.49C393.788 220.49 381.722 219.37 370.462 218.139C361.395 217.148 352.849 216.079 351.534 215.453C349.855 214.663 346.256 214.053 343.419 213.667C341.225 213.371 339.501 213.214 339.501 213.214C339.501 213.214 338.858 213.404 337.867 213.583C335.707 213.975 331.912 214.294 329.702 212.374C326.875 209.918 334.302 200.991 336.155 198.847L336.563 198.383L335.864 191.919L334.045 175.157C334.045 175.157 332.925 165.503 331.246 160.326C330.797 158.854 330.474 157.347 330.278 155.821C329.654 151.093 329.974 146.288 331.218 141.684C331.75 139.727 332.087 137.723 332.226 135.701C332.506 130.524 348.316 110.516 352.234 108.697C353.996 107.875 355.414 106.461 356.241 104.701C356.514 104.148 356.719 103.563 356.851 102.961C358.53 95.6852 362.778 98.573 362.778 98.573C363.802 104.265 379.657 119.331 379.657 119.331L379.97 119.644C381.543 121.256 388.55 128.823 388.052 135.281C387.952 137.685 388.311 140.086 389.11 142.355C392.335 152.51 394.189 163.05 394.622 173.696L394.986 181.873Z" fill="#DCE6F2"/>
<path opacity="0.1" d="M372.521 142.949C372.521 142.949 368.604 152.463 365.665 154.002C362.727 155.541 373.92 157.248 372.521 142.949Z" fill="black"/>
<path opacity="0.1" d="M375.459 160.718C375.459 160.718 366.505 161.837 366.505 163.516C366.505 165.195 375.459 160.718 375.459 160.718Z" fill="black"/>
<path opacity="0.1" d="M384.834 171.631C384.834 171.631 371.822 199.334 368.184 200.174C364.546 201.013 384.834 171.631 384.834 171.631Z" fill="black"/>
<path opacity="0.1" d="M379.411 120.736L368.648 125.414L355.659 105.793C355.932 105.239 356.136 104.655 356.269 104.052C357.948 96.7766 362.196 99.6644 362.196 99.6644C363.22 105.356 379.075 120.422 379.075 120.422L379.411 120.736Z" fill="black"/>
<path d="M379.97 119.616L369.208 124.295L356.218 104.673C356.491 104.12 356.696 103.536 356.828 102.933C358.507 95.6573 362.755 98.5451 362.755 98.5451C363.779 104.237 379.634 119.303 379.634 119.303L379.97 119.616Z" fill="#DCE6F2"/>
<path opacity="0.1" d="M393.788 220.49C393.788 220.49 381.722 219.37 370.462 218.139L390.665 223.428V229.584C389.781 230.384 389.014 230.799 388.516 230.586C386.188 229.607 367.188 226.528 367.188 226.528C367.188 226.528 356.151 220.932 344.242 214.216C343.952 214.056 343.672 213.88 343.402 213.69C342.013 212.747 340.817 211.548 339.876 210.158C337.677 206.974 336.602 202.883 336.138 198.87C335.876 196.57 335.779 194.255 335.847 191.941C335.904 189.318 336.144 186.702 336.563 184.112C335.411 174.079 334.851 163.988 334.884 153.89C335.024 138.22 349.715 132.623 349.715 132.623C376.719 130.244 368.346 173.898 368.346 173.898C368.346 173.898 366.785 186.21 366.359 187.47C365.934 188.729 364.406 190.828 364.613 193.766C364.82 196.704 369.98 200.219 369.98 200.219C369.98 200.219 375.017 202.581 377.094 206.078C378.605 208.658 388.421 212.156 393.967 214.652L393.788 220.49Z" fill="black"/>
<path opacity="0.1" d="M402.833 72.1794C402.843 73.1012 402.652 74.0142 402.273 74.8545C401.986 75.5403 401.653 76.2059 401.277 76.8469C400.688 78.026 399.852 79.0644 398.825 79.8915C397.533 80.8149 395.898 81.0724 394.348 81.4473C392.798 81.8223 391.186 82.4212 390.302 83.742C389.822 84.591 389.502 85.5203 389.356 86.4843C389.208 87.4474 388.823 88.3589 388.237 89.1371C387.931 89.517 387.508 89.7848 387.034 89.8982C386.56 90.0117 386.062 89.9644 385.617 89.7639C385.149 89.4484 384.794 88.9914 384.604 88.4599C383.966 87.0216 383.804 85.4265 383.547 83.8763C383.289 82.326 382.925 80.731 381.974 79.4829C381.023 78.2349 379.338 77.4122 377.844 77.8991C377.344 78.0916 376.887 78.3832 376.503 78.7564C376.118 79.1295 375.813 79.5765 375.605 80.0706C375.191 81.0597 374.907 82.098 374.76 83.1599C374.066 86.9581 373.247 90.734 372.303 94.4874C372.274 94.6413 372.211 94.7867 372.118 94.9128C371.97 95.0611 371.769 95.1454 371.559 95.1478C370.305 95.3157 369.102 94.4371 367.837 94.5322C367.707 94.5409 367.577 94.5615 367.451 94.5938C365.406 91.0397 364.503 86.9429 364.864 82.8584C365.226 78.774 366.834 74.8994 369.471 71.7596L369.572 71.7316C370.413 71.4329 371.178 70.9512 371.811 70.3213C372.618 69.5128 373.367 68.6468 374.049 67.7301L374.497 67.1704C375.783 65.6207 377.249 64.2286 378.862 63.0233C379.303 62.6625 379.808 62.3889 380.351 62.2174C380.816 62.1269 381.292 62.1118 381.761 62.1726C383.694 62.4046 385.643 62.4776 387.587 62.3909C388.942 62.1779 390.308 62.0396 391.678 61.9767C395.221 62.0775 398.243 64.5792 400.482 67.3215C401.685 68.7263 402.76 70.3437 402.833 72.1794Z" fill="black"/>
<path d="M364.798 75.3303C364.02 76.6064 362.615 77.4738 362.089 78.873C361.317 80.9046 362.621 83.4342 361.423 85.2475C361.026 85.8576 360.371 86.3109 360.147 87.0105C359.766 88.1913 360.807 89.4506 360.539 90.665C360.27 91.8795 358.67 92.9037 359.095 94.0902C359.346 94.6076 359.787 95.0084 360.326 95.2095C361.174 95.696 362.15 95.9126 363.124 95.8307C364.652 95.5789 365.788 94.079 367.339 93.967C368.598 93.8775 369.801 94.7506 371.055 94.5883C371.265 94.581 371.465 94.4951 371.615 94.3476C371.71 94.2229 371.773 94.0769 371.799 93.9223C372.739 90.1726 373.56 86.3967 374.262 82.5947C374.405 81.5326 374.687 80.4938 375.101 79.5054C375.311 79.0124 375.616 78.5662 376.001 78.1933C376.385 77.8203 376.841 77.5281 377.34 77.3339C378.834 76.8526 380.513 77.6697 381.47 78.9178C382.427 80.1658 382.791 81.7608 383.048 83.3111C383.306 84.8614 383.468 86.4564 384.101 87.8947C384.293 88.4282 384.649 88.8868 385.119 89.2043C385.959 89.6912 387.089 89.3051 387.733 88.5775C388.322 87.799 388.707 86.8849 388.852 85.9191C388.998 84.9569 389.319 84.0294 389.798 83.1824C390.682 81.8616 392.3 81.2627 393.844 80.8878C395.389 80.5128 397.018 80.2498 398.322 79.3263C399.346 78.5001 400.182 77.4639 400.773 76.2874C401.601 74.8434 402.373 73.2764 402.306 71.6142C402.234 69.8009 401.159 68.1835 400.012 66.7731C397.773 64.0308 394.745 61.5291 391.203 61.434C389.832 61.4913 388.466 61.6296 387.112 61.8481C385.167 61.9356 383.218 61.8607 381.285 61.6242C380.816 61.568 380.34 61.585 379.875 61.6746C379.332 61.8406 378.827 62.1147 378.392 62.4805C376.777 63.6838 375.31 65.074 374.021 66.622C373.19 67.7237 372.289 68.7705 371.323 69.7561C370.691 70.3871 369.926 70.8706 369.085 71.1721C368.525 71.3288 367.966 71.2168 367.434 71.3903C365.783 71.9108 365.565 74.0655 364.798 75.3303Z" fill="#965D7B"/>
<g opacity="0.1">
<path opacity="0.1" d="M360.539 89.0643C360.602 88.3324 360.49 87.596 360.214 86.9152C360.214 86.9712 360.164 87.0272 360.147 87.0831C359.907 87.8331 360.231 88.611 360.438 89.3889C360.483 89.2844 360.516 89.1756 360.539 89.0643Z" fill="black"/>
<path opacity="0.1" d="M361.871 79.9028C361.813 80.6767 361.828 81.4543 361.916 82.2254C361.973 81.4515 361.958 80.6739 361.871 79.9028Z" fill="black"/>
<path opacity="0.1" d="M400.739 74.6699C400.15 75.849 399.314 76.8874 398.288 77.7144C396.995 78.6379 395.367 78.8953 393.811 79.2703C392.255 79.6453 390.649 80.2441 389.764 81.5649C389.286 82.4143 388.966 83.3435 388.819 84.3072C388.673 85.2728 388.288 86.1866 387.699 86.9656C387.056 87.6932 385.925 88.0849 385.086 87.5924C384.616 87.2749 384.259 86.8163 384.067 86.2828C383.435 84.8445 383.267 83.2551 383.015 81.6992C382.763 80.1434 382.388 78.5539 381.437 77.3059C380.485 76.0578 378.801 75.2351 377.306 75.722C376.807 75.9154 376.351 76.2073 375.966 76.5804C375.582 76.9534 375.276 77.4 375.068 77.8935C374.653 78.882 374.371 79.9207 374.228 80.9828C373.531 84.7848 372.71 88.5607 371.766 92.3104C371.74 92.465 371.676 92.611 371.581 92.7357C371.431 92.8832 371.232 92.9691 371.021 92.9764C369.768 93.1387 368.565 92.2656 367.305 92.3552C365.755 92.4671 364.619 93.967 363.091 94.2132C362.116 94.3006 361.139 94.0836 360.293 93.592C359.904 93.4246 359.555 93.1767 359.269 92.8645C359.138 93.052 359.051 93.2668 359.015 93.4926C358.979 93.7185 358.995 93.9496 359.061 94.1685C359.308 94.6895 359.751 95.0919 360.293 95.2878C361.139 95.7794 362.116 95.9964 363.091 95.909C364.619 95.6627 365.755 94.1629 367.305 94.0509C368.565 93.9614 369.768 94.8345 371.021 94.6722C371.232 94.6648 371.431 94.579 371.581 94.4315C371.676 94.3068 371.74 94.1608 371.766 94.0062C372.706 90.2751 373.527 86.4992 374.228 82.6786C374.371 81.6164 374.653 80.5777 375.068 79.5893C375.276 79.0957 375.582 78.6492 375.966 78.2761C376.351 77.9031 376.807 77.6112 377.306 77.4178C378.801 76.9309 380.48 77.7536 381.437 79.0016C382.394 80.2497 382.758 81.8447 383.015 83.395C383.272 84.9452 383.435 86.5403 384.067 87.9786C384.259 88.5121 384.616 88.9707 385.086 89.2882C385.925 89.7751 387.056 89.389 387.699 88.6614C388.288 87.8824 388.673 86.9686 388.819 86.003C388.966 85.0392 389.286 84.1101 389.764 83.2607C390.649 81.9399 392.266 81.3466 393.811 80.9661C395.355 80.5855 396.984 80.3336 398.288 79.4102C399.314 78.5831 400.15 77.5447 400.739 76.3656C401.568 74.9273 402.34 73.3603 402.273 71.6981C402.262 71.4844 402.239 71.2714 402.206 71.0601C401.936 72.341 401.439 73.5635 400.739 74.6699Z" fill="black"/>
</g>
<path opacity="0.1" d="M402.295 74.8378C403.73 77.3896 404.581 80.2282 404.786 83.1488C399.799 80.3505 395.109 77.2779 392.742 76.209C388.617 74.3453 373.193 74.6251 367.395 74.7986C368.001 73.7152 368.71 72.692 369.51 71.7429C370.835 70.1692 372.392 68.8067 374.127 67.7021C376.426 66.2436 378.997 65.269 381.685 64.838C384.373 64.4071 387.12 64.5287 389.759 65.1955C392.398 65.8624 394.873 67.0604 397.034 68.7163C399.194 70.3723 400.994 72.4514 402.323 74.8266L402.295 74.8378Z" fill="black"/>
<path opacity="0.1" d="M420.093 88.1747C417.401 89.003 413.007 87.4023 408.452 85.1077C407.821 84.3055 407.247 83.4602 406.733 82.5781L422.102 85.4771C423.12 86.1711 423.378 87.1617 420.093 88.1747Z" fill="black"/>
<path d="M386.026 55.4343C386.026 55.4343 371.335 54.5948 367.204 62.57L366.538 69.6385L365.419 69.5154L365.195 74.3229C365.195 74.3229 387.649 73.3434 392.759 75.6492C397.868 77.955 413.746 89.5736 420.109 87.6148C426.473 85.656 419.55 83.8371 419.55 83.8371C419.55 83.8371 410.791 80.1265 410.791 77.2163C410.791 74.3061 408.619 58.9322 386.026 55.4343Z" fill="white"/>
<path opacity="0.1" d="M357.69 317.468C357.69 317.468 367.065 326.562 371.122 325.863C371.122 325.863 359.649 324.883 357.69 317.468Z" fill="black"/>
<path opacity="0.1" d="M355.731 321.682C355.731 321.682 356.571 326.361 358.81 325.902C361.048 325.443 355.731 321.682 355.731 321.682Z" fill="black"/>
<path opacity="0.1" d="M370.423 399.878C370.423 399.878 357.114 410.231 359.358 410.511C361.602 410.791 370.423 399.878 370.423 399.878Z" fill="black"/>
<path d="M388.225 194.387L431.319 187.375V228.174L390.374 226.03L388.225 194.387Z" fill="#0077CC"/>
<path opacity="0.05" d="M388.225 194.387L431.319 187.375V228.174L390.374 226.03L388.225 194.387Z" fill="black"/>
<path d="M431.319 187.375L482.998 191.242L480.139 226.747L431.319 228.174V187.375Z" fill="#0077CC"/>
<path opacity="0.1" d="M431.319 187.375L482.998 191.242L480.139 226.747L431.319 228.174V187.375Z" fill="black"/>
<path d="M447.208 174.922L431.319 187.375L482.998 191.242L491.444 178.498L447.208 174.922Z" fill="#0077CC"/>
<path d="M372.622 180.787L411.418 176.064L431.319 187.375L388.225 194.387L372.622 180.787Z" fill="#0077CC"/>
<path d="M440.766 197.969V253.75L420.579 251.679L411.798 250.784L409.123 250.504L400.348 249.603L388.225 248.361V194.387L431.314 197.32L440.766 197.969Z" fill="#0077CC"/>
<path d="M482.998 191.242V245.641L466.819 248.747L458.95 250.258L440.766 253.75V197.969L482.998 191.242Z" fill="#0077CC"/>
<path opacity="0.05" d="M482.998 191.242V245.641L466.819 248.747L458.95 250.258L440.766 253.75V197.969L482.998 191.242Z" fill="black"/>
<path d="M372.622 206.129L388.225 194.387L440.766 197.969L433.032 210.998L372.622 206.129Z" fill="#0077CC"/>
<path opacity="0.1" d="M372.622 206.129L388.225 194.387L440.766 197.969L433.032 210.998L372.622 206.129Z" fill="white"/>
<path d="M482.998 191.242L440.766 197.969L454.512 210.281L499.749 202.692L482.998 191.242Z" fill="#0077CC"/>
<path opacity="0.1" d="M482.998 191.242L440.766 197.969L454.512 210.281L499.749 202.692L482.998 191.242Z" fill="white"/>
<path opacity="0.1" d="M466.819 248.747L458.95 250.258V238.634L466.32 236.776L466.819 248.747Z" fill="white"/>
<path opacity="0.1" d="M420.579 243.99V251.679L411.798 250.784V243.99H420.579Z" fill="white"/>
<path opacity="0.1" d="M409.123 246.413V250.504L400.348 249.603V246.413H409.123Z" fill="white"/>
<path opacity="0.1" d="M435.483 239.91C429.467 247.605 409.599 242.288 409.599 242.288L394.835 226.887L392.831 224.799L396.749 217.523C396.749 217.523 397.868 217.893 399.738 218.542C409.632 222.001 440.548 233.435 435.483 239.91Z" fill="black"/>
<path d="M434.923 238.791C428.907 246.486 409.039 241.169 409.039 241.169L394.275 225.767L392.272 223.68L396.189 216.404C396.189 216.404 397.309 216.773 399.178 217.423C409.073 220.881 439.988 232.315 434.923 238.791Z" fill="#EFB7B9"/>
<path opacity="0.1" d="M399.155 217.423C398.338 219.773 396.262 223.254 394.253 225.767L392.249 223.68L396.167 216.404C396.167 216.404 397.292 216.773 399.155 217.423Z" fill="black"/>
<path d="M350.275 130.384C350.275 130.384 335.584 135.981 335.444 151.651C335.41 161.749 335.971 171.841 337.123 181.873C337.123 181.873 332.925 205.239 344.818 211.955C356.711 218.671 367.764 224.267 367.764 224.267C367.764 224.267 386.765 227.345 389.098 228.325C391.432 229.304 399.542 216.712 398.282 214.613C397.023 212.514 379.724 207.337 377.67 203.84C375.616 200.342 370.557 197.986 370.557 197.986C370.557 197.986 365.397 194.465 365.19 191.527C364.983 188.589 366.505 186.49 366.936 185.231C367.367 183.972 368.928 171.659 368.928 171.659C368.928 171.659 377.278 127.978 350.275 130.384Z" fill="#DCE6F2"/>
<path opacity="0.1" d="M356.991 182.265C356.991 182.265 337.123 184.503 338.662 191.499C338.662 191.499 346.211 184.442 356.991 182.265Z" fill="black"/>
<path opacity="0.1" d="M356.991 185.063C356.991 185.063 345.713 193.318 347.784 193.878C349.855 194.437 356.991 185.063 356.991 185.063Z" fill="black"/>
<path opacity="0.1" d="M362.028 188.421C362.028 188.421 358.81 194.208 360.629 193.906C362.447 193.604 362.028 188.421 362.028 188.421Z" fill="black"/>
<path d="M568.889 62.9003C568.889 62.9003 547.622 61.6186 550.107 76.5392C550.107 76.5392 549.609 79.1752 551.999 80.3729C551.999 80.3729 552.038 79.2535 554.182 79.6397C554.945 79.7682 555.721 79.8057 556.493 79.7516C557.539 79.6818 558.534 79.271 559.325 78.5819C559.325 78.5819 565.308 76.1138 567.636 66.331C567.636 66.331 569.36 64.1931 569.315 63.6446L565.722 65.1837C565.722 65.1837 566.947 67.7749 565.979 69.9296C565.979 69.9296 565.867 65.2788 565.173 65.3852C565.033 65.3852 563.31 66.2862 563.31 66.2862C563.31 66.2862 565.42 70.7971 563.825 74.0823C563.825 74.0823 564.429 68.5193 562.649 66.6108L560.12 68.0883C560.12 68.0883 562.588 72.7503 560.914 76.556C560.914 76.556 561.345 70.7187 559.588 68.4465L557.293 70.2318C557.293 70.2318 559.616 74.8322 558.2 77.9887C558.2 77.9887 558.015 71.1944 556.795 70.6795C556.795 70.6795 554.792 72.4481 554.489 73.1756C554.489 73.1756 556.073 76.5336 555.088 78.2741C555.088 78.2741 554.484 73.7465 553.969 73.7241C553.969 73.7241 551.971 76.7239 551.764 78.761C551.861 76.8618 552.453 75.0211 553.482 73.4219C552.33 73.6397 551.268 74.1904 550.426 75.0057C550.426 75.0057 550.734 72.8846 553.974 72.6999C553.974 72.6999 555.653 70.4221 556.068 70.2822C556.068 70.2822 552.844 70.0135 550.891 70.881C550.891 70.881 552.609 68.883 556.661 69.7617L558.9 67.9148C558.9 67.9148 554.657 67.3552 552.855 67.9764C552.855 67.9764 554.926 66.2079 559.51 67.4951L561.972 66.0232C561.972 66.0232 558.357 65.2396 556.202 65.5251C556.202 65.5251 558.474 64.2994 562.694 65.6258L564.457 64.8367C564.457 64.8367 561.804 64.3162 561.032 64.2323C560.259 64.1483 560.215 63.9356 560.215 63.9356C561.893 63.6563 563.616 63.8501 565.19 64.4953C565.19 64.4953 568.968 63.1353 568.889 62.9003Z" fill="#0077CC"/>
<path opacity="0.1" d="M633.508 137.526C633.508 137.526 612.241 136.244 614.726 151.164C614.726 151.164 614.228 153.8 616.618 154.998C616.618 154.998 616.657 153.879 618.806 154.265C619.569 154.393 620.345 154.431 621.117 154.377C622.151 154.302 623.133 153.893 623.915 153.213C623.915 153.213 629.904 150.739 632.232 140.956C632.232 140.956 633.95 138.824 633.883 138.275L630.29 139.809C630.29 139.809 631.516 142.4 630.553 144.555C630.553 144.555 630.435 139.904 629.747 140.01C629.607 140.01 627.878 140.911 627.878 140.911C627.878 140.911 629.993 145.428 628.398 148.708C628.398 148.708 629.003 143.145 627.217 141.236L624.716 142.697C624.716 142.697 627.184 147.359 625.51 151.164C625.51 151.164 625.941 145.327 624.184 143.055L621.895 144.846C621.895 144.846 624.212 149.441 622.802 152.597C622.802 152.597 622.617 145.803 621.397 145.288C621.397 145.288 619.393 147.057 619.086 147.784C619.086 147.784 620.675 151.142 619.69 152.883C619.69 152.883 619.086 148.355 618.571 148.333C618.571 148.333 616.573 151.332 616.366 153.37C616.466 151.47 617.06 149.63 618.089 148.03C616.936 148.249 615.872 148.799 615.028 149.614C615.028 149.614 615.341 147.493 618.582 147.308C618.582 147.308 620.233 145.031 620.675 144.891C620.675 144.891 617.451 144.622 615.498 145.489C615.498 145.489 617.216 143.491 621.263 144.398L623.501 142.551C623.501 142.551 619.254 141.992 617.457 142.613C617.457 142.613 619.528 140.844 624.111 142.132L626.574 140.66C626.574 140.66 622.953 139.882 620.798 140.162C620.798 140.162 623.076 138.936 627.296 140.262L629.059 139.473C629.059 139.473 626.406 138.953 625.628 138.869C624.85 138.785 624.811 138.572 624.811 138.572C626.491 138.293 628.216 138.486 629.792 139.132C629.792 139.132 633.575 137.761 633.508 137.526Z" fill="#0077CC"/>
<path opacity="0.1" d="M504.31 124.278C504.31 124.278 509.207 103.52 494.074 103.448C494.074 103.448 491.561 102.507 489.977 104.657C489.977 104.657 491.057 104.886 490.324 106.934C490.071 107.659 489.902 108.41 489.821 109.173C489.712 110.213 489.946 111.261 490.487 112.156C490.487 112.156 491.903 118.48 501.12 122.443C501.12 122.443 502.933 124.502 503.482 124.525L502.587 120.724C502.587 120.724 499.822 121.491 497.863 120.165C497.863 120.165 502.469 120.842 502.475 120.165C502.475 120.025 501.915 118.172 501.915 118.172C501.915 118.172 497.107 119.482 494.141 117.35C494.141 117.35 499.52 118.894 501.708 117.467L500.7 114.714C500.7 114.714 495.663 116.354 492.216 114.053C492.216 114.053 497.897 115.475 500.437 114.132L499.066 111.568C499.066 111.568 494.141 113.068 491.27 111.137C491.27 111.137 497.986 112.111 498.714 111.003C498.714 111.003 497.314 108.725 496.648 108.3C496.648 108.3 493.089 109.296 491.522 108.026C491.522 108.026 496.083 108.199 496.19 107.718C496.19 107.718 493.576 105.239 491.584 104.679C493.44 105.102 495.155 106.001 496.559 107.287C496.538 106.114 496.177 104.972 495.518 104.002C495.518 104.002 497.555 104.673 497.197 107.919C497.197 107.919 499.156 109.934 499.217 110.393C499.217 110.393 500.029 107.265 499.508 105.188C499.508 105.188 501.187 107.225 499.603 111.059L501.036 113.606C501.036 113.606 502.335 109.52 502.004 107.64C502.004 107.64 503.398 109.979 501.344 114.277L502.379 116.958C502.379 116.958 503.762 113.522 503.851 111.361C503.851 111.361 504.674 113.813 502.642 117.747L503.124 119.616C503.124 119.616 504.086 117.092 504.299 116.342C504.512 115.592 504.73 115.587 504.73 115.587C504.721 117.289 504.239 118.956 503.336 120.4C503.336 120.4 504.07 124.306 504.31 124.278Z" fill="#0077CC"/>
<path opacity="0.1" d="M457.735 131.352C457.735 131.352 440.655 118.575 434.549 132.416C434.549 132.416 432.685 134.347 434.023 136.658C434.023 136.658 434.661 135.757 436.261 137.251C436.828 137.779 437.456 138.237 438.13 138.617C439.045 139.126 440.1 139.322 441.136 139.176C441.136 139.176 447.494 140.402 454.814 133.513C454.814 133.513 457.428 132.673 457.674 132.181L453.818 131.504C453.818 131.504 453.415 134.341 451.428 135.611C451.428 135.611 453.885 131.66 453.247 131.375C453.118 131.313 451.193 131.095 451.193 131.095C451.193 131.095 450.477 136.031 447.342 137.895C447.342 137.895 450.908 133.58 450.465 131.005L447.538 130.849C447.538 130.849 447.04 136.104 443.548 138.365C443.548 138.365 447.113 133.725 446.906 130.86L444.007 131.095C444.007 131.095 443.419 136.205 440.503 138.063C440.503 138.063 444.08 132.287 443.346 131.19C443.346 131.19 440.699 131.565 440.045 132.002C440.045 132.002 439.535 135.662 437.744 136.591C437.744 136.591 439.731 132.477 439.328 132.192C439.328 132.192 436.009 133.597 434.705 135.197C435.833 133.665 437.342 132.453 439.082 131.683C437.999 131.233 436.809 131.108 435.657 131.324C435.657 131.324 437.078 129.724 439.888 131.352C439.888 131.352 442.518 130.362 442.966 130.485C442.966 130.485 440.419 128.487 438.31 128.14C438.31 128.14 440.85 127.412 443.733 130.379L446.637 130.082C446.637 130.082 443.408 127.284 441.556 126.814C441.556 126.814 444.259 126.472 447.376 130.065L450.242 130.194C450.242 130.194 447.65 127.552 445.697 126.601C445.697 126.601 448.266 126.825 451.064 130.255L452.973 130.563C452.973 130.563 451.042 128.672 450.437 128.179C449.833 127.687 449.917 127.48 449.917 127.48C451.474 128.169 452.809 129.277 453.773 130.681C453.773 130.681 457.663 131.582 457.735 131.352Z" fill="#0077CC"/>
<path opacity="0.1" d="M514.602 12.6426C514.602 12.6426 497.521 -0.140021 491.416 13.706C491.416 13.706 489.552 15.6368 490.889 17.9482C490.889 17.9482 491.527 17.0472 493.128 18.5415C493.698 19.0662 494.327 19.5226 495.003 19.9014C495.917 20.4108 496.972 20.6073 498.008 20.4611C498.008 20.4611 504.366 21.6868 511.686 14.7917C511.686 14.7917 514.3 13.9578 514.541 13.4597L510.685 12.7937C510.685 12.7937 510.287 15.6312 508.295 16.9017C508.295 16.9017 510.757 12.9504 510.119 12.665C509.991 12.6035 508.065 12.3852 508.065 12.3852C508.065 12.3852 507.327 17.3326 504.193 19.1851C504.193 19.1851 507.752 14.8701 507.316 12.2956L504.388 12.1389C504.388 12.1389 503.885 17.3942 500.398 19.6496C500.398 19.6496 503.963 15.01 503.756 12.1445L500.863 12.3796C500.863 12.3796 500.269 17.4949 497.354 19.353C497.354 19.353 500.935 13.5773 500.202 12.4803C500.202 12.4803 497.555 12.8553 496.9 13.2918C496.9 13.2918 496.391 16.952 494.6 17.8811C494.6 17.8811 496.587 13.7676 496.184 13.4765C496.184 13.4765 492.865 14.8869 491.561 16.4875C492.687 14.9533 494.196 13.7414 495.938 12.9728C494.854 12.5195 493.661 12.395 492.507 12.6147C492.507 12.6147 493.934 11.014 496.744 12.6426C496.744 12.6426 499.374 11.6464 499.822 11.7752C499.822 11.7752 497.275 9.77717 495.165 9.42459C495.165 9.42459 497.701 8.70262 500.583 11.6632L503.487 11.3666C503.487 11.3666 500.264 8.5683 498.406 8.09259C498.406 8.09259 501.109 7.75679 504.232 11.3498L507.097 11.4729C507.097 11.4729 504.506 8.83135 502.547 7.88552C502.547 7.88552 505.122 8.10938 507.92 11.5401L509.823 11.8479C509.823 11.8479 507.886 9.97865 507.282 9.49734C506.677 9.01603 506.761 8.80336 506.761 8.80336C508.319 9.49207 509.654 10.6005 510.618 12.0046C510.618 12.0046 514.507 12.8553 514.602 12.6426Z" fill="#0077CC"/>
<path opacity="0.1" d="M579.87 28.8338C579.87 28.8338 573.042 8.62441 560.164 16.566C560.164 16.566 557.534 17.1257 557.327 19.7617C557.327 19.7617 558.362 19.3811 558.821 21.5078C558.992 22.2643 559.249 22.9986 559.588 23.6961C560.05 24.6347 560.804 25.3985 561.737 25.8732C561.737 25.8732 566.281 30.4904 576.221 28.9625C576.221 28.9625 578.846 29.7572 579.327 29.483L576.529 26.735C576.529 26.735 574.592 28.845 572.231 28.761C572.231 28.761 576.501 26.9029 576.148 26.3041C576.075 26.1866 574.615 24.9161 574.615 24.9161C574.615 24.9161 571.223 28.5707 567.585 28.3301C567.585 28.3301 572.964 26.7966 574.061 24.4124L571.744 22.6271C571.744 22.6271 568.352 26.6679 564.194 26.5447C564.194 26.5447 569.791 24.7482 571.206 22.2633L568.688 20.8138C568.688 20.8138 565.33 24.6923 561.849 24.5691C561.849 24.5691 568.072 21.8436 568.089 20.5228C568.089 20.5228 565.699 19.3307 564.91 19.3195C564.91 19.3195 562.414 22.0451 560.433 21.7988C560.433 21.7988 564.395 19.5322 564.227 19.0677C564.227 19.0677 560.702 18.3457 558.715 18.9278C560.512 18.3021 562.441 18.1574 564.311 18.508C563.673 17.5224 562.761 16.7445 561.687 16.2694C561.687 16.2694 563.769 15.7601 565.162 18.6927C565.162 18.6927 567.893 19.3699 568.184 19.7225C568.184 19.7225 567.222 16.6387 565.683 15.1501C565.683 15.1501 568.184 15.9951 568.867 20.0863L571.43 21.4854C571.43 21.4854 570.373 17.3383 569.097 15.8888C569.097 15.8888 571.52 17.1424 572.046 21.8716L574.341 23.6009C574.341 23.6009 573.703 19.9519 572.628 18.0603C572.628 18.0603 574.62 19.7057 574.979 24.1214L576.372 25.4534C576.372 25.4534 575.857 22.8006 575.645 22.0507C575.432 21.3007 575.605 21.2504 575.605 21.2504C576.495 22.7022 576.966 24.3719 576.965 26.0746C576.965 26.0746 579.674 28.9793 579.87 28.8338Z" fill="#0077CC"/>
<path opacity="0.1" d="M535.31 29.83C535.31 29.83 514.099 27.4682 515.85 42.5175C515.85 42.5175 515.218 45.1255 517.529 46.4351C517.529 46.4351 517.625 45.3158 519.768 45.8195C520.526 45.9825 521.299 46.0594 522.074 46.0489C523.12 46.03 524.132 45.6705 524.956 45.0248C524.956 45.0248 531.062 42.8589 533.911 33.2047C533.911 33.2047 535.735 31.162 535.696 30.6079L532.03 31.9623C532.03 31.9623 533.15 34.6095 532.03 36.7138C532.03 36.7138 532.148 32.063 531.471 32.1358C531.331 32.1358 529.562 32.9417 529.562 32.9417C529.562 32.9417 531.443 37.5589 529.685 40.7769C529.685 40.7769 530.569 35.2475 528.885 33.2551L526.282 34.5983C526.282 34.5983 528.521 39.3834 526.646 43.0995C526.646 43.0995 527.374 37.2902 525.734 34.9341L523.355 36.6131C523.355 36.6131 525.437 41.3198 523.865 44.4035C523.865 44.4035 524.027 37.6093 522.835 37.0328C522.835 37.0328 520.742 38.7118 520.4 39.4058C520.4 39.4058 521.816 42.8197 520.747 44.5267C520.747 44.5267 520.372 39.9766 519.88 39.9318C519.88 39.9318 517.731 42.8253 517.417 44.8681C517.612 42.9742 518.299 41.1642 519.41 39.6184C518.249 39.7789 517.159 40.2749 516.276 41.0456C516.276 41.0456 516.69 38.9468 519.936 38.9245C519.936 38.9245 521.699 36.7362 522.175 36.6187C522.175 36.6187 518.968 36.1877 516.97 36.9545C516.97 36.9545 518.789 35.0404 522.785 36.1541L525.141 34.4248C525.141 34.4248 520.882 33.5629 519.08 34.1226C519.08 34.1226 521.24 32.4436 525.751 33.9827L528.286 32.6339C528.286 32.6339 524.71 31.6713 522.544 31.8448C522.544 31.8448 524.878 30.7254 529.025 32.2757L530.827 31.5761C530.827 31.5761 528.202 30.9213 527.43 30.7982C526.657 30.6751 526.629 30.4624 526.629 30.4624C528.321 30.2683 530.034 30.5472 531.577 31.2683C531.577 31.2683 535.349 30.065 535.31 29.83Z" fill="#0077CC"/>
<path opacity="0.1" d="M720.893 194.465C720.893 194.465 699.693 192.104 701.445 207.136C701.445 207.136 700.813 209.744 703.124 211.054C703.124 211.054 703.219 209.934 705.363 210.433C706.119 210.601 706.894 210.678 707.669 210.662C708.716 210.646 709.728 210.286 710.551 209.638C710.551 209.638 716.657 207.472 719.478 197.823C719.478 197.823 721.302 195.775 721.263 195.227L717.597 196.575C717.597 196.575 718.716 199.228 717.597 201.332C717.597 201.332 717.715 196.676 717.037 196.754C716.897 196.754 715.129 197.555 715.129 197.555C715.129 197.555 717.009 202.172 715.252 205.39C715.252 205.39 716.136 199.866 714.452 197.868L711.849 199.217C711.849 199.217 714.088 204.002 712.219 207.718C712.219 207.718 712.941 201.909 711.301 199.547L708.922 201.226C708.922 201.226 711.004 205.933 709.432 209.011C709.432 209.011 709.594 202.217 708.402 201.646C708.402 201.646 706.314 203.325 705.967 204.019C705.967 204.019 707.389 207.433 706.314 209.14C706.314 209.14 705.939 204.59 705.447 204.545C705.447 204.545 703.298 207.438 702.984 209.481C703.178 207.587 703.865 205.777 704.977 204.232C703.814 204.389 702.724 204.886 701.843 205.659C701.843 205.659 702.257 203.554 705.503 203.532C705.503 203.532 707.271 201.344 707.741 201.232C707.741 201.232 704.535 200.795 702.537 201.562C702.537 201.562 704.355 199.654 708.357 200.767L710.708 199.038C710.708 199.038 706.499 198.243 704.669 198.792C704.669 198.792 706.829 197.113 711.34 198.646L713.875 197.303C713.875 197.303 710.299 196.34 708.133 196.514C708.133 196.514 710.467 195.394 714.614 196.945L716.416 196.24C716.416 196.24 713.791 195.585 713.019 195.467C712.247 195.35 712.219 195.131 712.219 195.131C713.91 194.934 715.623 195.211 717.166 195.932C717.166 195.932 720.949 194.706 720.893 194.465Z" fill="#0077CC"/>
<path opacity="0.1" d="M753.303 214.266C753.303 214.266 732.103 211.91 733.855 226.937C733.855 226.937 733.228 229.545 735.534 230.855C735.534 230.855 735.629 229.735 737.773 230.239C738.528 230.403 739.3 230.478 740.073 230.463C741.115 230.442 742.122 230.084 742.944 229.444C742.944 229.444 749.044 227.278 751.865 217.624C751.865 217.624 753.695 215.581 753.65 215.027L749.984 216.376C749.984 216.376 751.104 219.029 749.984 221.133C749.984 221.133 750.102 216.482 749.425 216.555C749.285 216.555 747.516 217.356 747.516 217.356C747.516 217.356 749.397 221.973 747.64 225.191C747.64 225.191 748.524 219.667 746.839 217.675L744.237 219.018C744.237 219.018 746.475 223.803 744.606 227.519C744.606 227.519 745.328 221.71 743.688 219.354L741.31 221.033C741.31 221.033 743.392 225.739 741.825 228.823C741.825 228.823 741.981 222.023 740.789 221.452C740.789 221.452 738.702 223.131 738.355 223.825C738.355 223.825 739.776 227.239 738.702 228.946C738.702 228.946 738.327 224.396 737.834 224.351C737.834 224.351 735.685 227.245 735.377 229.288C735.571 227.394 736.256 225.585 737.364 224.038C736.203 224.198 735.114 224.694 734.23 225.465C734.23 225.465 734.65 223.361 737.896 223.344C737.896 223.344 739.659 221.156 740.134 221.038C740.134 221.038 736.928 220.607 734.93 221.374C734.93 221.374 736.748 219.46 740.75 220.574L743.101 218.844C743.101 218.844 738.892 218.05 737.062 218.598C737.062 218.598 739.222 216.919 743.733 218.458L746.268 217.109C746.268 217.109 742.692 216.147 740.526 216.32C740.526 216.32 742.86 215.201 747.007 216.751L748.809 216.052C748.809 216.052 746.184 215.397 745.418 215.274C744.651 215.15 744.612 214.938 744.612 214.938C746.304 214.744 748.016 215.023 749.559 215.744C749.559 215.744 753.359 214.507 753.303 214.266Z" fill="#0077CC"/>
<path opacity="0.1" d="M681.348 47.4815C681.348 47.4815 664.267 34.7045 658.161 48.5449C658.161 48.5449 656.297 50.4757 657.635 52.7871C657.635 52.7871 658.273 51.8861 659.874 53.3804C660.441 53.9078 661.068 54.3662 661.743 54.7459C662.657 55.2545 663.712 55.451 664.748 55.3056C664.748 55.3056 671.106 56.5313 678.432 49.6418C678.432 49.6418 681.04 48.8024 681.286 48.3099L677.441 47.6159C677.441 47.6159 677.038 50.4533 675.052 51.7238C675.052 51.7238 677.509 47.7726 676.871 47.4871C676.742 47.4256 674.822 47.2073 674.822 47.2073C674.822 47.2073 674.1 52.1435 670.966 54.0072C670.966 54.0072 674.531 49.6922 674.089 47.1178L671.162 46.9611C671.162 46.9611 670.664 52.2163 667.172 54.4773C667.172 54.4773 670.742 49.8377 670.53 46.9723L667.631 47.2073C667.631 47.2073 667.071 52.317 664.127 54.1751C664.127 54.1751 667.709 48.3994 666.97 47.3025C666.97 47.3025 664.323 47.6774 663.668 48.114C663.668 48.114 663.165 51.7741 661.374 52.7032C661.374 52.7032 663.355 48.5897 662.952 48.3042C662.952 48.3042 659.633 49.709 658.329 51.3096C659.457 49.7771 660.966 48.5656 662.706 47.795C661.623 47.345 660.433 47.2205 659.28 47.4368C659.28 47.4368 660.708 45.8361 663.517 47.4648C663.517 47.4648 666.142 46.4742 666.59 46.5973C666.59 46.5973 664.043 44.5993 661.933 44.2523C661.933 44.2523 664.474 43.5248 667.356 46.491L670.261 46.1943C670.261 46.1943 667.037 43.396 665.179 42.9259C665.179 42.9259 667.882 42.5845 671 46.1775L673.871 46.3063C673.871 46.3063 671.274 43.6647 669.321 42.7132C669.321 42.7132 671.895 42.9371 674.688 46.3678L676.596 46.6756C676.596 46.6756 674.665 44.784 674.061 44.2915C673.457 43.799 673.546 43.6367 673.546 43.6367C675.101 44.3273 676.434 45.4354 677.397 46.8379C677.397 46.8379 681.275 47.711 681.348 47.4815Z" fill="#0077CC"/>
<path opacity="0.1" d="M694.545 139.725C694.545 139.725 688.657 119.225 675.415 126.584C675.415 126.584 672.763 126.993 672.432 129.645C672.432 129.645 673.485 129.315 673.848 131.459C673.983 132.229 674.209 132.98 674.52 133.697C674.935 134.662 675.654 135.464 676.568 135.981C676.568 135.981 680.9 140.794 690.896 139.719C690.896 139.719 693.481 140.626 693.974 140.38L691.327 137.503C691.327 137.503 689.295 139.529 686.944 139.339C686.944 139.339 691.287 137.66 690.952 137.061C690.884 136.938 689.485 135.6 689.485 135.6C689.485 135.6 685.937 139.104 682.31 138.695C682.31 138.695 687.756 137.408 688.954 135.091L686.715 133.199C686.715 133.199 683.144 137.083 678.997 136.781C678.997 136.781 684.639 135.231 686.194 132.819L683.743 131.257C683.743 131.257 680.189 134.979 676.742 134.699C676.742 134.699 683.083 132.253 683.161 130.938C683.161 130.938 680.822 129.64 680.033 129.595C680.033 129.595 677.419 132.203 675.432 131.867C675.432 131.867 679.495 129.78 679.35 129.31C679.35 129.31 675.857 128.431 673.848 128.918C675.668 128.378 677.597 128.322 679.445 128.756C678.853 127.743 677.977 126.926 676.926 126.405C676.926 126.405 679.031 125.985 680.284 128.979C680.284 128.979 682.976 129.774 683.256 130.144C683.256 130.144 682.434 127.015 680.962 125.465C680.962 125.465 683.424 126.416 683.922 130.535L686.418 132.052C686.418 132.052 685.545 127.854 684.336 126.377C684.336 126.377 686.698 127.737 687.017 132.483L689.256 134.313C689.256 134.313 688.78 130.642 687.795 128.716C687.795 128.716 689.715 130.451 689.871 134.873L691.203 136.272C691.203 136.272 690.812 133.597 690.644 132.835C690.476 132.074 690.644 131.968 690.644 131.968C691.472 133.457 691.869 135.147 691.791 136.848C691.791 136.848 694.343 139.859 694.545 139.725Z" fill="#0077CC"/>
<path opacity="0.1" d="M563.349 185.919C563.349 185.919 551.915 167.909 541.298 178.689C541.298 178.689 538.869 179.808 539.295 182.466C539.295 182.466 540.218 181.851 541.169 183.809C541.511 184.504 541.936 185.154 542.434 185.746C543.102 186.554 544.016 187.12 545.037 187.358C545.037 187.358 550.549 190.76 559.84 186.91C559.84 186.91 562.577 187.055 562.98 186.68L559.622 184.666C559.622 184.666 558.239 187.184 555.928 187.66C555.928 187.66 559.633 184.862 559.135 184.347C559.039 184.246 557.316 183.362 557.316 183.362C557.316 183.362 554.892 187.716 551.299 188.348C551.299 188.348 556.163 185.578 556.667 183.015L553.986 181.834C553.986 181.834 551.652 186.563 547.589 187.43C547.589 187.43 552.57 184.358 553.381 181.604L550.583 180.798C550.583 180.798 548.221 185.371 544.835 186.07C544.835 186.07 550.23 181.94 549.934 180.653C549.934 180.653 547.326 180.065 546.576 180.244C546.576 180.244 544.802 183.485 542.798 183.72C542.798 183.72 546.111 180.575 545.837 180.16C545.837 180.16 542.238 180.3 540.448 181.336C542.045 180.301 543.886 179.703 545.787 179.601C544.936 178.795 543.868 178.256 542.714 178.051C542.714 178.051 544.611 177.06 546.632 179.578C546.632 179.578 549.43 179.578 549.816 179.858C549.816 179.858 548.137 177.06 546.296 176.013C546.296 176.013 548.926 176.237 550.561 180.048L553.387 180.798C553.387 180.798 551.367 177.021 549.794 175.941C549.794 175.941 552.441 176.579 554.081 181.05L556.722 182.17C556.722 182.17 555.234 178.784 553.739 177.2C553.739 177.2 556.068 178.319 557.461 182.522L559.14 183.49C559.14 183.49 558.021 181.034 557.624 180.356C557.226 179.679 557.383 179.522 557.383 179.522C558.594 180.719 559.448 182.228 559.851 183.882C559.851 183.882 563.198 186.11 563.349 185.919Z" fill="#0077CC"/>
<path d="M638.494 93.8999C638.494 93.8999 627.62 75.5486 616.668 85.9919C616.668 85.9919 614.205 87.0553 614.552 89.7081C614.552 89.7081 615.487 89.1148 616.382 91.1016C616.702 91.8079 617.106 92.473 617.585 93.0828C618.228 93.9081 619.125 94.4983 620.137 94.7618C620.137 94.7618 625.538 98.3324 634.946 94.7618C634.946 94.7618 637.677 94.9912 638.091 94.6275L634.806 92.5119C634.806 92.5119 633.351 94.9801 631.023 95.3886C631.023 95.3886 634.812 92.6854 634.336 92.1761C634.235 92.0698 632.545 91.1296 632.545 91.1296C632.545 91.1296 629.987 95.411 626.389 95.9315C626.389 95.9315 631.336 93.3123 631.913 90.7714L629.271 89.529C629.271 89.529 626.792 94.1909 622.701 94.9353C622.701 94.9353 627.777 92.0194 628.672 89.2939L625.908 88.3984C625.908 88.3984 623.4 92.8757 619.998 93.4914C619.998 93.4914 625.516 89.529 625.258 88.2361C625.258 88.2361 622.673 87.5645 621.9 87.7213C621.9 87.7213 620.026 90.9057 618.016 91.0792C618.016 91.0792 621.425 88.0459 621.167 87.6205C621.167 87.6205 617.563 87.6485 615.744 88.6279C617.373 87.6451 619.231 87.1049 621.134 87.0608C620.306 86.2289 619.254 85.657 618.106 85.4154C618.106 85.4154 620.037 84.4808 622.024 87.0608C622.024 87.0608 624.822 87.156 625.197 87.4414C625.197 87.4414 623.613 84.6431 621.8 83.4902C621.8 83.4902 624.419 83.7924 625.936 87.6541L628.734 88.4936C628.734 88.4936 626.837 84.6543 625.292 83.5238C625.292 83.5238 627.922 84.2458 629.422 88.7622L632.025 89.9767C632.025 89.9767 630.642 86.546 629.226 84.9397C629.226 84.9397 631.515 86.1318 632.786 90.374L634.426 91.3926C634.426 91.3926 633.373 88.9021 633.004 88.2137C632.635 87.5254 632.791 87.3743 632.791 87.3743C633.965 88.6073 634.772 90.1418 635.125 91.8068C635.125 91.8068 638.332 94.0846 638.494 93.8999Z" fill="#0077CC"/>
<path d="M569.695 132.488C569.695 132.488 570.255 111.165 555.441 114.171C555.441 114.171 552.788 113.762 551.669 116.191C551.669 116.191 552.788 116.191 552.475 118.346C552.372 119.114 552.361 119.892 552.441 120.663C552.542 121.709 552.985 122.692 553.7 123.461C553.7 123.461 556.37 129.36 566.225 131.364C566.225 131.364 568.414 133.015 568.962 132.925L567.283 129.388C567.283 129.388 564.737 130.698 562.549 129.808C562.549 129.808 567.194 129.533 567.065 128.851C567.065 128.711 566.102 127.009 566.102 127.009C566.102 127.009 561.659 129.276 558.329 127.787C558.329 127.787 563.925 128.207 565.755 126.366L564.194 123.886C564.194 123.886 559.616 126.506 555.754 124.961C555.754 124.961 561.603 125.196 563.819 123.366L561.955 121.127C561.955 121.127 557.439 123.601 554.238 122.291C554.238 122.291 561.021 121.883 561.513 120.646C561.513 120.646 559.677 118.704 558.939 118.407C558.939 118.407 555.659 120.086 553.868 119.18C553.868 119.18 558.345 118.43 558.373 117.932C558.373 117.932 555.312 116.034 553.247 115.895C555.151 115.929 557.013 116.461 558.648 117.439C558.393 116.295 557.809 115.251 556.969 114.434C556.969 114.434 559.101 114.674 559.392 117.904C559.392 117.904 561.726 119.482 561.877 119.918C561.877 119.918 562.039 116.689 561.105 114.764C561.105 114.764 563.164 116.415 562.392 120.489L564.311 122.694C564.311 122.694 564.748 118.43 564.048 116.656C564.048 116.656 565.884 118.665 564.754 123.288L566.304 125.7C566.304 125.7 566.964 122.056 566.612 119.913C566.612 119.913 567.91 122.152 566.724 126.411L567.574 128.146C567.574 128.146 568.005 125.476 568.061 124.698C568.117 123.92 568.33 123.87 568.33 123.87C568.667 125.539 568.533 127.27 567.944 128.867C567.944 128.867 569.449 132.561 569.695 132.488Z" fill="#0077CC"/>
<path opacity="0.1" d="M594.186 403.432C602.51 403.432 609.258 402.291 609.258 400.885C609.258 399.479 602.51 398.339 594.186 398.339C585.862 398.339 579.115 399.479 579.115 400.885C579.115 402.291 585.862 403.432 594.186 403.432Z" fill="#0077CC"/>
<path opacity="0.1" d="M539.244 442.093C547.568 442.093 554.316 440.953 554.316 439.546C554.316 438.14 547.568 437 539.244 437C530.92 437 524.173 438.14 524.173 439.546C524.173 440.953 530.92 442.093 539.244 442.093Z" fill="#0077CC"/>
<path opacity="0.1" d="M255.127 422.286C263.451 422.286 270.199 421.146 270.199 419.74C270.199 418.334 263.451 417.194 255.127 417.194C246.803 417.194 240.055 418.334 240.055 419.74C240.055 421.146 246.803 422.286 255.127 422.286Z" fill="#0077CC"/>
<path opacity="0.1" d="M653.561 439.546C661.885 439.546 668.632 438.406 668.632 437C668.632 435.594 661.885 434.453 653.561 434.453C645.237 434.453 638.489 435.594 638.489 437C638.489 438.406 645.237 439.546 653.561 439.546Z" fill="#0077CC"/>
<path d="M245.008 407.903C245.008 407.903 253.599 407.64 256.201 405.793C258.804 403.947 269.426 401.747 270.07 404.708C270.713 407.668 282.987 419.421 273.282 419.5C263.578 419.578 250.733 417.988 248.148 416.41C245.562 414.832 245.008 407.903 245.008 407.903Z" fill="#A8A8A8"/>
<path opacity="0.2" d="M273.444 418.47C263.74 418.548 250.896 416.959 248.31 415.38C246.34 414.183 245.557 409.879 245.293 407.892H245.008C245.008 407.892 245.568 414.826 248.137 416.399C250.705 417.972 263.566 419.567 273.271 419.488C276.069 419.488 277.037 418.47 276.987 416.992C276.595 417.893 275.526 418.453 273.444 418.47Z" fill="black"/>
</g>
<path d="M124.199 266V350H108.239L66.3592 299V350H47.1592V266H63.2392L104.999 317V266H124.199ZM173.473 350.96C166.673 350.96 160.553 349.56 155.113 346.76C149.753 343.88 145.553 339.92 142.513 334.88C139.473 329.84 137.953 324.12 137.953 317.72C137.953 311.32 139.473 305.6 142.513 300.56C145.553 295.52 149.753 291.6 155.113 288.8C160.553 285.92 166.673 284.48 173.473 284.48C180.273 284.48 186.353 285.92 191.713 288.8C197.073 291.6 201.273 295.52 204.313 300.56C207.353 305.6 208.873 311.32 208.873 317.72C208.873 324.12 207.353 329.84 204.313 334.88C201.273 339.92 197.073 343.88 191.713 346.76C186.353 349.56 180.273 350.96 173.473 350.96ZM173.473 335.6C178.273 335.6 182.193 334 185.233 330.8C188.353 327.52 189.913 323.16 189.913 317.72C189.913 312.28 188.353 307.96 185.233 304.76C182.193 301.48 178.273 299.84 173.473 299.84C168.673 299.84 164.713 301.48 161.593 304.76C158.473 307.96 156.913 312.28 156.913 317.72C156.913 323.16 158.473 327.52 161.593 330.8C164.713 334 168.673 335.6 173.473 335.6ZM255.37 285.44H274.09V350H255.37V285.44ZM264.73 276.44C261.29 276.44 258.49 275.44 256.33 273.44C254.17 271.44 253.09 268.96 253.09 266C253.09 263.04 254.17 260.56 256.33 258.56C258.49 256.56 261.29 255.56 264.73 255.56C268.17 255.56 270.97 256.52 273.13 258.44C275.29 260.36 276.37 262.76 276.37 265.64C276.37 268.76 275.29 271.36 273.13 273.44C270.97 275.44 268.17 276.44 264.73 276.44ZM333.104 346.88C331.264 348.24 328.984 349.28 326.264 350C323.624 350.64 320.824 350.96 317.864 350.96C310.184 350.96 304.224 349 299.984 345.08C295.824 341.16 293.744 335.4 293.744 327.8V301.28H283.784V286.88H293.744V271.16H312.464V286.88H328.544V301.28H312.464V327.56C312.464 330.28 313.144 332.4 314.504 333.92C315.944 335.36 317.944 336.08 320.504 336.08C323.464 336.08 325.984 335.28 328.064 333.68L333.104 346.88ZM404.86 317.96C404.86 318.2 404.74 319.88 404.5 323H355.66C356.54 327 358.62 330.16 361.9 332.48C365.18 334.8 369.26 335.96 374.14 335.96C377.5 335.96 380.46 335.48 383.02 334.52C385.66 333.48 388.1 331.88 390.34 329.72L400.3 340.52C394.22 347.48 385.34 350.96 373.66 350.96C366.38 350.96 359.94 349.56 354.34 346.76C348.74 343.88 344.42 339.92 341.38 334.88C338.34 329.84 336.82 324.12 336.82 317.72C336.82 311.4 338.3 305.72 341.26 300.68C344.3 295.56 348.42 291.6 353.62 288.8C358.9 285.92 364.78 284.48 371.26 284.48C377.58 284.48 383.3 285.84 388.42 288.56C393.54 291.28 397.54 295.2 400.42 300.32C403.38 305.36 404.86 311.24 404.86 317.96ZM371.38 298.64C367.14 298.64 363.58 299.84 360.7 302.24C357.82 304.64 356.06 307.92 355.42 312.08H387.22C386.58 308 384.82 304.76 381.94 302.36C379.06 299.88 375.54 298.64 371.38 298.64ZM500.004 284.48C508.084 284.48 514.484 286.88 519.204 291.68C524.004 296.4 526.404 303.52 526.404 313.04V350H507.684V315.92C507.684 310.8 506.604 307 504.444 304.52C502.364 301.96 499.364 300.68 495.444 300.68C491.044 300.68 487.564 302.12 485.004 305C482.444 307.8 481.164 312 481.164 317.6V350H462.444V315.92C462.444 305.76 458.364 300.68 450.204 300.68C445.884 300.68 442.444 302.12 439.884 305C437.324 307.8 436.044 312 436.044 317.6V350H417.324V285.44H435.204V292.88C437.604 290.16 440.524 288.08 443.964 286.64C447.484 285.2 451.324 284.48 455.484 284.48C460.044 284.48 464.164 285.4 467.844 287.24C471.524 289 474.484 291.6 476.724 295.04C479.364 291.68 482.684 289.08 486.684 287.24C490.764 285.4 495.204 284.48 500.004 284.48ZM564.903 350.96C559.543 350.96 554.303 350.32 549.183 349.04C544.063 347.68 539.983 346 536.943 344L543.183 330.56C546.063 332.4 549.543 333.92 553.623 335.12C557.703 336.24 561.703 336.8 565.623 336.8C573.543 336.8 577.503 334.84 577.503 330.92C577.503 329.08 576.423 327.76 574.263 326.96C572.103 326.16 568.783 325.48 564.303 324.92C559.023 324.12 554.663 323.2 551.223 322.16C547.783 321.12 544.783 319.28 542.223 316.64C539.743 314 538.503 310.24 538.503 305.36C538.503 301.28 539.663 297.68 541.983 294.56C544.383 291.36 547.823 288.88 552.303 287.12C556.863 285.36 562.223 284.48 568.383 284.48C572.943 284.48 577.463 285 581.943 286.04C586.503 287 590.263 288.36 593.223 290.12L586.983 303.44C581.303 300.24 575.103 298.64 568.383 298.64C564.383 298.64 561.383 299.2 559.383 300.32C557.383 301.44 556.383 302.88 556.383 304.64C556.383 306.64 557.463 308.04 559.623 308.84C561.783 309.64 565.223 310.4 569.943 311.12C575.223 312 579.543 312.96 582.903 314C586.263 314.96 589.183 316.76 591.663 319.4C594.143 322.04 595.383 325.72 595.383 330.44C595.383 334.44 594.183 338 591.783 341.12C589.383 344.24 585.863 346.68 581.223 348.44C576.663 350.12 571.223 350.96 564.903 350.96ZM680.157 284.48C688.157 284.48 694.597 286.88 699.477 291.68C704.437 296.48 706.917 303.6 706.917 313.04V350H688.197V315.92C688.197 310.8 687.077 307 684.837 304.52C682.597 301.96 679.357 300.68 675.117 300.68C670.397 300.68 666.637 302.16 663.837 305.12C661.037 308 659.637 312.32 659.637 318.08V350H640.917V260.96H659.637V292.16C662.117 289.68 665.117 287.8 668.637 286.52C672.157 285.16 675.997 284.48 680.157 284.48ZM749.926 284.48C759.926 284.48 767.606 286.88 772.966 291.68C778.326 296.4 781.006 303.56 781.006 313.16V350H763.486V341.96C759.966 347.96 753.406 350.96 743.806 350.96C738.846 350.96 734.526 350.12 730.846 348.44C727.246 346.76 724.486 344.44 722.566 341.48C720.646 338.52 719.686 335.16 719.686 331.4C719.686 325.4 721.926 320.68 726.406 317.24C730.966 313.8 737.966 312.08 747.406 312.08H762.286C762.286 308 761.046 304.88 758.566 302.72C756.086 300.48 752.366 299.36 747.406 299.36C743.966 299.36 740.566 299.92 737.206 301.04C733.926 302.08 731.126 303.52 728.806 305.36L722.086 292.28C725.606 289.8 729.806 287.88 734.686 286.52C739.646 285.16 744.726 284.48 749.926 284.48ZM748.486 338.36C751.686 338.36 754.526 337.64 757.006 336.2C759.486 334.68 761.246 332.48 762.286 329.6V323H749.446C741.766 323 737.926 325.52 737.926 330.56C737.926 332.96 738.846 334.88 740.686 336.32C742.606 337.68 745.206 338.36 748.486 338.36ZM860.857 285.44L833.617 350H814.297L787.177 285.44H806.497L824.377 329.36L842.857 285.44H860.857ZM929.978 317.96C929.978 318.2 929.858 319.88 929.618 323H880.778C881.658 327 883.738 330.16 887.018 332.48C890.298 334.8 894.378 335.96 899.258 335.96C902.618 335.96 905.578 335.48 908.138 334.52C910.778 333.48 913.218 331.88 915.458 329.72L925.418 340.52C919.338 347.48 910.458 350.96 898.778 350.96C891.498 350.96 885.058 349.56 879.458 346.76C873.858 343.88 869.538 339.92 866.498 334.88C863.458 329.84 861.938 324.12 861.938 317.72C861.938 311.4 863.418 305.72 866.378 300.68C869.418 295.56 873.538 291.6 878.738 288.8C884.018 285.92 889.898 284.48 896.378 284.48C902.698 284.48 908.418 285.84 913.538 288.56C918.658 291.28 922.658 295.2 925.538 300.32C928.498 305.36 929.978 311.24 929.978 317.96ZM896.498 298.64C892.258 298.64 888.698 299.84 885.818 302.24C882.938 304.64 881.178 307.92 880.538 312.08H912.338C911.698 308 909.938 304.76 907.058 302.36C904.178 299.88 900.658 298.64 896.498 298.64ZM156.831 430.48C162.831 430.48 168.271 431.88 173.151 434.68C178.111 437.4 181.991 441.28 184.791 446.32C187.591 451.28 188.991 457.08 188.991 463.72C188.991 470.36 187.591 476.2 184.791 481.24C181.991 486.2 178.111 490.08 173.151 492.88C168.271 495.6 162.831 496.96 156.831 496.96C147.951 496.96 141.191 494.16 136.551 488.56V496H118.671V406.96H137.391V438.28C142.111 433.08 148.591 430.48 156.831 430.48ZM153.591 481.6C158.391 481.6 162.311 480 165.351 476.8C168.471 473.52 170.031 469.16 170.031 463.72C170.031 458.28 168.471 453.96 165.351 450.76C162.311 447.48 158.391 445.84 153.591 445.84C148.791 445.84 144.831 447.48 141.711 450.76C138.671 453.96 137.151 458.28 137.151 463.72C137.151 469.16 138.671 473.52 141.711 476.8C144.831 480 148.791 481.6 153.591 481.6ZM264.763 463.96C264.763 464.2 264.643 465.88 264.403 469H215.563C216.443 473 218.523 476.16 221.803 478.48C225.083 480.8 229.163 481.96 234.043 481.96C237.403 481.96 240.363 481.48 242.923 480.52C245.563 479.48 248.003 477.88 250.243 475.72L260.203 486.52C254.123 493.48 245.243 496.96 233.563 496.96C226.283 496.96 219.843 495.56 214.243 492.76C208.643 489.88 204.323 485.92 201.283 480.88C198.243 475.84 196.723 470.12 196.723 463.72C196.723 457.4 198.203 451.72 201.163 446.68C204.203 441.56 208.323 437.6 213.523 434.8C218.803 431.92 224.683 430.48 231.163 430.48C237.483 430.48 243.203 431.84 248.323 434.56C253.443 437.28 257.443 441.2 260.323 446.32C263.283 451.36 264.763 457.24 264.763 463.96ZM231.283 444.64C227.043 444.64 223.483 445.84 220.603 448.24C217.723 450.64 215.963 453.92 215.323 458.08H247.123C246.483 454 244.723 450.76 241.843 448.36C238.963 445.88 235.443 444.64 231.283 444.64ZM340.466 463.96C340.466 464.2 340.346 465.88 340.106 469H291.266C292.146 473 294.226 476.16 297.506 478.48C300.786 480.8 304.866 481.96 309.746 481.96C313.106 481.96 316.066 481.48 318.626 480.52C321.266 479.48 323.706 477.88 325.946 475.72L335.906 486.52C329.826 493.48 320.946 496.96 309.266 496.96C301.986 496.96 295.546 495.56 289.946 492.76C284.346 489.88 280.026 485.92 276.986 480.88C273.946 475.84 272.426 470.12 272.426 463.72C272.426 457.4 273.906 451.72 276.866 446.68C279.906 441.56 284.026 437.6 289.226 434.8C294.506 431.92 300.386 430.48 306.866 430.48C313.186 430.48 318.906 431.84 324.026 434.56C329.146 437.28 333.146 441.2 336.026 446.32C338.986 451.36 340.466 457.24 340.466 463.96ZM306.986 444.64C302.746 444.64 299.186 445.84 296.306 448.24C293.426 450.64 291.666 453.92 291.026 458.08H322.826C322.186 454 320.426 450.76 317.546 448.36C314.666 445.88 311.146 444.64 306.986 444.64ZM392.169 430.48C400.169 430.48 406.609 432.88 411.489 437.68C416.449 442.48 418.929 449.6 418.929 459.04V496H400.209V461.92C400.209 456.8 399.089 453 396.849 450.52C394.609 447.96 391.369 446.68 387.129 446.68C382.409 446.68 378.649 448.16 375.849 451.12C373.049 454 371.649 458.32 371.649 464.08V496H352.929V431.44H370.809V439C373.289 436.28 376.369 434.2 380.049 432.76C383.729 431.24 387.769 430.48 392.169 430.48ZM495.922 430.48C505.922 430.48 513.602 432.88 518.962 437.68C524.322 442.4 527.002 449.56 527.002 459.16V496H509.482V487.96C505.962 493.96 499.402 496.96 489.802 496.96C484.842 496.96 480.522 496.12 476.842 494.44C473.242 492.76 470.482 490.44 468.562 487.48C466.642 484.52 465.682 481.16 465.682 477.4C465.682 471.4 467.922 466.68 472.402 463.24C476.962 459.8 483.962 458.08 493.402 458.08H508.282C508.282 454 507.042 450.88 504.562 448.72C502.082 446.48 498.362 445.36 493.402 445.36C489.962 445.36 486.562 445.92 483.202 447.04C479.922 448.08 477.122 449.52 474.802 451.36L468.082 438.28C471.602 435.8 475.802 433.88 480.682 432.52C485.642 431.16 490.722 430.48 495.922 430.48ZM494.482 484.36C497.682 484.36 500.522 483.64 503.002 482.2C505.482 480.68 507.242 478.48 508.282 475.6V469H495.442C487.762 469 483.922 471.52 483.922 476.56C483.922 478.96 484.842 480.88 486.682 482.32C488.602 483.68 491.202 484.36 494.482 484.36ZM610.408 406.96V496H592.528V488.56C587.888 494.16 581.168 496.96 572.368 496.96C566.288 496.96 560.768 495.6 555.808 492.88C550.928 490.16 547.088 486.28 544.288 481.24C541.488 476.2 540.088 470.36 540.088 463.72C540.088 457.08 541.488 451.24 544.288 446.2C547.088 441.16 550.928 437.28 555.808 434.56C560.768 431.84 566.288 430.48 572.368 430.48C580.608 430.48 587.048 433.08 591.688 438.28V406.96H610.408ZM575.608 481.6C580.328 481.6 584.248 480 587.368 476.8C590.488 473.52 592.048 469.16 592.048 463.72C592.048 458.28 590.488 453.96 587.368 450.76C584.248 447.48 580.328 445.84 575.608 445.84C570.808 445.84 566.848 447.48 563.728 450.76C560.608 453.96 559.048 458.28 559.048 463.72C559.048 469.16 560.608 473.52 563.728 476.8C566.848 480 570.808 481.6 575.608 481.6ZM693.494 406.96V496H675.614V488.56C670.974 494.16 664.254 496.96 655.454 496.96C649.374 496.96 643.854 495.6 638.894 492.88C634.014 490.16 630.174 486.28 627.374 481.24C624.574 476.2 623.174 470.36 623.174 463.72C623.174 457.08 624.574 451.24 627.374 446.2C630.174 441.16 634.014 437.28 638.894 434.56C643.854 431.84 649.374 430.48 655.454 430.48C663.694 430.48 670.134 433.08 674.774 438.28V406.96H693.494ZM658.694 481.6C663.414 481.6 667.334 480 670.454 476.8C673.574 473.52 675.134 469.16 675.134 463.72C675.134 458.28 673.574 453.96 670.454 450.76C667.334 447.48 663.414 445.84 658.694 445.84C653.894 445.84 649.934 447.48 646.814 450.76C643.694 453.96 642.134 458.28 642.134 463.72C642.134 469.16 643.694 473.52 646.814 476.8C649.934 480 653.894 481.6 658.694 481.6ZM774.06 463.96C774.06 464.2 773.94 465.88 773.7 469H724.86C725.74 473 727.82 476.16 731.1 478.48C734.38 480.8 738.46 481.96 743.34 481.96C746.7 481.96 749.66 481.48 752.22 480.52C754.86 479.48 757.3 477.88 759.54 475.72L769.5 486.52C763.42 493.48 754.54 496.96 742.86 496.96C735.58 496.96 729.14 495.56 723.54 492.76C717.94 489.88 713.62 485.92 710.58 480.88C707.54 475.84 706.02 470.12 706.02 463.72C706.02 457.4 707.5 451.72 710.46 446.68C713.5 441.56 717.62 437.6 722.82 434.8C728.1 431.92 733.98 430.48 740.46 430.48C746.78 430.48 752.5 431.84 757.62 434.56C762.74 437.28 766.74 441.2 769.62 446.32C772.58 451.36 774.06 457.24 774.06 463.96ZM740.58 444.64C736.34 444.64 732.78 445.84 729.9 448.24C727.02 450.64 725.26 453.92 724.62 458.08H756.42C755.78 454 754.02 450.76 751.14 448.36C748.26 445.88 744.74 444.64 740.58 444.64ZM852.283 406.96V496H834.403V488.56C829.763 494.16 823.043 496.96 814.243 496.96C808.163 496.96 802.643 495.6 797.683 492.88C792.803 490.16 788.963 486.28 786.163 481.24C783.363 476.2 781.963 470.36 781.963 463.72C781.963 457.08 783.363 451.24 786.163 446.2C788.963 441.16 792.803 437.28 797.683 434.56C802.643 431.84 808.163 430.48 814.243 430.48C822.483 430.48 828.923 433.08 833.563 438.28V406.96H852.283ZM817.483 481.6C822.203 481.6 826.123 480 829.243 476.8C832.363 473.52 833.923 469.16 833.923 463.72C833.923 458.28 832.363 453.96 829.243 450.76C826.123 447.48 822.203 445.84 817.483 445.84C812.683 445.84 808.723 447.48 805.603 450.76C802.483 453.96 800.923 458.28 800.923 463.72C800.923 469.16 802.483 473.52 805.603 476.8C808.723 480 812.683 481.6 817.483 481.6Z" fill="#333333"/>
<defs>
<linearGradient id="paint0_linear" x1="327.799" y1="242.568" x2="502.486" y2="242.568" gradientUnits="userSpaceOnUse">
<stop stop-color="#808080" stop-opacity="0.25"/>
<stop offset="0.54" stop-color="#808080" stop-opacity="0.12"/>
<stop offset="1" stop-color="#808080" stop-opacity="0.1"/>
</linearGradient>
<clipPath id="clip0">
<rect width="565" height="442.093" fill="white" transform="translate(203)"/>
</clipPath>
</defs>
</svg>
