<svg width="1309" height="748" viewBox="0 0 1309 748" fill="none" xmlns="http://www.w3.org/2000/svg">
<path opacity="0.1" d="M660.47 663.22C660.47 663.22 644.47 669.1 633.47 669.84C627.63 670.23 624.56 666.65 622.99 663.19C627.06 664.56 632.71 666 635.68 664.68C639.2 663.12 651.68 662.11 658.68 661.68C659.213 662.263 659.814 662.78 660.47 663.22V663.22Z" fill="black"/>
<path d="M676.25 355V474H653.64L594.31 401.75V474H567.11V355H589.89L649.05 427.25V355H676.25ZM792.125 428.61C792.125 428.95 791.955 431.33 791.615 435.75H722.425C723.672 441.417 726.618 445.893 731.265 449.18C735.912 452.467 741.692 454.11 748.605 454.11C753.365 454.11 757.558 453.43 761.185 452.07C764.925 450.597 768.382 448.33 771.555 445.27L785.665 460.57C777.052 470.43 764.472 475.36 747.925 475.36C737.612 475.36 728.488 473.377 720.555 469.41C712.622 465.33 706.502 459.72 702.195 452.58C697.888 445.44 695.735 437.337 695.735 428.27C695.735 419.317 697.832 411.27 702.025 404.13C706.332 396.877 712.168 391.267 719.535 387.3C727.015 383.22 735.345 381.18 744.525 381.18C753.478 381.18 761.582 383.107 768.835 386.96C776.088 390.813 781.755 396.367 785.835 403.62C790.028 410.76 792.125 419.09 792.125 428.61ZM744.695 401.24C738.688 401.24 733.645 402.94 729.565 406.34C725.485 409.74 722.992 414.387 722.085 420.28H767.135C766.228 414.5 763.735 409.91 759.655 406.51C755.575 402.997 750.588 401.24 744.695 401.24ZM899.371 428.61C899.371 428.95 899.201 431.33 898.861 435.75H829.671C830.918 441.417 833.864 445.893 838.511 449.18C843.158 452.467 848.938 454.11 855.851 454.11C860.611 454.11 864.804 453.43 868.431 452.07C872.171 450.597 875.628 448.33 878.801 445.27L892.911 460.57C884.298 470.43 871.718 475.36 855.171 475.36C844.858 475.36 835.734 473.377 827.801 469.41C819.868 465.33 813.748 459.72 809.441 452.58C805.134 445.44 802.981 437.337 802.981 428.27C802.981 419.317 805.078 411.27 809.271 404.13C813.578 396.877 819.414 391.267 826.781 387.3C834.261 383.22 842.591 381.18 851.771 381.18C860.724 381.18 868.828 383.107 876.081 386.96C883.334 390.813 889.001 396.367 893.081 403.62C897.274 410.76 899.371 419.09 899.371 428.61ZM851.941 401.24C845.934 401.24 840.891 402.94 836.811 406.34C832.731 409.74 830.238 414.387 829.331 420.28H874.381C873.474 414.5 870.981 409.91 866.901 406.51C862.821 402.997 857.834 401.24 851.941 401.24ZM1010.19 347.86V474H984.857V463.46C978.284 471.393 968.764 475.36 956.297 475.36C947.684 475.36 939.864 473.433 932.837 469.58C925.924 465.727 920.484 460.23 916.517 453.09C912.55 445.95 910.567 437.677 910.567 428.27C910.567 418.863 912.55 410.59 916.517 403.45C920.484 396.31 925.924 390.813 932.837 386.96C939.864 383.107 947.684 381.18 956.297 381.18C967.97 381.18 977.094 384.863 983.667 392.23V347.86H1010.19ZM960.887 453.6C967.574 453.6 973.127 451.333 977.547 446.8C981.967 442.153 984.177 435.977 984.177 428.27C984.177 420.563 981.967 414.443 977.547 409.91C973.127 405.263 967.574 402.94 960.887 402.94C954.087 402.94 948.477 405.263 944.057 409.91C939.637 414.443 937.427 420.563 937.427 428.27C937.427 435.977 939.637 442.153 944.057 446.8C948.477 451.333 954.087 453.6 960.887 453.6ZM1141.87 469.58C1139.26 471.507 1136.03 472.98 1132.18 474C1128.44 474.907 1124.47 475.36 1120.28 475.36C1109.4 475.36 1100.95 472.583 1094.95 467.03C1089.05 461.477 1086.11 453.317 1086.11 442.55V404.98H1072V384.58H1086.11V362.31H1112.63V384.58H1135.41V404.98H1112.63V442.21C1112.63 446.063 1113.59 449.067 1115.52 451.22C1117.56 453.26 1120.39 454.28 1124.02 454.28C1128.21 454.28 1131.78 453.147 1134.73 450.88L1141.87 469.58ZM1197.45 475.36C1187.82 475.36 1179.15 473.377 1171.44 469.41C1163.85 465.33 1157.9 459.72 1153.59 452.58C1149.28 445.44 1147.13 437.337 1147.13 428.27C1147.13 419.203 1149.28 411.1 1153.59 403.96C1157.9 396.82 1163.85 391.267 1171.44 387.3C1179.15 383.22 1187.82 381.18 1197.45 381.18C1207.08 381.18 1215.7 383.22 1223.29 387.3C1230.88 391.267 1236.83 396.82 1241.14 403.96C1245.45 411.1 1247.6 419.203 1247.6 428.27C1247.6 437.337 1245.45 445.44 1241.14 452.58C1236.83 459.72 1230.88 465.33 1223.29 469.41C1215.7 473.377 1207.08 475.36 1197.45 475.36ZM1197.45 453.6C1204.25 453.6 1209.8 451.333 1214.11 446.8C1218.53 442.153 1220.74 435.977 1220.74 428.27C1220.74 420.563 1218.53 414.443 1214.11 409.91C1209.8 405.263 1204.25 402.94 1197.45 402.94C1190.65 402.94 1185.04 405.263 1180.62 409.91C1176.2 414.443 1173.99 420.563 1173.99 428.27C1173.99 435.977 1176.2 442.153 1180.62 446.8C1185.04 451.333 1190.65 453.6 1197.45 453.6ZM567.11 562H594.65V658.56H654.32V681H567.11V562ZM710.694 682.36C701.06 682.36 692.39 680.377 684.684 676.41C677.09 672.33 671.14 666.72 666.834 659.58C662.527 652.44 660.374 644.337 660.374 635.27C660.374 626.203 662.527 618.1 666.834 610.96C671.14 603.82 677.09 598.267 684.684 594.3C692.39 590.22 701.06 588.18 710.694 588.18C720.327 588.18 728.94 590.22 736.534 594.3C744.127 598.267 750.077 603.82 754.384 610.96C758.69 618.1 760.844 626.203 760.844 635.27C760.844 644.337 758.69 652.44 754.384 659.58C750.077 666.72 744.127 672.33 736.534 676.41C728.94 680.377 720.327 682.36 710.694 682.36ZM710.694 660.6C717.494 660.6 723.047 658.333 727.354 653.8C731.774 649.153 733.984 642.977 733.984 635.27C733.984 627.563 731.774 621.443 727.354 616.91C723.047 612.263 717.494 609.94 710.694 609.94C703.894 609.94 698.284 612.263 693.864 616.91C689.444 621.443 687.234 627.563 687.234 635.27C687.234 642.977 689.444 649.153 693.864 653.8C698.284 658.333 703.894 660.6 710.694 660.6ZM872.92 589.54V665.7C872.92 682.473 868.557 694.94 859.83 703.1C851.103 711.26 838.353 715.34 821.58 715.34C812.74 715.34 804.353 714.263 796.42 712.11C788.487 709.957 781.913 706.84 776.7 702.76L787.24 683.72C791.093 686.893 795.967 689.387 801.86 691.2C807.753 693.127 813.647 694.09 819.54 694.09C828.72 694.09 835.463 691.993 839.77 687.8C844.19 683.72 846.4 677.487 846.4 669.1V665.19C839.487 672.783 829.853 676.58 817.5 676.58C809.113 676.58 801.407 674.767 794.38 671.14C787.467 667.4 781.97 662.187 777.89 655.5C773.81 648.813 771.77 641.107 771.77 632.38C771.77 623.653 773.81 615.947 777.89 609.26C781.97 602.573 787.467 597.417 794.38 593.79C801.407 590.05 809.113 588.18 817.5 588.18C830.76 588.18 840.847 592.543 847.76 601.27V589.54H872.92ZM822.77 654.82C829.797 654.82 835.52 652.78 839.94 648.7C844.473 644.507 846.74 639.067 846.74 632.38C846.74 625.693 844.473 620.31 839.94 616.23C835.52 612.037 829.797 609.94 822.77 609.94C815.743 609.94 809.963 612.037 805.43 616.23C800.897 620.31 798.63 625.693 798.63 632.38C798.63 639.067 800.897 644.507 805.43 648.7C809.963 652.78 815.743 654.82 822.77 654.82ZM897.603 589.54H924.123V681H897.603V589.54ZM910.863 576.79C905.99 576.79 902.023 575.373 898.963 572.54C895.903 569.707 894.373 566.193 894.373 562C894.373 557.807 895.903 554.293 898.963 551.46C902.023 548.627 905.99 547.21 910.863 547.21C915.737 547.21 919.703 548.57 922.763 551.29C925.823 554.01 927.353 557.41 927.353 561.49C927.353 565.91 925.823 569.593 922.763 572.54C919.703 575.373 915.737 576.79 910.863 576.79ZM1004.33 588.18C1015.66 588.18 1024.78 591.58 1031.7 598.38C1038.72 605.18 1042.24 615.267 1042.24 628.64V681H1015.72V632.72C1015.72 625.467 1014.13 620.083 1010.96 616.57C1007.78 612.943 1003.19 611.13 997.186 611.13C990.499 611.13 985.173 613.227 981.206 617.42C977.239 621.5 975.256 627.62 975.256 635.78V681H948.736V589.54H974.066V600.25C977.579 596.397 981.943 593.45 987.156 591.41C992.369 589.257 998.093 588.18 1004.33 588.18Z" fill="#3F3D56"/>
<g clip-path="url(#clip0)">
<path d="M338.499 346.837H196.14V506.02H338.499V346.837Z" fill="#CCCCCC"/>
<path d="M123.667 745.442H51.1937L43.4287 683.322H131.432L123.667 745.442Z" fill="#E6E6E6"/>
<path d="M269.197 700.447L266.751 733.881C266.64 735.395 266.854 736.914 267.379 738.338C267.904 739.762 268.727 741.057 269.793 742.137C270.86 743.217 272.144 744.056 273.562 744.598C274.979 745.141 276.495 745.374 278.01 745.282L295.184 744.242C295.979 744.194 296.755 743.971 297.455 743.589C298.154 743.207 298.762 742.676 299.233 742.033C299.704 741.39 300.028 740.651 300.182 739.869C300.335 739.087 300.315 738.28 300.121 737.507L290.589 699.377L269.197 700.447Z" fill="#E6E6E6"/>
<path d="M412.843 720.218C433.055 724.946 447.494 731.666 456.978 740.762C460.356 743.976 464.776 745.871 469.433 746.101C475.382 746.414 480.246 745.747 483.901 744.114H483.902C484.838 743.701 485.647 743.045 486.244 742.215C486.841 741.384 487.205 740.408 487.298 739.389C487.409 738.354 487.241 737.308 486.811 736.36C486.382 735.412 485.706 734.596 484.854 733.997L436.919 699.889L416.558 708.035L411.808 712.785C411.294 713.299 410.906 713.926 410.675 714.615C410.443 715.305 410.375 716.039 410.476 716.759C410.576 717.479 410.842 718.167 411.253 718.767C411.664 719.367 412.208 719.864 412.843 720.218H412.843Z" fill="#E6E6E6"/>
<path d="M350.642 174.318L213.625 173.049C213.969 153.092 218.612 133.495 228.762 115.958C235.428 104.441 235.284 91.9063 233.678 81.3463C231.198 65.0501 236.963 48.3767 249.773 38.003C259.563 30.0615 271.918 25.9736 284.512 26.5091L287.173 26.6199C295.839 26.9801 304.276 29.5116 311.709 33.9821C319.142 38.4527 325.333 44.7189 329.713 52.2054C334.165 60.1976 335.96 69.3984 334.839 78.478C333.971 87.0212 336.049 95.6514 340.91 104.364C349.296 123.495 351.112 147.976 350.642 174.318Z" fill="#2F2E41"/>
<path d="M442.315 701.668L415.424 708.683L284.475 423.402L292.659 701.668H265.768C237.033 570.752 185.153 419.66 208.478 371.958L347.611 363.774L442.315 701.668Z" fill="#7951B3"/>
<path d="M283.305 126.429C303.323 126.429 319.55 110.202 319.55 90.1842C319.55 70.1668 303.323 53.9395 283.305 53.9395C263.288 53.9395 247.061 70.1668 247.061 90.1842C247.061 110.202 263.288 126.429 283.305 126.429Z" fill="#FFB9B9"/>
<path d="M314.874 156.828L255.245 153.32C261.089 139.908 263.423 126.992 261.091 114.737H305.52C305.419 124.147 310.102 140.423 314.874 156.828Z" fill="#FFB9B9"/>
<path d="M352.287 374.296L221.339 383.65L234.784 151.567L257.584 145.136L283.305 150.982L309.027 138.12L325.396 143.967L352.287 374.296Z" fill="#7951B3"/>
<path d="M243.553 541.49L154.11 521.029C180.706 432.834 228.62 231.069 213.154 159.166L259.922 138.121L243.553 541.49Z" fill="#E6E6E6"/>
<path d="M200.293 286.607L166.387 265.562L195.303 180.872C198.528 172.133 204.705 164.796 212.767 160.129L222.508 154.49L216.662 239.84L200.293 286.607Z" fill="#E6E6E6"/>
<path d="M430.039 522.198C401.808 538.531 331.243 547.635 300.259 536.229C297.979 456.543 293.508 231.142 307.859 135.782L359.303 156.828L354.626 219.964C330.032 273.973 401.449 462.088 430.039 522.198Z" fill="#E6E6E6"/>
<path d="M425.946 276.085L394.377 265.562L352.287 217.625L359.303 156.827L429.453 255.039L425.946 276.085Z" fill="#E6E6E6"/>
<path d="M327.012 321.593C327.529 323.86 328.923 325.829 330.889 327.07C332.856 328.31 335.234 328.72 337.502 328.209L364.299 322.141L360.426 305.036L333.628 311.104C331.36 311.618 329.389 313.012 328.148 314.979C326.908 316.946 326.499 319.325 327.012 321.593V321.593Z" fill="#FFB9B9"/>
<path d="M314.873 80.8307C294.742 72.5526 274.859 71.9535 255.245 79.6615L247.061 50.4319H321.888L314.873 80.8307Z" fill="#2F2E41"/>
<path d="M351.118 301.807L366.318 329.867C391.883 322.737 414.039 300.258 435.3 273.746L429.454 255.04L393.209 264.393L351.118 301.807Z" fill="#E6E6E6"/>
<path d="M340.011 243.932H335.334C335.334 177.786 321.715 131.69 308.443 131.69L307.274 127.014C319.176 127.014 326.765 146.198 331.034 162.293C336.823 184.112 340.011 213.105 340.011 243.932Z" fill="#3F3D56"/>
<path d="M232.446 227.564H227.769C227.769 166.985 241.482 129.352 261.675 129.352L260.506 134.029C246.539 134.029 232.446 162.951 232.446 227.564Z" fill="#3F3D56"/>
<path d="M337.673 256.793C344.13 256.793 349.365 251.558 349.365 245.101C349.365 238.644 344.13 233.409 337.673 233.409C331.216 233.409 325.981 238.644 325.981 245.101C325.981 251.558 331.216 256.793 337.673 256.793Z" fill="#3F3D56"/>
<path d="M213.739 255.624H209.062C209.062 238.862 218.503 225.225 230.107 225.225V229.902C221.082 229.902 213.739 241.441 213.739 255.624Z" fill="#3F3D56"/>
<path d="M251.153 255.624H246.476C246.476 241.441 239.133 229.902 230.107 229.902V225.225C241.712 225.225 251.153 238.862 251.153 255.624Z" fill="#3F3D56"/>
<path d="M248.814 261.47C251.397 261.47 253.491 259.376 253.491 256.793C253.491 254.21 251.397 252.116 248.814 252.116C246.232 252.116 244.138 254.21 244.138 256.793C244.138 259.376 246.232 261.47 248.814 261.47Z" fill="#3F3D56"/>
<path d="M211.401 261.47C213.984 261.47 216.078 259.376 216.078 256.793C216.078 254.21 213.984 252.116 211.401 252.116C208.818 252.116 206.724 254.21 206.724 256.793C206.724 259.376 208.818 261.47 211.401 261.47Z" fill="#3F3D56"/>
<path d="M152.941 213.788L182.121 218.998L248.814 313.83L213.383 305.493L152.941 213.788Z" fill="#7951B3"/>
<path d="M147.766 212.627C147.321 212.633 146.886 212.759 146.507 212.992C146.128 213.224 145.818 213.554 145.61 213.947C145.402 214.34 145.303 214.781 145.324 215.226C145.345 215.67 145.485 216.1 145.729 216.472L208.071 311.06C208.419 311.589 208.957 311.964 209.573 312.109L238.579 318.933C239.068 319.048 239.58 319.012 240.048 318.829C240.516 318.646 240.917 318.325 241.199 317.909C241.48 317.493 241.628 317.001 241.624 316.499C241.619 315.996 241.462 315.507 241.173 315.096L172.725 217.772C172.54 217.507 172.303 217.281 172.03 217.107C171.757 216.933 171.453 216.815 171.134 216.759L148.233 212.669C148.079 212.641 147.923 212.627 147.766 212.627V212.627Z" fill="#3F3D56"/>
<path d="M186.655 280.256L188.387 297.708L215.729 294.994C218.043 294.765 220.171 293.625 221.645 291.826C223.119 290.027 223.818 287.717 223.589 285.402C223.359 283.088 222.219 280.96 220.42 279.486C218.622 278.012 216.311 277.312 213.996 277.542L186.655 280.256Z" fill="#FFB9B9"/>
<path d="M162.88 278.235C162.92 284.186 165.31 289.88 169.529 294.076C173.749 298.272 179.456 300.631 185.407 300.638H189.902L193.175 273.362L166.076 263.606L162.88 278.235Z" fill="#E6E6E6"/>
<path d="M1105.94 0H572.744V280.835H1105.94V0Z" fill="#E6E6E6"/>
<path d="M588.273 265.305H1090.41V15.53H588.273V265.305Z" fill="white"/>
<path d="M805.694 51.7668H627.099V230.362H805.694V51.7668Z" fill="#3F3D56"/>
<path d="M762.986 133.299C765.845 133.299 768.163 130.982 768.163 128.123C768.163 125.264 765.845 122.946 762.986 122.946C760.127 122.946 757.81 125.264 757.81 128.123C757.81 130.982 760.127 133.299 762.986 133.299Z" fill="#7951B3"/>
<path d="M743.574 115.181C746.433 115.181 748.751 112.864 748.751 110.005C748.751 107.146 746.433 104.828 743.574 104.828C740.715 104.828 738.397 107.146 738.397 110.005C738.397 112.864 740.715 115.181 743.574 115.181Z" fill="#7951B3"/>
<path d="M740.986 128.123C739.081 128.123 737.214 128.652 735.592 129.651C734.163 127.503 732.484 125.533 730.59 123.781C730.612 123.505 730.632 123.228 730.632 122.946C730.634 120.915 730.037 118.928 728.917 117.233C727.797 115.539 726.203 114.212 724.333 113.417C722.463 112.623 720.401 112.396 718.404 112.766C716.406 113.135 714.562 114.085 713.101 115.496C710.328 115.102 707.516 115.078 704.737 115.423C704.739 115.342 704.749 115.263 704.749 115.181C704.751 113.448 704.318 111.743 703.49 110.22C702.662 108.698 701.465 107.408 700.009 106.469C698.553 105.529 696.884 104.97 695.156 104.843C693.427 104.716 691.695 105.024 690.117 105.741C688.539 106.457 687.166 107.558 686.124 108.942C685.081 110.327 684.403 111.951 684.152 113.666C683.9 115.38 684.083 117.13 684.684 118.756C685.284 120.382 686.283 121.83 687.589 122.97C685.856 124.454 684.284 126.117 682.899 127.931C681.621 126.868 680.105 126.128 678.481 125.774C676.857 125.42 675.171 125.462 673.566 125.897C671.962 126.333 670.486 127.148 669.263 128.274C668.04 129.401 667.106 130.805 666.541 132.368C665.976 133.932 665.795 135.608 666.015 137.256C666.234 138.904 666.848 140.475 667.803 141.836C668.758 143.197 670.026 144.308 671.502 145.074C672.977 145.841 674.615 146.241 676.277 146.241L676.31 146.24C676.293 146.67 676.277 147.101 676.277 147.536C676.278 150.14 676.592 152.736 677.214 155.266C674.137 156.423 671.404 158.344 669.273 160.847C667.142 163.35 665.681 166.354 665.029 169.576C664.377 172.798 664.554 176.134 665.543 179.269C666.533 182.404 668.303 185.236 670.687 187.5C673.072 189.763 675.992 191.384 679.174 192.21C682.356 193.035 685.696 193.039 688.88 192.22C692.064 191.401 694.988 189.787 697.377 187.529C699.766 185.27 701.543 182.442 702.539 179.309C709.741 180.693 717.199 179.587 723.689 176.171C724.352 177.732 725.387 179.105 726.705 180.172C728.022 181.238 729.581 181.965 731.245 182.288C732.909 182.611 734.627 182.521 736.247 182.026C737.868 181.53 739.343 180.644 740.541 179.445C741.74 178.247 742.626 176.772 743.121 175.152C743.617 173.531 743.707 171.813 743.384 170.149C743.061 168.485 742.334 166.926 741.268 165.609C740.201 164.291 738.828 163.256 737.267 162.593C739.51 158.338 740.769 153.634 740.953 148.828L740.986 148.83C743.732 148.83 746.365 147.739 748.307 145.797C750.248 143.856 751.339 141.222 751.339 138.476C751.339 135.73 750.248 133.097 748.307 131.155C746.365 129.214 743.732 128.123 740.986 128.123V128.123Z" fill="#7951B3"/>
<path d="M738.397 47.8843H686.63V55.6493H738.397V47.8843Z" fill="#E6E6E6"/>
<path d="M1033.47 51.7668H854.873V230.362H1033.47V51.7668Z" fill="#3F3D56"/>
<path d="M978.078 172.901C979.364 172.901 980.407 171.858 980.407 170.572C980.407 169.285 979.364 168.242 978.078 168.242C976.791 168.242 975.748 169.285 975.748 170.572C975.748 171.858 976.791 172.901 978.078 172.901Z" fill="#7951B3"/>
<path d="M969.342 164.748C970.628 164.748 971.671 163.705 971.671 162.418C971.671 161.132 970.628 160.089 969.342 160.089C968.055 160.089 967.012 161.132 967.012 162.418C967.012 163.705 968.055 164.748 969.342 164.748Z" fill="#7951B3"/>
<path d="M968.177 170.572C967.32 170.572 966.48 170.81 965.75 171.259C965.107 170.293 964.351 169.406 963.499 168.618C963.509 168.494 963.518 168.369 963.518 168.242C963.519 167.328 963.25 166.434 962.746 165.671C962.242 164.909 961.524 164.311 960.683 163.954C959.842 163.596 958.914 163.494 958.015 163.661C957.116 163.827 956.286 164.254 955.629 164.889C954.381 164.712 953.115 164.701 951.865 164.857C951.866 164.82 951.87 164.785 951.87 164.748C951.871 163.968 951.677 163.2 951.304 162.515C950.931 161.83 950.393 161.25 949.737 160.827C949.082 160.404 948.331 160.153 947.553 160.096C946.776 160.038 945.996 160.177 945.286 160.5C944.576 160.822 943.958 161.317 943.489 161.94C943.02 162.563 942.715 163.294 942.602 164.066C942.489 164.837 942.571 165.625 942.841 166.356C943.111 167.088 943.561 167.74 944.148 168.253C943.369 168.921 942.661 169.669 942.038 170.485C941.463 170.007 940.781 169.674 940.05 169.514C939.319 169.355 938.56 169.374 937.838 169.57C937.116 169.766 936.452 170.133 935.902 170.64C935.351 171.147 934.931 171.778 934.677 172.482C934.422 173.186 934.341 173.94 934.44 174.682C934.539 175.423 934.815 176.13 935.245 176.742C935.674 177.355 936.245 177.855 936.909 178.2C937.573 178.545 938.31 178.725 939.058 178.725L939.073 178.724C939.065 178.918 939.058 179.112 939.058 179.307C939.058 180.479 939.2 181.647 939.48 182.786C938.095 183.307 936.865 184.171 935.906 185.297C934.947 186.424 934.29 187.776 933.996 189.226C933.703 190.676 933.782 192.176 934.228 193.587C934.673 194.998 935.47 196.272 936.543 197.291C937.616 198.31 938.93 199.039 940.362 199.411C941.794 199.782 943.297 199.784 944.73 199.415C946.162 199.047 947.478 198.32 948.553 197.304C949.628 196.288 950.428 195.015 950.876 193.605C954.117 194.228 957.473 193.73 960.393 192.193C960.692 192.895 961.158 193.514 961.75 193.993C962.343 194.473 963.045 194.8 963.794 194.946C964.542 195.091 965.315 195.051 966.045 194.828C966.774 194.605 967.438 194.206 967.977 193.667C968.516 193.127 968.915 192.464 969.138 191.734C969.361 191.005 969.402 190.232 969.256 189.483C969.111 188.735 968.784 188.033 968.304 187.44C967.824 186.847 967.206 186.381 966.504 186.083C967.513 184.168 968.079 182.052 968.162 179.889L968.177 179.89C969.413 179.89 970.598 179.399 971.471 178.525C972.345 177.651 972.836 176.466 972.836 175.231C972.836 173.995 972.345 172.81 971.471 171.936C970.598 171.062 969.413 170.572 968.177 170.572V170.572Z" fill="#7951B3"/>
<path d="M996.354 128.694C997.64 128.694 998.683 127.651 998.683 126.365C998.683 125.078 997.64 124.035 996.354 124.035C995.067 124.035 994.024 125.078 994.024 126.365C994.024 127.651 995.067 128.694 996.354 128.694Z" fill="#7951B3"/>
<path d="M1001.83 118.076C1003.12 118.076 1004.16 117.033 1004.16 115.746C1004.16 114.46 1003.12 113.417 1001.83 113.417C1000.55 113.417 999.504 114.46 999.504 115.746C999.504 117.033 1000.55 118.076 1001.83 118.076Z" fill="#7951B3"/>
<path d="M993.67 116.835C993.437 116.01 992.98 115.266 992.35 114.685C993.106 113.805 993.755 112.837 994.282 111.803C994.405 111.779 994.527 111.754 994.649 111.719C995.529 111.472 996.317 110.971 996.914 110.279C997.512 109.587 997.892 108.735 998.008 107.828C998.124 106.921 997.971 106.001 997.567 105.181C997.163 104.36 996.527 103.677 995.738 103.216C995.57 101.968 995.237 100.746 994.749 99.5848C994.784 99.5757 994.82 99.5705 994.855 99.5606C995.606 99.3501 996.292 98.9546 996.85 98.4101C997.409 97.8657 997.822 97.1898 998.051 96.4445C998.28 95.6991 998.319 94.9082 998.163 94.144C998.007 93.3799 997.662 92.6671 997.16 92.0709C996.657 91.4748 996.012 91.0144 995.286 90.7319C994.559 90.4494 993.773 90.3538 992.999 90.454C992.226 90.5542 991.49 90.847 990.859 91.3054C990.228 91.7638 989.723 92.3732 989.388 93.0778C988.534 92.5082 987.622 92.03 986.667 91.6513C986.972 90.968 987.108 90.2214 987.063 89.4746C987.018 88.7278 986.794 88.0028 986.41 87.3609C986.025 86.719 985.492 86.179 984.855 85.7868C984.218 85.3945 983.496 85.1614 982.75 85.1072C982.004 85.053 981.255 85.1794 980.568 85.4755C979.881 85.7717 979.276 86.2289 978.803 86.8086C978.33 87.3883 978.003 88.0733 977.851 88.8058C977.699 89.5383 977.725 90.2967 977.928 91.0168L977.933 91.0308C977.745 91.076 977.556 91.1217 977.368 91.1747C976.239 91.4926 975.154 91.9454 974.134 92.5232C973.257 91.3317 972.092 90.3824 970.747 89.7646C969.403 89.1467 967.924 88.8806 966.449 88.991C964.973 89.1015 963.55 89.585 962.313 90.3961C961.076 91.2073 960.065 92.3195 959.375 93.6283C958.686 94.9372 958.34 96.3998 958.371 97.8789C958.401 99.358 958.807 100.805 959.55 102.084C960.293 103.364 961.349 104.433 962.619 105.193C963.888 105.952 965.33 106.376 966.809 106.426C967.088 109.714 968.477 112.81 970.748 115.204C970.153 115.682 969.684 116.298 969.383 116.998C969.081 117.699 968.957 118.463 969.02 119.223C969.083 119.983 969.331 120.716 969.744 121.358C970.156 122 970.72 122.53 971.385 122.903C972.05 123.276 972.797 123.48 973.56 123.497C974.322 123.514 975.077 123.343 975.759 123C976.44 122.658 977.027 122.153 977.467 121.53C977.908 120.907 978.189 120.186 978.285 119.429C980.402 119.881 982.593 119.853 984.697 119.347L984.701 119.361C984.866 119.95 985.146 120.501 985.525 120.982C985.903 121.463 986.373 121.865 986.907 122.165C987.44 122.464 988.028 122.656 988.636 122.728C989.244 122.8 989.86 122.752 990.449 122.586C991.038 122.42 991.589 122.14 992.07 121.761C992.551 121.382 992.952 120.912 993.251 120.378C993.55 119.844 993.741 119.256 993.813 118.648C993.885 118.04 993.836 117.424 993.67 116.835V116.835Z" fill="#7951B3"/>
<path d="M906.128 97.0389C907.415 97.0389 908.458 95.9959 908.458 94.7094C908.458 93.4228 907.415 92.3799 906.128 92.3799C904.842 92.3799 903.799 93.4228 903.799 94.7094C903.799 95.9959 904.842 97.0389 906.128 97.0389Z" fill="#7951B3"/>
<path d="M894.217 97.993C895.504 97.993 896.547 96.95 896.547 95.6635C896.547 94.3769 895.504 93.334 894.217 93.334C892.931 93.334 891.888 94.3769 891.888 95.6635C891.888 96.95 892.931 97.993 894.217 97.993Z" fill="#7951B3"/>
<path d="M899.453 102.021C898.876 102.654 898.485 103.435 898.325 104.277C897.178 104.1 896.013 104.06 894.856 104.158C894.771 104.067 894.685 103.977 894.592 103.891C893.917 103.274 893.076 102.87 892.173 102.728C891.27 102.586 890.345 102.713 889.514 103.093C888.682 103.474 887.981 104.09 887.498 104.866C887.015 105.642 886.771 106.543 886.797 107.457C885.825 108.259 884.963 109.186 884.235 110.214C884.208 110.189 884.185 110.162 884.158 110.137C883.583 109.611 882.885 109.237 882.127 109.05C881.37 108.864 880.578 108.87 879.824 109.069C879.07 109.268 878.378 109.653 877.812 110.189C877.245 110.724 876.822 111.394 876.581 112.136C876.34 112.877 876.29 113.668 876.434 114.434C876.578 115.2 876.912 115.919 877.405 116.522C877.899 117.126 878.536 117.596 879.258 117.89C879.981 118.184 880.765 118.291 881.54 118.203C881.508 119.229 881.583 120.256 881.766 121.267C881.025 121.369 880.319 121.648 879.709 122.081C879.098 122.513 878.601 123.086 878.258 123.751C877.916 124.417 877.739 125.155 877.743 125.903C877.746 126.651 877.929 127.387 878.277 128.05C878.626 128.712 879.128 129.28 879.742 129.707C880.357 130.135 881.065 130.407 881.807 130.503C882.549 130.598 883.303 130.514 884.005 130.256C884.708 129.999 885.338 129.576 885.842 129.023L885.851 129.012C885.989 129.148 886.128 129.284 886.272 129.416C887.138 130.206 888.096 130.889 889.125 131.45C888.576 132.824 888.386 134.314 888.571 135.782C888.756 137.25 889.311 138.647 890.184 139.841C891.057 141.036 892.219 141.989 893.561 142.611C894.904 143.233 896.382 143.504 897.858 143.399C899.333 143.293 900.758 142.814 901.998 142.007C903.238 141.2 904.252 140.091 904.946 138.785C905.64 137.478 905.991 136.017 905.965 134.537C905.939 133.058 905.538 131.61 904.8 130.328C907.445 128.355 909.34 125.54 910.174 122.347C910.893 122.6 911.664 122.673 912.418 122.559C913.172 122.445 913.887 122.147 914.499 121.692C915.111 121.237 915.602 120.639 915.929 119.95C916.257 119.261 916.409 118.502 916.375 117.74C916.34 116.978 916.119 116.236 915.731 115.58C915.342 114.923 914.799 114.372 914.148 113.975C913.497 113.577 912.758 113.346 911.997 113.301C911.235 113.255 910.474 113.398 909.781 113.715C909.047 111.679 907.866 109.833 906.325 108.314L906.335 108.303C906.749 107.852 907.069 107.323 907.278 106.747C907.487 106.172 907.58 105.561 907.553 104.949C907.526 104.337 907.378 103.737 907.118 103.182C906.859 102.627 906.492 102.129 906.04 101.717C905.588 101.304 905.058 100.984 904.483 100.776C903.907 100.568 903.295 100.475 902.684 100.503C902.072 100.532 901.472 100.68 900.917 100.941C900.363 101.201 899.866 101.568 899.453 102.021V102.021Z" fill="#7951B3"/>
<path d="M966.171 47.8843H914.404V55.6493H966.171V47.8843Z" fill="#E6E6E6"/>
<path d="M32.5825 660.341C51.244 685.333 89.9816 687.963 89.9816 687.963C89.9816 687.963 98.4629 650.074 79.8015 625.082C61.14 600.091 22.4024 597.46 22.4024 597.46C22.4024 597.46 13.9211 635.349 32.5825 660.341Z" fill="#E6E6E6"/>
<path d="M127.648 669.736C115.334 686.228 89.7723 687.963 89.7723 687.963C89.7723 687.963 84.1757 662.961 96.4899 646.47C108.804 629.979 134.366 628.243 134.366 628.243C134.366 628.243 139.962 653.245 127.648 669.736Z" fill="#E6E6E6"/>
<path d="M672.395 744.997H0V747.897H672.395V744.997Z" fill="#3F3D56"/>
</g>
<defs>
<clipPath id="clip0">
<rect width="1105.94" height="747.897" fill="white"/>
</clipPath>
</defs>
</svg>
