<svg width="1302" height="969" viewBox="0 0 1302 969" fill="none" xmlns="http://www.w3.org/2000/svg">
<g clip-path="url(#clip0)">
<path opacity="0.1" d="M432.38 782.3C486.195 782.3 529.82 775.293 529.82 766.65C529.82 758.007 486.195 751 432.38 751C378.565 751 334.94 758.007 334.94 766.65C334.94 775.293 378.565 782.3 432.38 782.3Z" fill="#0077CC"/>
<path opacity="0.1" d="M962.05 782.74C1029.2 782.74 1083.64 775.733 1083.64 767.09C1083.64 758.447 1029.2 751.44 962.05 751.44C894.898 751.44 840.46 758.447 840.46 767.09C840.46 775.733 894.898 782.74 962.05 782.74Z" fill="#0077CC"/>
<path opacity="0.1" d="M78.84 338.2H180.33V476.53H86.27C86.02 477.95 85.78 479.38 85.52 480.81H180.33V592.37C180.16 592.32 180.01 592.26 179.85 592.2C177.17 591.14 174.51 590.02 171.85 588.82L170.15 588.05C167.483 586.79 164.817 585.457 162.15 584.05C161.22 583.56 160.29 583.05 159.37 582.53C144.566 574.237 131.117 563.729 119.49 551.37C119.15 551.04 118.83 550.69 118.49 550.37C116.87 548.61 115.28 546.83 113.74 545.01L112.04 543.01C110.22 540.78 108.46 538.49 106.75 536.17C106.5 535.83 106.26 535.49 106 535.17C99.0455 525.527 93.271 515.086 88.8 504.07C88.66 503.74 88.54 503.38 88.41 503.07C87.0367 499.537 85.82 495.97 84.76 492.37C84.3 490.86 83.86 489.37 83.48 487.8C83.34 487.34 83.22 486.89 83.11 486.44C77.43 464.27 76.76 441.24 76.76 418.37C76.76 415.7 76.76 413.02 76.76 410.37C76.76 401.12 76.87 391.81 77.03 382.51C77.03 380.1 77.13 377.7 77.18 375.28C77.32 369.14 77.52 363 77.78 356.86C77.84 355.15 77.92 353.45 78.01 351.75C78.01 350.77 78.06 349.79 78.16 348.81C78.4 345.25 78.6 341.72 78.84 338.2Z" fill="#0077CC"/>
<path opacity="0.1" d="M180.33 184.18H124.66C133.709 170.016 143.597 156.405 154.27 143.42C162.54 133.26 171.27 123.36 180.33 113.82V184.18Z" fill="#0077CC"/>
<path opacity="0.1" d="M180.33 188.46V333.92H79.1599C79.1599 333.5 79.2299 333.07 79.2599 332.65C79.3499 331.5 79.4399 330.35 79.5399 329.21C79.6499 327.87 79.7699 326.52 79.8999 325.21C80.0299 323.9 80.1699 322.3 80.3199 320.85C80.4699 319.4 80.6099 317.93 80.7799 316.48C80.9499 315.03 81.0999 313.58 81.2799 312.14C81.4599 310.7 81.6199 309.24 81.8099 307.8C81.9599 306.6 82.1199 305.41 82.2799 304.21C82.5099 302.52 82.7499 300.82 83.0099 299.14C83.0099 298.89 83.0799 298.63 83.1199 298.39C84.9451 286.092 87.432 273.901 90.5699 261.87C93.8545 249.25 98.0488 236.884 103.12 224.87C108.51 212.302 114.82 200.149 122 188.51L180.33 188.46Z" fill="#0077CC"/>
<path opacity="0.1" d="M204.56 338.19V476.53H421.33V338.19H204.56ZM204.56 480.8V599.6C205.8 599.86 207.03 600.11 208.25 600.32C209.91 600.64 211.56 600.93 213.25 601.18C213.57 601.23 213.9 601.28 214.25 601.31C214.91 601.42 215.59 601.51 216.25 601.6C217.92 601.83 219.58 602.02 221.25 602.17C222.04 602.25 222.84 602.32 223.64 602.38L225.57 602.53C226.62 602.61 227.66 602.67 228.69 602.7C229.33 602.7 229.97 602.76 230.63 602.78C231.13 602.78 231.63 602.78 232.15 602.78C232.67 602.78 233.41 602.78 234.04 602.78C234.9 602.78 235.76 602.78 236.61 602.78H237.76C238.62 602.78 239.48 602.78 240.33 602.7H240.39C240.98 602.7 241.58 602.7 242.18 602.62C242.347 602.63 242.514 602.63 242.68 602.62C243.18 602.62 243.68 602.62 244.16 602.55H244.51L247.86 602.29C248.96 602.19 250.07 602.06 251.19 601.94L253.47 601.67C262.746 600.37 271.919 598.419 280.92 595.83C301.14 590.19 320.92 582.3 341.13 576.52C367.26 569.07 396.13 565.41 421.38 574.52V480.8H204.56ZM421.33 184.18V0.0100062C397.597 -0.247117 373.929 2.52869 350.9 8.27001C296.01 22.06 246.76 51.97 204.56 90.17V184.17H215.44V188.44H204.56V333.92H421.33V188.45H260.11V184.18H421.33ZM699.76 121.97C686.18 121.49 672.68 117.19 660.47 110.55C637.12 97.85 618.47 78.24 597.63 61.69C554.33 27.22 500.63 6.42001 445.54 1.26001V184.18H754.99L755.76 183.37L699.76 121.97ZM727.95 116.97L757.84 149.77V108.37C747.83 109.61 739.06 112.56 727.99 116.93L727.95 116.97ZM757.84 629.1V480.8H694.15C693.98 480.17 693.81 479.53 693.61 478.89C693.8 479.53 693.96 480.17 694.14 480.8H445.58V588.05C447.94 589.8 450.27 591.64 452.58 593.51C455.07 595.51 457.53 597.62 460 599.69L462.49 601.75C463.68 602.75 464.88 603.75 466.09 604.69C468.49 606.637 470.913 608.557 473.36 610.45C474.57 611.45 475.81 612.35 477.04 613.29C496.567 628.22 517.166 641.693 538.67 653.6C543.49 656.267 548.353 658.87 553.26 661.41C556.53 663.08 559.82 664.74 563.12 666.35C568.08 668.77 573.08 671.103 578.12 673.35C624.586 694.208 673.721 708.521 724.12 715.88C735.313 717.533 746.55 718.833 757.83 719.78V629.09H758.83L757.84 629.1ZM445.58 188.45V333.92H757.88V188.45H445.58ZM445.58 338.19V476.53H757.88V338.19H445.58ZM782.12 108.19V154.37L820.27 112.51C807.63 110.47 794.913 109.013 782.12 108.14V108.19ZM782.12 338.24V476.53H1085.87V338.19L782.12 338.24ZM1084.76 640.08L1085.83 480.8H782.12V721.37C801.685 722.192 821.28 721.958 840.82 720.67V720.67H841.16C850.493 720.083 859.783 719.23 869.03 718.11H869.24C918.571 712.369 966.807 699.498 1012.44 679.9L1084.76 640.08ZM1144.44 360.97C1143.3 358.28 1142.11 355.61 1140.9 352.97C1138.64 347.97 1136.25 343.11 1133.79 338.25H1110.09V476.53H1170.01C1169.98 437.37 1160.07 397.37 1144.47 360.92L1144.44 360.97ZM1110.09 480.85V617.85C1126.97 601.67 1141.23 583.16 1151.5 562C1163.85 536.52 1169.5 508.93 1169.96 480.83L1110.09 480.85ZM1110.09 297.93V333.93H1131.57C1125.07 321.537 1117.91 309.503 1110.12 297.88L1110.09 297.93ZM904.09 135.33C902.51 134.73 900.93 134.12 899.34 133.53C882.571 127.337 865.435 122.187 848.03 118.11L789.65 182.18L788.53 183.37L789.28 184.19H997.06C968.122 164.27 936.924 147.853 904.12 135.28L904.09 135.33ZM1003.15 188.5H786.38L782.12 192.4V333.92H819.46H819.52H1085.91V265.37C1061.81 236.226 1034 210.366 1003.18 188.45L1003.15 188.5Z" fill="#0077CC"/>
<path opacity="0.1" d="M180.33 261.83V333.92H79.1599C79.1599 333.5 79.2299 333.07 79.2599 332.65C79.3499 331.5 79.4399 330.35 79.5399 329.21C79.6499 327.87 79.7699 326.52 79.8999 325.21C80.0299 323.9 80.1699 322.3 80.3199 320.85C80.4699 319.4 80.6099 317.93 80.7799 316.48C80.9499 315.03 81.0999 313.58 81.2799 312.14C81.4599 310.7 81.6199 309.24 81.8099 307.8C81.9599 306.6 82.1199 305.41 82.2799 304.21C82.5099 302.52 82.7499 300.82 83.0099 299.14C83.0099 298.89 83.0799 298.63 83.1199 298.39C84.9451 286.092 87.432 273.901 90.5699 261.87L180.33 261.83Z" fill="#0077CC"/>
<path opacity="0.1" d="M78.84 338.2H180.33V476.53H86.27C86.02 477.95 85.78 479.38 85.52 480.81H180.33V592.37C180.16 592.32 180.01 592.26 179.85 592.2C177.17 591.14 174.51 590.02 171.85 588.82L170.15 588.05C167.483 586.79 164.817 585.457 162.15 584.05C161.22 583.56 160.29 583.05 159.37 582.53C144.566 574.237 131.117 563.729 119.49 551.37C119.15 551.04 118.83 550.69 118.49 550.37C116.87 548.61 115.28 546.83 113.74 545.01L112.04 543.01C110.22 540.78 108.46 538.49 106.75 536.17C106.5 535.83 106.26 535.49 106 535.17C99.0455 525.527 93.271 515.086 88.8 504.07C88.66 503.74 88.54 503.38 88.41 503.07C87.0367 499.537 85.82 495.97 84.76 492.37C84.3 490.86 83.86 489.37 83.48 487.8C83.34 487.34 83.22 486.89 83.11 486.44C77.43 464.27 76.76 441.24 76.76 418.37C76.76 415.7 76.76 413.02 76.76 410.37C76.76 401.12 76.87 391.81 77.03 382.51C77.03 380.1 77.13 377.7 77.18 375.28C77.32 369.14 77.52 363 77.78 356.86C77.84 355.15 77.92 353.45 78.01 351.75C78.01 350.77 78.06 349.79 78.16 348.81C78.4 345.25 78.6 341.72 78.84 338.2Z" fill="#0077CC"/>
<path opacity="0.1" d="M280.87 209.28V333.92H204.56V209.28H215.44V167.08H260.1V209.28H280.87Z" fill="#0077CC"/>
<path opacity="0.1" d="M280.87 338.19H204.57V476.52H280.87V338.19Z" fill="#0077CC"/>
<path opacity="0.1" d="M204.56 480.81H280.87V595.81C271.869 598.397 262.696 600.345 253.42 601.64L251.14 601.92C250.02 602.05 248.91 602.16 247.81 602.27C246.71 602.38 245.57 602.46 244.46 602.53H244.11C243.63 602.53 243.11 602.59 242.64 602.6H242.13C241.53 602.6 240.93 602.66 240.33 602.68C239.48 602.73 238.63 602.74 237.76 602.75C237.39 602.75 237.04 602.75 236.67 602.75C235.81 602.75 234.96 602.75 234.1 602.75H232.21C231.7 602.75 231.21 602.75 230.68 602.75L228.75 602.68C227.75 602.68 226.67 602.57 225.63 602.5L223.71 602.36L221.32 602.14C219.64 601.99 217.97 601.8 216.32 601.57L214.32 601.29L213.32 601.15C211.65 600.89 210 600.61 208.32 600.29C207.09 600.08 205.87 599.82 204.63 599.57L204.56 480.81Z" fill="#0077CC"/>
<path opacity="0.1" d="M757.88 194.56H694.96V333.91H757.88V194.56Z" fill="#0077CC"/>
<path opacity="0.1" d="M757.89 338.19V476.53H445.58V416.86H611.93V452.06H694.96V338.19H757.89Z" fill="#0077CC"/>
<path opacity="0.1" d="M758.88 629.13H757.88V719.88C746.613 718.927 735.38 717.63 724.18 715.99C673.756 708.608 624.601 694.264 578.12 673.37C564.7 667.33 551.553 660.737 538.68 653.59C517.176 641.677 496.575 628.204 477.04 613.28C472.133 609.52 467.29 605.673 462.51 601.74C459.2 599.01 455.91 596.21 452.58 593.49C450.27 591.62 447.94 589.78 445.58 588.02V480.81H694.13C693.96 480.17 693.79 479.53 693.61 478.9C693.8 479.53 693.98 480.17 694.15 480.81H757.88V629.07C758.22 629.08 758.55 629.11 758.88 629.13Z" fill="#0077CC"/>
<path opacity="0.1" d="M921.98 184.18H880.98V171.44H899.36V133.49C900.953 134.07 902.54 134.667 904.12 135.28V171.44H921.98V184.18Z" fill="#0077CC"/>
<path opacity="0.1" d="M1020.76 333.92H819.48C819.48 333.92 819.48 333.92 819.55 333.97L819.46 333.92H782.12V194.57H792.7V297.57H841.05V236.57H880.99V188.46H921.99V236.61H961.93V297.61H1020.76V333.92Z" fill="#0077CC"/>
<path opacity="0.1" d="M782.12 338.19V476.53H1020.76V338.19H782.12ZM1085.54 639.37L1085.87 529.87H1020.76V480.87H782.12V721.37C801.685 722.192 821.28 721.958 840.82 720.67V720.67H841.16C850.493 720.083 859.783 719.23 869.03 718.11H869.24C918.571 712.369 966.807 699.498 1012.44 679.9" fill="#0077CC"/>
<path opacity="0.1" d="M1114.33 480.81H1170C1169.51 508.9 1163.87 536.49 1151.53 561.97C1141.26 583.14 1126.99 601.65 1110.13 617.82V529.82H1114.33V480.81Z" fill="#0077CC"/>
<path opacity="0.1" d="M1170.03 476.53H1114.33V360.92H1144.47C1160.07 397.37 1169.98 437.37 1170.03 476.53Z" fill="#0077CC"/>
<path opacity="0.1" d="M757.89 233.3H724.18V276.99H757.89V233.3Z" fill="#0077CC"/>
<path opacity="0.1" d="M757.89 323.86H724.18V333.92H757.89V323.86Z" fill="#0077CC"/>
<path opacity="0.1" d="M757.89 338.19H724.18V367.54H757.89V338.19Z" fill="#0077CC"/>
<path opacity="0.1" d="M757.89 414.42H724.18V458.11H757.89V414.42Z" fill="#0077CC"/>
<path opacity="0.1" d="M757.89 504.98H724.18V548.67H757.89V504.98Z" fill="#0077CC"/>
<path opacity="0.1" d="M757.88 629.07C758.22 629.07 758.55 629.07 758.88 629.13H757.88V639.28H724.18V595.54H757.88V629.07Z" fill="#0077CC"/>
<path opacity="0.1" d="M757.88 686.08V719.83C746.613 718.877 735.38 717.58 724.18 715.94V686.08H757.88Z" fill="#0077CC"/>
<path opacity="0.1" d="M590.05 473.32H445.58V476.53H590.05V473.32Z" fill="#0077CC"/>
<path opacity="0.1" d="M590.05 480.8H445.58V493.1H590.05V480.8Z" fill="#0077CC"/>
<path opacity="0.1" d="M590.05 533.42H445.58V553.2H590.05V533.42Z" fill="#0077CC"/>
<path opacity="0.1" d="M590.04 593.52V613.3H477.04C472.133 609.553 467.287 605.707 462.5 601.76C459.19 599.03 455.91 596.23 452.57 593.52H590.04Z" fill="#0077CC"/>
<path opacity="0.1" d="M590.04 653.61V673.37H578.11C564.703 667.323 551.56 660.727 538.68 653.58L590.04 653.61Z" fill="#0077CC"/>
<path opacity="0.1" d="M869.27 351.6H840.83V380.04H869.27V351.6Z" fill="#0077CC"/>
<path opacity="0.1" d="M253.49 219.09H225.05V247.53H253.49V219.09Z" fill="#0077CC"/>
<path opacity="0.1" d="M253.49 285.15H225.05V313.59H253.49V285.15Z" fill="#0077CC"/>
<path opacity="0.1" d="M253.49 351.21H225.05V379.65H253.49V351.21Z" fill="#0077CC"/>
<path opacity="0.1" d="M253.49 417.26H225.05V445.7H253.49V417.26Z" fill="#0077CC"/>
<path opacity="0.1" d="M253.49 483.32H225.05V511.76H253.49V483.32Z" fill="#0077CC"/>
<path opacity="0.1" d="M253.49 549.38H225.05V577.82H253.49V549.38Z" fill="#0077CC"/>
<path opacity="0.1" d="M977.84 351.6H949.4V380.04H977.84V351.6Z" fill="#0077CC"/>
<path opacity="0.1" d="M869.27 421.75H840.83V450.19H869.27V421.75Z" fill="#0077CC"/>
<path opacity="0.1" d="M977.84 421.75H949.4V450.19H977.84V421.75Z" fill="#0077CC"/>
<path opacity="0.1" d="M869.27 491.89H840.83V520.33H869.27V491.89Z" fill="#0077CC"/>
<path opacity="0.1" d="M977.84 491.89H949.4V520.33H977.84V491.89Z" fill="#0077CC"/>
<path opacity="0.1" d="M869.27 562.04H840.83V590.48H869.27V562.04Z" fill="#0077CC"/>
<path opacity="0.1" d="M977.84 562.04H949.4V590.48H977.84V562.04Z" fill="#0077CC"/>
<path opacity="0.1" d="M869.27 632.19H840.83V660.63H869.27V632.19Z" fill="#0077CC"/>
<path opacity="0.1" d="M977.84 632.19H949.4V660.63H977.84V632.19Z" fill="#0077CC"/>
<path opacity="0.1" d="M840.83 720.67V702.33H869.26V718.06L840.83 720.67Z" fill="#0077CC"/>
<path opacity="0.1" d="M83 298.37V314.64H180.33V298.37H83ZM92.7 313.62H84.76V299.37H92.76L92.7 313.62ZM102.39 313.62H94.39V299.37H102.39V313.62ZM112.06 313.62H104.06V299.37H112.06V313.62ZM121.75 313.62H113.76V299.37H121.76L121.75 313.62ZM131.43 313.62H123.43V299.37H131.43V313.62ZM141.12 313.62H133.12V299.37H141.12V313.62ZM150.81 313.62H142.81V299.37H150.81V313.62ZM160.49 313.62H152.49V299.37H160.49V313.62ZM170.17 313.62H162.17V299.37H170.17V313.62ZM179.85 313.62H171.85V299.37H179.85V313.62Z" fill="#0077CC"/>
<path opacity="0.1" d="M83 345.71V361.98H180.33V345.71H83ZM92.7 360.95H84.76V346.74H92.76L92.7 360.95ZM102.39 360.95H94.39V346.74H102.39V360.95ZM112.06 360.95H104.06V346.74H112.06V360.95ZM121.75 360.95H113.76V346.74H121.76L121.75 360.95ZM131.43 360.95H123.43V346.74H131.43V360.95ZM141.12 360.95H133.12V346.74H141.12V360.95ZM150.81 360.95H142.81V346.74H150.81V360.95ZM160.49 360.95H152.49V346.74H160.49V360.95ZM170.17 360.95H162.17V346.74H170.17V360.95ZM179.85 360.95H171.85V346.74H179.85V360.95Z" fill="#0077CC"/>
<path opacity="0.1" d="M83 393.07V409.37H180.33V393.07H83ZM92.7 408.31H84.76V394.09H92.76L92.7 408.31ZM102.39 408.31H94.39V394.09H102.39V408.31ZM112.06 408.31H104.06V394.09H112.06V408.31ZM121.75 408.31H113.76V394.09H121.76L121.75 408.31ZM131.43 408.31H123.43V394.09H131.43V408.31ZM141.12 408.31H133.12V394.09H141.12V408.31ZM150.81 408.31H142.81V394.09H150.81V408.31ZM160.49 408.31H152.49V394.09H160.49V408.31ZM170.17 408.31H162.17V394.09H170.17V408.31ZM179.85 408.31H171.85V394.09H179.85V408.31Z" fill="#0077CC"/>
<path opacity="0.1" d="M83 440.43V456.68H180.33V440.43H83ZM92.7 455.67H84.76V441.44H92.76L92.7 455.67ZM102.39 455.67H94.39V441.44H102.39V455.67ZM112.06 455.67H104.06V441.44H112.06V455.67ZM121.75 455.67H113.76V441.44H121.76L121.75 455.67ZM131.43 455.67H123.43V441.44H131.43V455.67ZM141.12 455.67H133.12V441.44H141.12V455.67ZM150.81 455.67H142.81V441.44H150.81V455.67ZM160.49 455.67H152.49V441.44H160.49V455.67ZM170.17 455.67H162.17V441.44H170.17V455.67ZM179.85 455.67H171.85V441.44H179.85V455.67Z" fill="#0077CC"/>
<path opacity="0.1" d="M83.4199 487.78C83.8099 489.31 84.2499 490.84 84.7099 492.35V488.8H92.7099V503.02H88.4299C88.5599 503.35 88.6899 503.71 88.8199 504.02H180.33V487.78H83.4199ZM102.42 503.02H94.4199V488.8H102.42V503.02ZM112.09 503.02H104.09V488.8H112.09V503.02ZM121.78 503.02H113.76V488.8H121.76L121.78 503.02ZM131.46 503.02H123.46V488.8H131.46V503.02ZM141.15 503.02H133.15V488.8H141.15V503.02ZM150.84 503.02H142.84V488.8H150.84V503.02ZM160.52 503.02H152.52V488.8H160.52V503.02ZM170.2 503.02H162.2V488.8H170.2V503.02ZM179.88 503.02H171.88V488.8H179.88V503.02Z" fill="#0077CC"/>
<path opacity="0.1" d="M106.02 535.14C106.27 535.46 106.51 535.82 106.77 536.14H112.06V542.97C112.63 543.65 113.19 544.33 113.77 544.97V536.1H121.77V550.37H118.53C118.85 550.7 119.16 551.05 119.53 551.37H180.36V535.14H106.02ZM131.43 550.37H123.43V536.16H131.43V550.37ZM141.12 550.37H133.12V536.16H141.12V550.37ZM150.81 550.37H142.81V536.16H150.81V550.37ZM160.49 550.37H152.49V536.16H160.49V550.37ZM170.17 550.37H162.17V536.16H170.17V550.37ZM179.85 550.37H171.85V536.16H179.85V550.37Z" fill="#0077CC"/>
<path opacity="0.1" d="M159.41 582.49C160.32 583.01 161.25 583.49 162.19 584.01V583.51H170.19V588.01L171.89 588.8V583.51H179.89V592.16C180.043 592.236 180.204 592.297 180.37 592.34V582.49H159.41Z" fill="#0077CC"/>
<path opacity="0.1" d="M819.48 333.92H819.54H819.48ZM757.88 629.06H758.88H757.88ZM693.61 478.89C693.8 479.53 693.96 480.17 694.14 480.8C693.98 480.17 693.81 479.53 693.61 478.89ZM819.48 333.89H819.54H819.48ZM215.48 184.15V188.42H260.15V184.15H215.48ZM757.88 629.06H758.88H757.88ZM693.61 478.89C693.8 479.53 693.96 480.17 694.14 480.8C693.98 480.17 693.81 479.53 693.61 478.89ZM819.48 333.89H819.54H819.48ZM757.88 629.03H758.88H757.88ZM693.61 478.89C693.8 479.53 693.96 480.17 694.14 480.8C693.98 480.17 693.81 479.53 693.61 478.89Z" fill="#0077CC"/>
<path d="M526.6 379.67C526.6 379.67 522.66 379.12 522.66 373.38C522.66 367.64 519.84 356.92 519.84 356.92C519.84 356.87 517.4 338.25 514.03 335.29C510.66 332.33 506.33 314.95 506.33 314.95C506.33 314.95 505.59 305.52 504.08 303.49C502.57 301.46 500.53 296.49 497.52 289.4C494.51 282.31 481.96 277.4 481.96 277.4C481.96 277.4 459.27 264.24 452.84 259.95C452.255 259.597 451.709 259.185 451.21 258.72C450.09 257.25 445.21 257.22 445.21 257.22C444.7 254 444.21 250.3 444.05 246.95C444.05 246.59 444.05 246.23 444 245.87C451.17 241.632 456.57 234.949 459.21 227.05C459.33 226.67 459.43 226.27 459.54 225.89C459.969 225.748 460.365 225.519 460.701 225.216C461.036 224.913 461.305 224.543 461.49 224.13C462.07 222.84 462.08 221.33 462.8 220.13C463.64 218.71 465.24 217.95 466.5 216.88C469.68 214.18 470.5 209.63 470.35 205.49C470.25 202.14 469.71 198.76 469.92 195.43L469.98 194.59C470.04 194.09 470.11 193.59 470.2 193.11C470.69 190.63 471.76 188.29 472.36 185.83C472.96 183.37 473.02 180.6 471.62 178.48C469.57 175.37 465.3 174.75 461.55 174.43C457.3 174.07 453.5 174.54 450.78 171.01C449.507 169.165 448.075 167.435 446.5 165.84C445.94 165.32 440.5 162 440.5 161.78C435.19 159.321 429.172 158.859 423.55 160.48C420.73 161.3 418.07 162.64 415.21 163.31C409.04 164.77 401.94 163.19 396.7 166.72C393.78 168.72 392.03 171.9 390.39 175C389.057 177.553 387.703 180.103 386.33 182.65C384.12 186.84 381.87 191.1 380.94 195.74C380.744 196.75 380.624 197.772 380.58 198.8V198.85C380.58 199.22 380.58 199.59 380.58 199.96V200.43C380.58 200.78 380.58 201.12 380.64 201.43C380.7 201.74 380.69 201.84 380.72 202.05C380.75 202.26 380.8 202.73 380.86 203.05C380.92 203.37 381.04 203.93 381.16 204.37C381.21 204.56 381.28 204.74 381.34 204.92C381.44 205.26 381.56 205.59 381.69 205.92C381.76 206.09 381.83 206.27 381.91 206.44C382.06 206.79 382.24 207.13 382.42 207.44C382.5 207.58 382.56 207.71 382.64 207.84C382.919 208.305 383.226 208.753 383.56 209.18C385.7 211.85 388.85 213.55 391.18 216.05C391.18 216.15 391.18 216.25 391.18 216.34C391.18 216.62 391.18 216.89 391.18 217.17C391.303 222.745 392.788 228.206 395.503 233.078C398.218 237.949 402.083 242.083 406.76 245.12C406.76 245.5 406.81 245.89 406.83 246.27C407.025 249.238 406.988 252.217 406.72 255.18C406.313 254.7 405.803 254.318 405.228 254.062C404.654 253.806 404.029 253.682 403.4 253.7C402.97 253.679 402.54 253.716 402.12 253.81L402.03 253.74V253.83C399.83 254.37 397.12 256.66 394.53 263.17C394.53 263.17 386.65 272.05 380.65 271.68C374.65 271.31 359.46 280.92 359.46 280.92C359.46 280.92 344.64 290.54 341.46 300.34C339.682 305.897 337.551 311.335 335.08 316.62L316.76 354.37L313.38 384.32C313.38 384.32 315.25 397.64 314.88 399.67C314.51 401.7 322.57 420.01 322.57 420.01C322.57 420.01 349.2 466.8 360.08 469.2L360.86 468.65C361.325 468.893 361.819 469.078 362.33 469.2L364.57 467.62C364.704 469.381 364.647 471.151 364.4 472.9C362.9 477.52 364.96 507.67 367.58 513.58C370.2 519.49 369.27 596.98 369.27 596.98L368.9 603.82C368.9 603.82 368.9 604.04 368.99 604.42L368.9 606.04L369.17 606.18C369.45 608.35 369.359 610.551 368.9 612.69C367.96 615.69 367.58 624.17 367.58 624.17C367.58 624.17 360.09 672.05 363.64 681.67C367.19 691.29 370.21 701.83 370.21 701.83C370.21 701.83 373.96 713.83 370.39 715.88C366.82 717.93 356.67 721.37 358.76 726.37C360.66 730.99 367.87 743.37 368.94 745.18L368.85 746.13L367.38 762.06C367.618 764.163 368.188 766.216 369.07 768.14C370.68 771.61 373.81 775.21 379.76 774.82C380.76 774.75 381.92 774.63 383.04 774.48C393.93 773.02 407.34 768.16 407.34 768.16C406.644 767.718 406.005 767.19 405.44 766.59V766.59C404.905 766.071 404.48 765.449 404.193 764.762C403.906 764.074 403.762 763.335 403.77 762.59C403.93 759.69 398.5 745.87 397.15 742.47C396.94 741.98 396.83 741.7 396.83 741.7C396.83 741.7 409.21 728.76 407.15 717.29C407.15 717.29 393.45 709.29 397.96 704.9C402.47 700.51 410.53 687.9 410.53 687.9C410.53 687.9 410.9 640.75 410.53 633.71C410.144 628.824 410.376 623.908 411.22 619.08C411.37 618.35 411.55 617.64 411.74 616.94C417.977 617.871 424.274 618.349 430.58 618.37C432.88 618.37 435.22 618.37 437.58 618.23C437.58 618.897 437.61 619.617 437.67 620.39C438.19 632.07 439.16 652.55 439.95 660.16C441.07 671.07 447.26 700.47 447.26 700.47C447.26 700.47 435.45 708.05 449.32 726.73C449.32 726.73 449.32 733.5 448.4 734.48C447.418 737.684 446.626 740.943 446.03 744.24C445.45 747.76 445.21 751.32 446.15 753.17C448.4 757.59 461.9 757.23 461.9 757.23L462.23 757.17C464.779 756.907 467.354 757.152 469.807 757.892C472.26 758.632 474.542 759.851 476.52 761.48C481.65 765.6 501.12 763.79 511.66 762.48C515.79 761.96 518.55 761.48 518.55 761.48C518.684 761.012 518.731 760.524 518.69 760.04C518.58 757.45 516.55 751.77 502.79 746.7C502.79 746.7 489.85 738 490.03 730.42H489.76H488.26C489.35 730.36 490.05 730.42 490.05 730.42C490.05 730.42 484.98 711.92 487.05 710.42C489.12 708.92 482.92 688.42 482.92 688.42C482.92 688.42 479.37 654.02 479.18 651.61C479.188 649.542 479.501 647.486 480.11 645.51L479.18 626.65C479.18 626.65 479 620.38 479.18 618.34C479.15 616.569 479.006 614.802 478.75 613.05C478.66 612.35 478.57 611.62 478.47 610.9C483.32 609.67 486.47 608.53 486.47 608.53L485.91 542.88C490.03 534.88 490.79 517.33 490.77 504.88C490.77 496.88 490.41 490.96 490.41 490.96L496.04 481.77C496.04 481.77 497.34 470.77 495.28 468.36C494.37 467.27 494.78 466.14 495.53 465.21C495.919 464.901 496.33 464.62 496.76 464.37C496.76 464.37 496.7 464.28 496.63 464.15C497.023 463.822 497.441 463.524 497.88 463.26C497.88 463.26 495.88 460.16 497.67 458.85C499.35 459.99 500.85 460.85 501.99 461.55C501.91 462.28 501.83 462.7 501.83 462.7L502.31 461.7C503.41 462.32 504.08 462.7 504.08 462.7C504.08 462.7 512.9 445.13 512.71 442.54C512.52 439.95 518.71 429.04 518.71 429.04C518.71 429.04 519.46 423.31 522.84 420.91C526.22 418.51 525.46 401.12 525.46 401.12C525.46 401.12 526.4 392.06 528.65 388.36C530.9 384.66 526.6 379.67 526.6 379.67ZM357.84 371.96L358.01 376.15C357.01 374.54 356.29 373.38 356.29 373.38L357.84 371.96Z" fill="url(#paint0_linear)"/>
<path d="M504.56 455.11L502.4 464.31C502.4 464.31 485.1 455.48 481.98 444.26C478.86 433.04 487.2 428.78 487.2 428.78L503.32 435.61L504.56 455.11Z" fill="white"/>
<path opacity="0.1" d="M504.56 455.11L502.4 464.31C502.4 464.31 485.1 455.48 481.98 444.26C478.86 433.04 487.2 428.78 487.2 428.78L503.32 435.61L504.56 455.11Z" fill="black"/>
<path d="M407.47 768.22C407.47 768.22 391.47 774.1 380.47 774.84C374.63 775.23 371.56 771.65 369.98 768.2C369.117 766.282 368.56 764.241 368.33 762.15L369.76 746.3L370.52 737.86L393.89 731.79L397.2 741.91L397.51 742.68C398.84 746.06 404.17 759.81 404.01 762.68C404.004 763.415 404.145 764.144 404.427 764.822C404.709 765.501 405.125 766.116 405.65 766.63C406.187 767.235 406.798 767.77 407.47 768.22V768.22Z" fill="white"/>
<path d="M516.76 760.16C516.8 760.641 516.753 761.126 516.62 761.59C516.62 761.59 482.4 767.3 475.4 761.59C473.427 759.922 471.126 758.685 468.646 757.958C466.166 757.231 463.562 757.031 461 757.37C461 757.37 447.76 757.73 445.55 753.37C444.63 751.54 444.87 747.99 445.44 744.49C446.022 741.21 446.796 737.968 447.76 734.78L448.29 734.36L451.44 731.83L488.32 730.74H488.6C488.42 738.28 501.12 746.93 501.12 746.93C514.61 751.93 516.6 757.58 516.76 760.16Z" fill="white"/>
<path opacity="0.1" d="M516.76 760.16C516.795 760.642 516.744 761.126 516.61 761.59C516.61 761.59 482.4 767.3 475.4 761.59C473.428 759.923 471.129 758.687 468.651 757.96C466.173 757.233 463.57 757.032 461.01 757.37C461.01 757.37 447.76 757.73 445.56 753.37C444.64 751.53 444.87 747.99 445.44 744.49C450.54 745 458.59 746.27 461.75 749.3C466.53 753.91 474.63 758.51 479.6 758.87C483.49 759.12 506.76 759.86 516.76 760.16Z" fill="black"/>
<path opacity="0.1" d="M407.47 768.22C407.47 768.22 391.47 774.1 380.47 774.84C374.63 775.23 371.56 771.65 369.99 768.19C374.06 769.56 379.71 771 382.68 769.68C386.2 768.12 398.68 767.11 405.68 766.68C406.213 767.263 406.814 767.78 407.47 768.22V768.22Z" fill="black"/>
<path d="M431.21 294.37C418.01 289.24 401.03 272.29 405.27 264.37C406.212 262.371 406.771 260.214 406.92 258.01C407.193 255.018 407.233 252.009 407.04 249.01C406.743 244.099 406.152 239.21 405.27 234.37C405.27 234.37 446.48 235.3 444.08 241.37C443.38 243.15 443.27 246.24 443.46 249.7C443.65 253.16 444.15 257.07 444.67 260.38C445.39 264.92 446.11 268.38 446.11 268.38C446.11 268.38 443.59 271.91 442.11 272.1C440.63 272.29 450.15 301.68 431.21 294.37Z" fill="#CF6F80"/>
<path opacity="0.1" d="M397.48 742.68L397.17 743.02C384.85 728.12 369.95 746.69 369.95 746.69L369.73 746.3L370.49 737.86L393.86 731.79L397.17 741.91L397.48 742.68Z" fill="black"/>
<path opacity="0.1" d="M488.61 731.79C488.61 731.79 479.61 731.6 474.81 735.84C470.01 740.08 446.81 736.76 447.81 735.84C448.106 735.384 448.285 734.862 448.33 734.32L451.48 731.79L488.36 730.7C488.5 731.37 488.61 731.79 488.61 731.79Z" fill="black"/>
<path d="M412.81 614.78C412.14 616.437 411.631 618.155 411.29 619.91C410.456 624.716 410.224 629.607 410.6 634.47C410.97 641.47 410.6 688.38 410.6 688.38C410.6 688.38 402.69 700.89 398.28 705.3C393.87 709.71 407.28 717.63 407.28 717.63C409.28 729.03 397.16 741.91 397.16 741.91C384.84 727.01 369.94 745.59 369.94 745.59C369.94 745.59 361.84 731.59 359.82 726.59C357.8 721.59 367.73 718.13 371.22 716.1C374.71 714.07 371.05 702.1 371.05 702.1C371.05 702.1 368.1 691.61 364.6 682.04C361.1 672.47 368.46 624.83 368.46 624.83C368.46 624.83 368.84 616.37 369.75 613.42C370.209 611.291 370.3 609.1 370.02 606.94C369.96 606.21 369.89 605.6 369.84 605.19C369.79 604.78 369.75 604.59 369.75 604.59L369.89 604.35L374.89 595.03C374.89 595.03 415.21 608.91 412.81 614.78Z" fill="#0077CC"/>
<path d="M488.61 730.69C488.61 730.69 479.61 730.5 474.81 734.69C470.01 738.88 446.81 735.61 447.81 734.69C448.81 733.77 448.73 726.96 448.73 726.96C435.12 708.38 446.73 700.84 446.73 700.84C446.73 700.84 440.65 671.59 439.55 660.74C438.78 653.16 437.83 632.79 437.32 621.16C437.1 616.16 436.97 612.72 436.97 612.72L448.09 610.48L449.52 610.19L476.34 604.81C476.34 604.81 477.08 609.81 477.58 613.9C477.829 615.646 477.97 617.406 478 619.17C477.82 621.17 478 627.43 478 627.43L478.91 646.2C478.315 648.169 478.009 650.213 478 652.27C478.18 654.66 481.67 688.88 481.67 688.88C481.67 688.88 487.74 709.3 485.67 710.77C483.6 712.24 488.61 730.69 488.61 730.69Z" fill="#0077CC"/>
<path opacity="0.1" d="M444.08 241.37C443.38 243.15 443.27 246.24 443.46 249.7C437.94 253.024 431.594 254.723 425.152 254.603C418.71 254.483 412.432 252.548 407.04 249.02C406.743 244.106 406.152 239.214 405.27 234.37C405.27 234.37 446.48 235.28 444.08 241.37Z" fill="black"/>
<path d="M460.01 219.27C460.018 222.873 459.451 226.455 458.33 229.88C455.825 237.554 450.687 244.095 443.826 248.347C436.964 252.599 428.82 254.288 420.833 253.117C412.847 251.945 405.531 247.988 400.18 241.944C394.828 235.901 391.786 228.16 391.59 220.09C391.59 219.81 391.59 219.55 391.59 219.27C391.512 214.728 392.34 210.215 394.025 205.996C395.709 201.777 398.217 197.935 401.402 194.696C404.587 191.456 408.385 188.883 412.575 187.126C416.764 185.37 421.262 184.465 425.805 184.465C430.348 184.465 434.846 185.37 439.035 187.126C443.225 188.883 447.023 191.456 450.208 194.696C453.393 197.935 455.901 201.777 457.585 205.996C459.27 210.215 460.098 214.728 460.02 219.27H460.01Z" fill="#CF6F80"/>
<path opacity="0.1" d="M431.21 294.37C418.01 289.24 401.03 272.29 405.27 264.37C406.212 262.371 406.771 260.214 406.92 258.01L424.99 272.86L436.17 282.03L444.67 260.39C445.39 264.93 446.11 268.39 446.11 268.39C446.11 268.39 443.59 271.92 442.11 272.11C440.63 272.3 450.15 301.68 431.21 294.37Z" fill="black"/>
<path d="M477.94 360L462.85 613.5L443.17 614.79L392.21 467.8L400.57 293.29L402.33 256.42L424.99 275.03L436.18 284.2L444.93 261.93L461.2 276.11L477.94 360Z" fill="#0077CC"/>
<path opacity="0.1" d="M412.81 614.78C412.14 616.437 411.631 618.155 411.29 619.91C396.97 617.699 383.062 613.354 370.03 607.02L369.76 606.88L369.85 605.27L369.9 604.43L374.9 595.11C374.9 595.11 415.21 608.91 412.81 614.78Z" fill="black"/>
<path opacity="0.1" d="M448.32 619.95C444.659 620.573 440.967 620.993 437.26 621.21C437.04 616.21 436.91 612.77 436.91 612.77L448.03 610.53L448.32 619.95Z" fill="black"/>
<path opacity="0.1" d="M477.52 613.95C470.41 615.8 459.43 617.88 449.6 616.58L449.46 610.24L476.28 604.86C476.28 604.86 477.02 609.81 477.52 613.95Z" fill="black"/>
<path opacity="0.1" d="M449.42 617.74C408.42 624.74 370.87 604.67 370.87 604.67L371.23 597.87C371.23 597.87 372.16 520.78 369.58 514.87C367 508.96 364.99 478.99 366.45 474.39C367.91 469.79 361.12 400.81 361.12 400.81L360.02 372.81L319.76 356.5L337.76 318.98C340.191 313.72 342.282 308.308 344.02 302.78C347.15 293.04 361.68 283.47 361.68 283.47C361.68 283.47 376.58 273.91 382.47 274.27C388.36 274.63 396.08 265.81 396.08 265.81C401.78 251.28 406.94 257.86 406.94 257.86C406.94 258.55 406.94 257.86 406.66 260.01C404.66 275.96 439 326.36 439.49 327.25L442.76 406.91L446.07 507.72L449.42 617.74Z" fill="black"/>
<path d="M448.32 617.74C407.32 624.74 369.76 604.67 369.76 604.67L370.13 597.87C370.13 597.87 371.06 520.78 368.47 514.87C365.88 508.96 363.88 478.99 365.35 474.39C366.82 469.79 360.02 400.81 360.02 400.81L358.91 372.81L318.63 356.44L336.63 318.92C339.056 313.657 341.147 308.246 342.89 302.72C346.01 292.98 360.55 283.41 360.55 283.41C360.55 283.41 375.45 273.85 381.33 274.21C387.21 274.57 394.94 265.75 394.94 265.75C400.65 251.22 406.94 257.8 406.94 257.8C406.94 258.49 406.34 258.8 406.66 259.95C411.06 275.42 437.9 326.3 438.39 327.19L441.7 406.85L445.01 507.66L448.32 617.74Z" fill="white"/>
<path opacity="0.1" d="M437.27 329.46C432.86 327.62 409.5 300.95 409.5 300.95V294.88C408.65 292.88 403.6 294.1 399.5 295.5L401.26 258.63L403.26 260.29C407.64 275.75 436.76 328.57 437.27 329.46Z" fill="black"/>
<path d="M438.38 327.25C433.96 325.41 410.6 298.74 410.6 298.74V292.67C409.75 290.67 404.7 291.89 400.6 293.29L402.37 256.42L404.37 258.08C408.76 273.54 437.89 326.37 438.38 327.25Z" fill="white"/>
<path opacity="0.1" d="M370.87 460.26C371.42 460.26 399.38 457.32 399.38 457.32C399.38 457.32 416.31 490.61 415.2 498.71C414.09 506.81 412.08 513.98 405.27 512.71C398.46 511.44 368.62 513.71 368.62 513.71L370.87 460.26Z" fill="black"/>
<path d="M369.76 458.05C370.31 458.05 398.27 455.11 398.27 455.11C398.27 455.11 415.19 488.41 414.09 496.5C412.99 504.59 410.96 511.77 404.16 510.5C397.36 509.23 367.51 511.5 367.51 511.5L369.76 458.05Z" fill="white"/>
<path d="M390.83 442.42C390.83 442.42 416.49 456.21 417.04 460.42C417.59 464.63 403.98 458.58 401.04 457.85C399.105 457.384 397.135 457.076 395.15 456.93L375.54 457.46L390.83 442.42Z" fill="#CF6F80"/>
<path opacity="0.1" d="M430.11 331.18C431.601 331.18 432.81 329.971 432.81 328.48C432.81 326.989 431.601 325.78 430.11 325.78C428.619 325.78 427.41 326.989 427.41 328.48C427.41 329.971 428.619 331.18 430.11 331.18Z" fill="black"/>
<path d="M430.11 330.08C431.601 330.08 432.81 328.871 432.81 327.38C432.81 325.889 431.601 324.68 430.11 324.68C428.619 324.68 427.41 325.889 427.41 327.38C427.41 328.871 428.619 330.08 430.11 330.08Z" fill="#3F3D56"/>
<path opacity="0.1" d="M435.08 448.06C436.571 448.06 437.78 446.851 437.78 445.36C437.78 443.869 436.571 442.66 435.08 442.66C433.589 442.66 432.38 443.869 432.38 445.36C432.38 446.851 433.589 448.06 435.08 448.06Z" fill="black"/>
<path d="M435.08 446.95C436.571 446.95 437.78 445.741 437.78 444.25C437.78 442.759 436.571 441.55 435.08 441.55C433.589 441.55 432.38 442.759 432.38 444.25C432.38 445.741 433.589 446.95 435.08 446.95Z" fill="#3F3D56"/>
<path opacity="0.1" d="M432.8 389.62C434.291 389.62 435.5 388.411 435.5 386.92C435.5 385.429 434.291 384.22 432.8 384.22C431.309 384.22 430.1 385.429 430.1 386.92C430.1 388.411 431.309 389.62 432.8 389.62Z" fill="black"/>
<path d="M432.8 388.52C434.291 388.52 435.5 387.311 435.5 385.82C435.5 384.329 434.291 383.12 432.8 383.12C431.309 383.12 430.1 384.329 430.1 385.82C430.1 387.311 431.309 388.52 432.8 388.52Z" fill="#3F3D56"/>
<path d="M495.04 456.37C495.04 456.37 496.88 459.13 495.04 460.42C493.2 461.71 495.22 464.83 495.22 464.83C495.22 464.83 490.63 467.52 492.65 469.94C494.67 472.36 493.39 483.29 493.39 483.29L487.87 492.43C487.87 492.43 488.2 498.32 488.22 506.28C488.22 518.7 487.49 536.16 483.45 544.12L484.01 609.43C484.01 609.43 464.68 616.49 448.5 614.34L446.1 509.54C446.1 509.54 449.6 450.11 450.89 438.71C451.645 432.792 451.952 426.825 451.81 420.86C451.81 420.86 451.26 403.02 449.41 394.74C449.41 394.74 447.41 358.87 447.21 348.94C447.12 344.19 447.37 330.33 447.65 317.15C447.96 302.74 448.31 289.15 448.31 289.15L444.66 260.27C444.66 260.27 448.31 259.9 449.41 261.37C449.903 261.83 450.438 262.242 451.01 262.6V262.6C457.31 266.86 479.57 279.96 479.57 279.96C479.57 279.96 491.89 284.86 494.84 291.88C497.79 298.9 499.84 303.88 501.27 305.88C502.7 307.88 503.48 317.28 503.48 317.28C503.48 317.28 507.72 334.58 511.03 337.51C514.34 340.44 516.76 359.08 516.76 359.08L487.51 382.08C487.51 382.08 484.94 420.34 484.39 421.82C483.84 423.3 495.04 456.37 495.04 456.37Z" fill="white"/>
<path d="M496.15 456.37C496.15 456.37 497.98 459.13 496.15 460.42C494.32 461.71 496.32 464.83 496.32 464.83C496.32 464.83 491.76 467.55 493.76 469.97C495.76 472.39 494.5 483.32 494.5 483.32L488.98 492.46C488.98 492.46 489.31 498.35 489.34 506.31C489.34 518.73 488.61 536.19 484.57 544.15L485.12 609.46C485.12 609.46 465.76 616.52 449.6 614.37L447.21 509.57C447.21 509.57 450.71 450.14 452 438.74C452.756 432.822 453.06 426.854 452.91 420.89C452.91 420.89 452.36 403.05 450.52 394.77C450.52 394.77 448.52 358.9 448.31 348.97C448.22 344.22 448.48 330.36 448.75 317.18C449.06 302.77 449.41 289.18 449.41 289.18L444.59 259.91C444.59 259.91 449.41 259.91 450.52 261.4C451.008 261.866 451.545 262.278 452.12 262.63C458.42 266.89 480.69 279.99 480.69 279.99C480.69 279.99 493 284.89 495.95 291.91C498.9 298.93 500.95 303.91 502.39 305.91C503.83 307.91 504.59 317.31 504.59 317.31C504.59 317.31 508.83 334.61 512.14 337.54C515.45 340.47 517.84 359.07 517.84 359.07L488.59 382.07C488.59 382.07 486.02 420.33 485.46 421.81C484.9 423.29 496.15 456.37 496.15 456.37Z" fill="white"/>
<path opacity="0.1" d="M461.12 297.67L463.76 305.37L449.86 319.37C450.17 304.97 450.52 291.37 450.52 291.37L445.7 262.1C445.7 262.1 450.52 262.1 451.63 263.59C452.117 264.054 452.653 264.464 453.23 264.81L465.05 298.91L461.12 297.67Z" fill="black"/>
<path d="M460.01 295.46L462.66 303.16L448.76 317.16C449.07 302.75 449.42 289.16 449.42 289.16L444.59 259.89C444.59 259.89 449.42 259.89 450.52 261.38C451.011 261.843 451.547 262.255 452.12 262.61L463.95 296.7L460.01 295.46Z" fill="white"/>
<path opacity="0.1" d="M460.01 219.27C460.018 222.873 459.451 226.455 458.33 229.88C458.141 229.909 457.948 229.901 457.763 229.854C457.577 229.808 457.403 229.725 457.25 229.61C456.99 220.61 452.56 212.16 447.11 204.97C445.58 202.799 443.725 200.877 441.61 199.27C439.472 197.664 436.812 196.912 434.15 197.16C431.15 197.57 428.5 199.61 425.47 199.87C421.47 200.2 417.89 197.43 413.92 197.29C412.306 197.305 410.714 197.665 409.25 198.344C407.786 199.024 406.484 200.007 405.43 201.23C403.344 203.697 401.795 206.572 400.88 209.67C399.308 214.368 398.451 219.277 398.34 224.23C398.29 227.03 398.02 230.54 395.42 231.56C395.616 229.501 395.382 227.423 394.733 225.459C394.084 223.495 393.034 221.687 391.65 220.15L391.59 220.09C391.59 219.81 391.59 219.55 391.59 219.27C391.512 214.728 392.34 210.215 394.025 205.996C395.709 201.777 398.217 197.935 401.402 194.696C404.587 191.456 408.385 188.883 412.575 187.126C416.764 185.37 421.262 184.465 425.805 184.465C430.348 184.465 434.846 185.37 439.035 187.126C443.225 188.883 447.023 191.456 450.208 194.696C453.393 197.935 455.901 201.777 457.585 205.996C459.27 210.215 460.098 214.728 460.02 219.27H460.01Z" fill="black"/>
<path d="M439.97 164.94C434.774 162.496 428.863 162.033 423.35 163.64C420.58 164.46 417.97 165.79 415.16 166.46C409.16 167.91 402.16 166.34 397.01 169.85C394.15 171.85 392.43 175.01 390.83 178.08L386.83 185.7C384.65 189.87 382.45 194.11 381.54 198.7C380.63 203.29 381.18 208.43 384.09 212.12C386.21 214.81 389.34 216.5 391.64 219.03C393.018 220.569 394.063 222.376 394.71 224.337C395.357 226.299 395.592 228.373 395.4 230.43C398.01 229.43 398.26 225.91 398.32 223.11C398.432 218.157 399.288 213.248 400.86 208.55C401.773 205.451 403.323 202.576 405.41 200.11C406.465 198.888 407.767 197.905 409.231 197.226C410.695 196.547 412.286 196.187 413.9 196.17C417.9 196.31 421.49 199.07 425.45 198.74C428.45 198.49 431.11 196.44 434.13 196.04C436.793 195.788 439.454 196.541 441.59 198.15C443.704 199.754 445.556 201.677 447.08 203.85C452.54 211.04 456.97 219.47 457.23 228.49C458.36 229.32 459.99 228.24 460.55 226.96C461.11 225.68 461.13 224.18 461.84 222.96C462.66 221.55 464.23 220.8 465.46 219.74C468.58 217.05 469.36 212.52 469.24 208.41C469.12 204.3 468.32 200.13 469.1 196.09C469.57 193.61 470.63 191.29 471.21 188.84C471.79 186.39 471.86 183.64 470.49 181.53C468.49 178.43 464.28 177.82 460.61 177.53C456.44 177.17 452.71 177.63 450.05 174.12C448.802 172.288 447.396 170.569 445.85 168.98C445.32 168.46 439.97 165.16 439.97 164.94Z" fill="#512E4E"/>
<path opacity="0.1" d="M331.28 375.82L320.83 356.5L317.52 386.31C317.52 386.31 319.36 399.55 318.99 401.58C318.62 403.61 326.53 421.81 326.53 421.81C326.53 421.81 352.66 468.35 363.33 470.75L399.38 444.99L389.82 432.85C389.82 432.85 386.51 431.56 385.68 432.85C385.68 432.85 367.93 402.31 366.09 400.1C364.25 397.89 364.61 393.48 364.61 393.48C364.61 393.48 361.85 390.54 362.77 387.78C363.69 385.02 357.44 375.45 357.44 375.45L363.14 370.12L331.28 375.82Z" fill="black"/>
<path d="M321.38 354.3L318.62 356.5L315.31 386.31C315.31 386.31 317.15 399.55 316.78 401.58C316.41 403.61 324.33 421.81 324.33 421.81C324.33 421.81 350.45 468.35 361.12 470.75L397.18 444.99L387.61 432.85C387.61 432.85 384.3 431.56 383.47 432.85C383.47 432.85 365.72 402.31 363.88 400.1C362.04 397.89 362.41 393.48 362.41 393.48C362.41 393.48 359.65 390.54 360.57 387.78C361.49 385.02 355.23 375.45 355.23 375.45L360.93 370.12L321.38 354.3Z" fill="white"/>
<path opacity="0.1" d="M492.65 471.08C494.65 473.51 493.39 484.42 493.39 484.42L487.87 493.56C487.87 493.56 488.2 499.46 488.22 507.41L478.94 510.31C478.101 510.572 477.212 510.63 476.347 510.478C475.481 510.326 474.665 509.97 473.965 509.439C473.265 508.907 472.703 508.216 472.324 507.423C471.946 506.63 471.763 505.758 471.79 504.88L473.39 453.27L495.04 461.55C493.2 462.83 495.22 465.97 495.22 465.97C495.22 465.97 490.63 468.65 492.65 471.08Z" fill="black"/>
<path d="M493.76 469.97C495.76 472.4 494.5 483.32 494.5 483.32L488.98 492.46C488.98 492.46 489.31 498.35 489.34 506.31L479.89 509.26C479.069 509.515 478.198 509.571 477.351 509.421C476.504 509.272 475.705 508.923 475.02 508.402C474.335 507.882 473.785 507.206 473.414 506.429C473.044 505.653 472.864 504.8 472.89 503.94L474.5 452.17L496.16 460.45C494.31 461.73 496.33 464.86 496.33 464.86C496.33 464.86 491.76 467.55 493.76 469.97Z" fill="white"/>
<path d="M500.93 445.37C500.93 445.37 499.46 454.76 495.78 455.31C492.1 455.86 490.45 470.5 486.78 469.98C483.11 469.46 485.54 456.37 485.67 453.83C485.8 451.29 481.67 440.77 484.76 438.38C487.85 435.99 497.63 438.38 497.63 438.38L500.93 445.37Z" fill="#CF6F80"/>
<path opacity="0.1" d="M508.76 373.06L515.7 359.06C515.7 359.06 518.46 369.73 518.46 375.43C518.46 381.13 522.32 381.69 522.32 381.69C522.32 381.69 526.55 386.69 524.32 390.33C522.09 393.97 521.19 403.03 521.19 403.03C521.19 403.03 521.92 420.32 518.61 422.71C515.3 425.1 514.61 430.81 514.61 430.81C514.61 430.81 508.53 441.66 508.72 444.24C508.91 446.82 500.26 464.29 500.26 464.29C500.26 464.29 504.49 442.58 479.84 433.2C479.84 433.2 479.65 425.83 481.49 423.81C483.33 421.79 486.2 420.87 484.4 410.66C482.6 400.45 483.88 388.25 483.88 385.8C483.88 383.35 489.4 368.07 489.4 368.07L508.76 373.06Z" fill="black"/>
<path d="M511.76 357.06L517.82 359.06C517.82 359.06 520.59 369.73 520.59 375.43C520.59 381.13 524.45 381.69 524.45 381.69C524.45 381.69 528.68 386.69 526.45 390.33C524.22 393.97 523.33 403.03 523.33 403.03C523.33 403.03 524.06 420.32 520.75 422.71C517.44 425.1 516.7 430.81 516.7 430.81C516.7 430.81 510.63 441.66 510.82 444.24C511.01 446.82 502.35 464.29 502.35 464.29C502.35 464.29 506.59 442.58 481.93 433.2C481.93 433.2 481.75 425.83 483.59 423.81C485.43 421.79 488.3 420.87 486.5 410.66C484.7 400.45 485.98 388.25 485.98 385.8C485.98 383.35 491.5 368.07 491.5 368.07L511.76 357.06Z" fill="white"/>
<path opacity="0.1" d="M377.91 719.93C377.91 719.93 387.57 713.86 393.91 718.27C400.25 722.68 377.91 719.93 377.91 719.93Z" fill="black"/>
<path opacity="0.1" d="M452.97 701.16C452.97 701.16 461.52 700.06 468.7 707.79C475.88 715.52 452.97 701.16 452.97 701.16Z" fill="black"/>
<g opacity="0.1">
<path opacity="0.1" d="M465.48 217.55C464.25 218.61 462.67 219.37 461.85 220.78C461.15 221.99 461.13 223.48 460.57 224.78C460.01 226.08 458.38 227.14 457.25 226.32C456.99 217.32 452.55 208.87 447.1 201.67C445.576 199.497 443.724 197.574 441.61 195.97C439.47 194.361 436.806 193.608 434.14 193.86C431.14 194.27 428.5 196.31 425.47 196.56C421.47 196.9 417.88 194.13 413.91 193.99C412.297 194.006 410.705 194.367 409.243 195.048C407.78 195.729 406.48 196.715 405.43 197.94C403.342 200.402 401.793 203.274 400.88 206.37C399.309 211.069 398.452 215.977 398.34 220.93C398.28 223.72 398.02 227.2 395.44 228.24C395.5 228.979 395.5 229.721 395.44 230.46C398.04 229.46 398.3 225.94 398.36 223.14C398.471 218.187 399.328 213.278 400.9 208.58C401.813 205.481 403.362 202.606 405.45 200.14C406.502 198.919 407.803 197.935 409.265 197.256C410.728 196.577 412.318 196.217 413.93 196.2C417.93 196.34 421.53 199.1 425.49 198.77C428.49 198.52 431.15 196.47 434.16 196.07C436.826 195.818 439.49 196.571 441.63 198.18C443.744 199.784 445.596 201.707 447.12 203.88C452.57 211.07 457.01 219.5 457.27 228.52C458.4 229.35 460.03 228.27 460.59 226.99C461.15 225.71 461.17 224.21 461.87 222.99C462.69 221.58 464.27 220.83 465.5 219.77C468.62 217.08 469.4 212.55 469.28 208.44C469.28 208.31 469.28 208.18 469.28 208.06C469.09 211.62 468.14 215.25 465.48 217.55Z" fill="black"/>
<path opacity="0.1" d="M391.66 216.84C389.36 214.31 386.22 212.62 384.11 209.94C382.333 207.568 381.318 204.712 381.2 201.75C380.885 205.451 381.919 209.141 384.11 212.14C386.22 214.83 389.36 216.52 391.66 219.05C393.868 221.525 395.194 224.662 395.43 227.97C395.583 225.957 395.328 223.933 394.68 222.02C394.032 220.108 393.005 218.346 391.66 216.84V216.84Z" fill="black"/>
<path opacity="0.1" d="M471.23 186.65C470.64 189.1 469.59 191.43 469.11 193.9C468.826 195.55 468.722 197.227 468.8 198.9C468.833 197.947 468.937 196.998 469.11 196.06C469.59 193.58 470.64 191.26 471.23 188.81C471.574 187.459 471.685 186.059 471.56 184.67C471.498 185.337 471.387 185.999 471.23 186.65V186.65Z" fill="black"/>
</g>
<path opacity="0.1" d="M197.73 760.59C251.545 760.59 295.17 753.583 295.17 744.94C295.17 736.297 251.545 729.29 197.73 729.29C143.915 729.29 100.29 736.297 100.29 744.94C100.29 753.583 143.915 760.59 197.73 760.59Z" fill="#0077CC"/>
<path d="M200.87 445.14H194.6V586.31H200.87V445.14Z" fill="#535461"/>
<path d="M240.27 585.88L239.88 592.24L239.32 601.24L239.09 604.98L238.54 613.98L238.3 617.72L237.74 626.72L231.42 728.79C231.145 733.182 229.208 737.304 226.001 740.317C222.794 743.33 218.56 745.008 214.16 745.01H181.3C176.901 745.008 172.668 743.33 169.463 740.316C166.258 737.303 164.322 733.181 164.05 728.79L157.76 626.65L157.2 617.65L156.97 613.91L156.41 604.91L156.18 601.17L155.62 592.17L155.22 585.81C155.151 584.586 155.332 583.361 155.753 582.209C156.174 581.058 156.826 580.004 157.669 579.114C158.511 578.223 159.527 577.514 160.654 577.031C161.78 576.547 162.994 576.298 164.22 576.3H231.43C232.651 576.311 233.858 576.571 234.975 577.066C236.091 577.561 237.095 578.279 237.923 579.177C238.752 580.075 239.387 581.133 239.791 582.286C240.194 583.438 240.358 584.662 240.27 585.88V585.88Z" fill="#3F3D56"/>
<path d="M239.88 592.24L239.32 601.21H156.14L155.58 592.24H239.88Z" fill="#9D9CB5"/>
<path d="M239.09 604.95L238.54 613.93H156.93L156.37 604.95H239.09Z" fill="#9D9CB5"/>
<path d="M238.3 617.68L237.75 626.65H157.72L157.16 617.68H238.3Z" fill="#9D9CB5"/>
<path d="M146.01 498.05C182.52 524.47 197.76 565.79 197.76 565.79C197.76 565.79 153.76 564.28 117.24 537.86C80.72 511.44 65.51 470.13 65.51 470.13C65.51 470.13 109.49 471.63 146.01 498.05Z" fill="#0077CC"/>
<path d="M65.48 470.13C65.48 470.13 111.16 495.48 125.81 516.47C140.46 537.46 197.76 565.79 197.76 565.79" stroke="#535461" stroke-width="2" stroke-miterlimit="10"/>
<path d="M169.58 444.83C189.45 459.2 197.76 481.69 197.76 481.69C197.76 481.69 173.81 480.87 153.93 466.5C134.05 452.13 125.76 429.63 125.76 429.63C125.76 429.63 149.7 430.45 169.58 444.83Z" fill="#0077CC"/>
<path d="M125.76 429.63C125.76 429.63 150.62 443.43 158.59 454.85C166.56 466.27 197.76 481.69 197.76 481.69" stroke="#535461" stroke-width="2" stroke-miterlimit="10"/>
<path d="M226.61 480.55C203.78 505.64 198.95 538.43 198.95 538.43C198.95 538.43 231.14 530.53 253.95 505.43C276.76 480.33 281.61 447.55 281.61 447.55C281.61 447.55 249.44 455.46 226.61 480.55Z" fill="#0077CC"/>
<path d="M281.63 447.56C281.63 447.56 251.89 473.28 244.33 491C236.77 508.72 198.95 538.43 198.95 538.43" stroke="#535461" stroke-width="2" stroke-miterlimit="10"/>
<path d="M1064.67 471.72C1064.67 471.72 1048.16 389.58 1054.48 379.36C1054.48 379.36 1054.71 369.86 1054.33 357.75C1054.33 357.29 1054.33 356.83 1054.33 356.36C1055.44 357.101 1056.6 357.769 1057.8 358.36C1063.62 361.352 1070.31 362.215 1076.7 360.8L1071.7 355.23C1070.5 353.9 1069.25 352.46 1068.99 350.7C1068.73 348.94 1069.45 347.37 1070.07 345.8C1074.82 333.8 1075.07 318.71 1065.92 309.55C1058.19 301.85 1056.31 291.91 1047.92 284.88C1041.79 279.73 1038.42 272.18 1035.24 264.88C1032.55 258.71 1029.84 252.49 1028.3 245.95C1027.1 240.84 1026.62 235.55 1024.97 230.56C1023.32 225.57 1020.23 220.72 1015.4 218.49C1013.68 217.7 1011.77 217.25 1010.2 216.2C1008.14 214.81 1006.9 212.55 1005.41 210.57C997.84 200.57 972.49 206.46 960.49 210.52C957.228 211.542 954.207 213.216 951.61 215.44L951.72 215.26C951.81 215.11 951.92 214.96 952.02 214.81C950.707 215.872 949.572 217.138 948.66 218.56C946.91 221.33 946.18 224.56 944.72 227.56C942.96 231.11 933.17 241.02 937.38 245.01C937.675 245.278 938.013 245.494 938.38 245.65C939.96 246.308 941.701 246.482 943.38 246.15L943.2 246.58C941.762 250.1 941.025 253.867 941.03 257.67C941.03 274.1 954.58 287.42 971.31 287.42C974.455 287.423 977.582 286.941 980.58 285.99C980.65 286.37 980.71 286.75 980.78 287.13C980.78 287.28 980.83 287.43 980.85 287.58L980.32 288.32C980.293 288.274 980.263 288.231 980.23 288.19L964.53 310.13C962.13 311.82 948.31 321.82 947.53 329.32C946.71 337.53 945.89 347.14 945.89 347.14L945.78 349.2C945.094 349.773 944.291 350.191 943.428 350.424C942.565 350.657 941.661 350.7 940.78 350.55C935.88 349.75 935.88 368.55 935.88 368.55C935.88 368.55 932.62 371.55 930.38 368.95C928.14 366.35 922.22 375.16 922.22 375.16L885.12 376.76L884.27 376.81L882.27 370.62C882.055 369.967 881.591 369.425 880.978 369.113C880.366 368.8 879.655 368.742 879 368.95C878.845 369.001 878.695 369.065 878.55 369.14L878.41 369.22L878.15 369.4L878.02 369.52C877.948 369.585 877.882 369.655 877.82 369.73L877.7 369.87L877.64 369.93C877.409 370.249 877.256 370.618 877.194 371.007C877.131 371.396 877.161 371.794 877.28 372.17L879 377.48C871.84 378.92 864.52 382.98 870.49 394.16L840.23 388.57L850.02 396.79L900.56 407.22C899.89 408.42 900.33 410.16 902.42 412.61C911.42 423.18 927.82 426.05 934.42 426.79C936.163 430.689 938.34 434.379 940.91 437.79L940.34 448.32C940.34 448.32 923.63 528.58 920.57 532.65C922.115 530.9 923.529 529.038 924.8 527.08C919.95 543.57 913.17 566.14 911.39 569.52C908.53 574.92 905.88 596.77 909.14 598.17C910.14 598.6 913 598.39 917.08 598.08V599.89L916.9 668.48C916.9 668.48 917.72 710.55 915.47 714.56C913.22 718.57 912.62 726.98 912.62 726.98C912.62 726.98 903.62 743.57 896.49 750.24C896.441 750.292 896.388 750.339 896.33 750.38L896.11 748.82C896.11 748.82 887.54 759.64 868.58 759.03C868.58 759.03 857.17 766.45 874.09 766.85C891.01 767.25 912.62 766.25 912.62 766.25C912.62 766.25 927.71 743.25 940.35 746.25V763.68H944.22V745.97C946.015 744.788 947.551 743.255 948.735 741.462C949.92 739.669 950.727 737.654 951.11 735.54C951.441 733.361 951.199 731.132 950.406 729.075C949.613 727.018 948.298 725.204 946.59 723.81C945.823 723.116 945.207 722.271 944.782 721.328C944.357 720.385 944.132 719.364 944.12 718.33L943.98 718.45C943.98 718.1 943.89 717.74 943.85 717.37C942.74 708.37 941.35 689.8 946.26 676.06C952.99 657.22 955.03 630.98 950.13 615.36C948.549 610.367 947.25 605.289 946.24 600.15C946.12 599.5 946.01 598.88 945.91 598.3C949.259 598.753 952.576 599.421 955.84 600.3C967.19 603.43 992.02 604.01 1013.22 603.84C1013.27 604.42 1013.33 605.03 1013.4 605.64C1013.78 609.88 1014.57 614.073 1015.76 618.16C1018.42 626.16 1019.64 661.43 1019.64 661.43C1019.64 661.43 1023.07 690.43 1021.2 702.23C1020.2 708.79 1019.2 715.38 1018.63 722V722.13C1018.63 722.13 1013.01 738.13 1008.9 746.82C1008.8 747.04 1008.69 747.26 1008.59 747.47C1007.49 747.57 1006.42 747.808 1005.38 748.18C1005.38 748.18 999.87 759.18 994.38 761C988.89 762.82 990.71 768.81 1003.14 766.61C1015.57 764.41 1034.34 762.61 1034.34 762.61L1035.15 751.39L1038.97 746.61L1037.97 757.8L1042.04 757L1041.5 743.39L1047.75 735.57C1047.75 735.57 1055.3 728.85 1044.08 715.63V715.92C1043.96 715.73 1043.85 715.53 1043.72 715.34V715.28C1041.86 712.4 1040.38 707.03 1043.09 697.5C1047.99 680.28 1050.84 664.65 1050.84 664.65C1050.84 664.65 1061.78 622.78 1048.63 602.97H1049.21C1047.86 600.182 1046.91 597.221 1046.38 594.17C1046.31 593.81 1046.25 593.44 1046.2 593.06C1055.93 592.5 1065.48 590.74 1073.27 586.94C1073.24 586.9 1068.55 487.54 1064.67 471.72ZM941.14 402.42V402.62L939.14 402.72L941.14 402.42ZM934.28 403.37C933.951 403.443 933.643 403.59 933.38 403.8C932.52 405.017 931.98 406.43 931.81 407.91L928.69 407.21C928.69 407.21 926.5 406.74 923.35 406.21L921.86 404.71C925.96 404.37 930.22 403.87 934.28 403.37V403.37Z" fill="url(#paint1_linear)"/>
<path d="M1037.51 743.53L1036.32 757.7L1040.31 756.9L1039.71 741.53L1037.51 743.53Z" fill="#1D2366"/>
<path d="M946.48 676.25C941.67 689.95 943.03 708.44 944.11 717.42C944.51 720.74 944.88 722.76 944.88 722.76C944.88 722.76 937.69 739.14 937.09 739.76C936.49 740.38 915.93 752.93 915.93 752.93L901.56 761.32C901.56 761.32 886.98 754.93 893.97 752.73C895.398 752.157 896.685 751.28 897.74 750.16C904.74 743.51 913.53 726.98 913.53 726.98C913.53 726.98 914.13 718.59 916.33 714.6C918.53 710.61 917.73 668.68 917.73 668.68L917.9 600.33V591.42L945.25 591.62C945.422 594.645 945.817 597.653 946.43 600.62C947.412 605.741 948.684 610.803 950.24 615.78C955.06 631.37 953.06 657.48 946.48 676.25Z" fill="#FFB0B1"/>
<path opacity="0.1" d="M944.88 722.76C944.88 722.76 937.69 739.14 937.09 739.76C936.49 740.38 915.93 752.93 915.93 752.93L901.56 761.32C901.56 761.32 886.98 754.93 893.97 752.73C895.398 752.157 896.685 751.28 897.74 750.16L898.36 754.53L903.15 754.33L944.15 717.44C944.51 720.74 944.88 722.76 944.88 722.76Z" fill="black"/>
<path d="M944.38 718.37L903.15 755.51L898.36 755.71L897.36 748.71C897.36 748.71 888.98 759.49 870.36 758.89C870.36 758.89 859.18 766.28 875.75 766.68C892.32 767.08 913.48 766.08 913.48 766.08C913.48 766.08 928.26 743.08 940.63 746.08V763.45H944.43V745.92C946.197 744.731 947.705 743.196 948.863 741.409C950.021 739.622 950.806 737.618 951.17 735.52C951.499 733.358 951.266 731.148 950.494 729.103C949.721 727.057 948.436 725.245 946.76 723.84C946.012 723.138 945.414 722.291 945.005 721.351C944.596 720.41 944.383 719.396 944.38 718.37V718.37Z" fill="#1D2366"/>
<path d="M1041.31 697.61C1038.65 707.11 1040.1 712.46 1041.92 715.33V715.39C1044.25 718.934 1045.88 722.897 1046.7 727.06L1046.86 727.96L1028.1 755.31L1017.92 759.31C1017.92 759.31 1001.55 753.72 1004.54 752.12C1005.29 751.73 1006.46 749.65 1007.8 746.78C1011.8 738.13 1017.32 722.17 1017.32 722.17V722.04C1017.9 715.45 1018.82 708.88 1019.84 702.34C1021.67 690.57 1018.31 661.68 1018.31 661.68C1018.31 661.68 1017.11 626.55 1014.51 618.56C1013.34 614.498 1012.56 610.332 1012.18 606.12C1011.64 601.12 1011.52 597 1011.52 597C1011.52 597 1022.3 582 1042.06 598.2C1043.64 599.492 1045.03 601 1046.19 602.68C1059.84 622.1 1048.85 664.88 1048.85 664.88C1048.85 664.88 1046.1 680.44 1041.31 697.61Z" fill="#FFB0B1"/>
<path opacity="0.1" d="M1046.89 727.96L1028.13 755.31L1017.95 759.31C1017.95 759.31 1001.58 753.72 1004.57 752.12C1005.32 751.73 1006.49 749.65 1007.83 746.78C1014.76 746.72 1018.35 753.32 1018.35 753.32L1027.13 751.92C1027.13 751.92 1038.71 729.16 1041.31 727.77C1043.91 726.38 1041.71 717.38 1041.71 717.38V715.09C1041.78 715.17 1041.84 715.26 1041.92 715.34V715.4C1044.25 718.944 1045.88 722.907 1046.7 727.07L1046.89 727.96Z" fill="black"/>
<path d="M1018.95 753.91C1018.95 753.91 1013.95 744.73 1004.37 748.12C1004.37 748.12 998.98 759.12 993.59 760.9C988.2 762.68 990 768.68 1002.18 766.49C1014.36 764.3 1032.72 762.49 1032.72 762.49L1033.52 751.3L1045.9 735.53C1045.9 735.53 1053.28 728.84 1042.3 715.67V717.96C1042.3 717.96 1044.5 726.96 1041.9 728.35C1039.3 729.74 1027.76 752.51 1027.76 752.51L1018.95 753.91Z" fill="#1D2366"/>
<path opacity="0.1" d="M945.28 591.6C945.453 594.625 945.847 597.633 946.46 600.6C935.2 598.95 924.75 599.77 917.9 600.31V591.4L945.28 591.6Z" fill="black"/>
<path opacity="0.1" d="M1047.3 605.17C1047.3 605.17 1031.3 605.95 1012.22 606.11C1011.68 601.11 1011.56 596.99 1011.56 596.99C1011.56 596.99 1022.34 581.99 1042.1 598.19C1043.68 599.482 1045.07 600.99 1046.23 602.67C1046.54 603.523 1046.9 604.357 1047.3 605.17V605.17Z" fill="black"/>
<path d="M1047.3 603.37C1047.3 603.37 977.22 606.76 955.86 600.77C934.5 594.78 913.33 599.97 910.14 598.58C906.95 597.19 909.54 575.42 912.34 570.03C915.14 564.64 930.5 510.13 930.5 510.13L945.28 433.07L960.85 428.78L961.95 428.47L989.08 420.99L1008.96 415.5C1008.96 415.5 1048.49 569.83 1045.1 581.21C1043.87 585.568 1043.67 590.152 1044.52 594.6C1045.04 597.637 1045.97 600.589 1047.3 603.37V603.37Z" fill="#1D2366"/>
<path d="M893.76 380.37C893.76 380.37 879.76 395.37 890.36 403.73C900.96 412.09 907.93 404.53 907.93 404.53L893.76 380.37Z" fill="#C7DAF5"/>
<path opacity="0.1" d="M893.76 380.37C893.76 380.37 879.76 395.37 890.36 403.73C900.96 412.09 907.93 404.53 907.93 404.53L893.76 380.37Z" fill="black"/>
<path d="M1006.87 281.75C1006.87 281.75 1005.23 283.31 1002.76 285.61C999.24 288.9 994.03 293.71 989.41 297.74C983.01 303.31 977.73 307.4 979.62 303.91C981.51 300.42 981.15 294.34 980.21 288.65C980.14 288.27 980.08 287.89 980.01 287.52C979.232 283.341 978.2 279.214 976.92 275.16C976.92 275.16 987.26 261.8 992.98 256.53C995.11 254.53 996.6 253.71 996.69 255.1C996.79 256.97 998.19 261.1 999.93 265.48C999.98 265.62 1000.03 265.75 1000.09 265.89C1001.25 268.89 1002.56 271.97 1003.71 274.63C1005.47 278.71 1006.87 281.75 1006.87 281.75Z" fill="#FFB0B1"/>
<path opacity="0.1" d="M1000.09 265.89C999.118 271.116 996.761 275.986 993.264 279.99C989.766 283.993 985.258 286.984 980.21 288.65C979.415 284.085 978.316 279.578 976.92 275.16C976.92 275.16 996.39 250.01 996.69 255.1C996.76 257.03 998.28 261.31 1000.09 265.89Z" fill="black"/>
<path opacity="0.1" d="M978.27 295.37L980.79 291.82C980.79 291.82 982.46 302 988.6 297.51C994.74 293.02 995.04 331.3 995.04 331.3L988.45 429.83L940.83 426.98L942.18 379.37L947.57 355.37L960.9 320.48L968.83 308.95L978.27 295.37Z" fill="black"/>
<path d="M995.04 331.91L989.04 421L988.41 430.44L961.86 428.85L960.86 428.79L940.86 427.59L942.21 379.97L947.6 355.97L960.93 321.08L968.86 309.55L978.3 295.92L980.82 292.38C980.82 292.38 982.49 302.56 988.63 298.07L988.76 297.98C994.76 294.18 995.04 331.91 995.04 331.91Z" fill="#1D2366"/>
<path d="M948.27 347.63C948.27 347.63 945.88 352.63 941.08 351.82C936.28 351.01 936.29 369.82 936.29 369.82C936.29 369.82 933.1 372.82 930.9 370.22C928.7 367.62 922.9 376.41 922.9 376.41L886.56 378.01C886.56 378.01 902.73 385.4 899.56 407.76C899.56 407.76 954.46 404.36 956.26 399.17C958.06 393.98 948.27 347.63 948.27 347.63Z" fill="white"/>
<path opacity="0.03" d="M948.27 347.63C948.27 347.63 945.88 352.63 941.08 351.82C936.28 351.01 936.29 369.82 936.29 369.82C936.29 369.82 933.1 372.82 930.9 370.22C928.7 367.62 922.9 376.41 922.9 376.41L886.56 378.01C886.56 378.01 902.73 385.4 899.56 407.76C899.56 407.76 954.46 404.36 956.26 399.17C958.06 393.98 948.27 347.63 948.27 347.63Z" fill="black"/>
<path d="M842.66 389.76L852.24 397.94L931.1 414.51L921.32 404.53L842.66 389.76Z" fill="white"/>
<path d="M978.42 298.52C977.11 300.52 973.36 310.76 970.23 319.7C967.62 327.15 965.44 333.7 965.44 333.7C965.44 333.7 960.35 366.84 957.75 372.83C955.15 378.82 956.56 402.18 956.56 402.18L946.87 459.87C946.87 459.87 942.48 489.62 935.7 507.39C929.01 524.88 921.56 533.08 921.33 533.34C924.33 529.28 940.68 449.34 940.68 449.34L946.08 348.52C946.08 348.52 946.87 338.94 947.67 330.75C948.47 322.56 964.67 311.38 964.67 311.38L980.29 289.17C981.86 291.27 980.81 294.93 978.42 298.52Z" fill="white"/>
<path d="M937.69 428.09C937.69 428.09 914.69 427.09 903.55 413.71C892.41 400.33 929.3 408.37 929.3 408.37L938.89 410.57L937.69 428.09Z" fill="#FFB0B1"/>
<path opacity="0.1" d="M1045.1 581.22C1043.87 585.578 1043.67 590.162 1044.52 594.61C1019.43 596.39 992.59 589.61 992.59 589.61C987.59 594.21 974.42 600.99 974.42 600.99L967.24 511.99C962.65 499.99 960.85 437.12 960.85 437.12C960.85 437.12 961.26 433.83 961.85 428.9C961.85 428.78 961.85 428.65 961.9 428.53C963.69 414.76 967.24 388.91 968.98 385.42C971.38 380.62 961.6 367.85 961.6 367.85L966.05 329.9L966.59 325.32C975.97 321.13 983.16 307.75 983.16 307.75L988.68 298.08C994.68 294.23 994.99 331.96 994.99 331.96L988.99 421.05L1008.87 415.56C1008.87 415.56 1048.49 569.84 1045.1 581.22Z" fill="black"/>
<path d="M1070.85 587.37C1043.5 600.95 993.79 588.37 993.79 588.37C988.79 592.97 975.62 599.75 975.62 599.75L968.43 510.75C963.85 498.75 962.05 435.88 962.05 435.88C962.05 435.88 967.83 388.97 970.23 384.18C970.93 382.78 970.59 380.7 969.76 378.46C965.679 367.798 964.179 356.323 965.38 344.97L967.3 328.66L967.83 324.09C977.22 319.89 984.41 306.51 984.41 306.51L989.41 297.75L998.61 281.61L1002.97 273.97L1003.71 274.64L1009.36 279.76C1009.36 279.76 1011.76 281.76 1015.36 284.76C1023.19 291.36 1036.72 302.98 1043.7 310.09C1049.84 316.35 1051.78 340.7 1052.34 359.03C1052.71 371.1 1052.49 380.56 1052.49 380.56C1046.3 390.75 1062.49 472.56 1062.49 472.56C1066.26 488.37 1070.85 587.37 1070.85 587.37Z" fill="white"/>
<path opacity="0.03" d="M1018.35 306.31C1018.35 306.31 999.58 342.04 1001.76 355.62C1003.94 369.2 1010.14 384.57 1007.15 388.16C1006.12 389.52 1004.79 390.624 1003.27 391.386C1001.74 392.147 1000.06 392.546 998.36 392.55C995.36 392.75 987.36 398.34 987.36 398.94C987.36 399.54 979.97 399.54 973.36 402.34C966.75 405.14 956.99 406.73 956.99 406.73C956.99 406.73 937.99 406.13 936.22 407.93C934.45 409.73 932.63 420.5 936.42 429.09C940.21 437.68 944.42 444.09 947.6 445.26C950.78 446.43 970.96 439.67 987.33 438.07C1003.7 436.47 1021.47 423.5 1021.47 423.5C1021.47 423.5 1041.04 416.5 1044.47 404.73C1047.9 392.96 1040.28 328.27 1040.28 328.27C1040.28 328.27 1034.52 298.12 1018.35 306.31Z" fill="black"/>
<path opacity="0.03" d="M1015.95 303.31C1015.95 303.31 997.18 339.05 999.38 352.62C1001.58 366.19 1007.76 381.57 1004.76 385.17C1003.74 386.532 1002.41 387.637 1000.89 388.399C999.363 389.161 997.684 389.558 995.98 389.56C992.98 389.76 984.98 395.35 984.98 395.95C984.98 396.55 977.59 396.55 970.98 399.34C964.37 402.13 954.61 403.73 954.61 403.73C954.61 403.73 935.61 403.13 933.85 404.93C932.09 406.73 930.25 417.51 934.05 426.09C937.85 434.67 942.05 441.09 945.23 442.26C948.41 443.43 968.59 436.67 984.96 435.08C1001.33 433.49 1019.1 420.5 1019.1 420.5C1019.1 420.5 1038.66 413.5 1042.05 401.74C1045.44 389.98 1037.86 325.27 1037.86 325.27C1037.86 325.27 1032.12 295.13 1015.95 303.31Z" fill="black"/>
<path d="M1017.76 304.51C1017.76 304.51 998.99 340.25 1001.19 353.82C1003.39 367.39 1009.57 382.77 1006.58 386.36C1005.56 387.725 1004.23 388.833 1002.7 389.596C1001.18 390.36 999.496 390.758 997.79 390.76C994.79 390.96 986.79 396.55 986.79 397.14C986.79 397.73 979.41 397.74 972.79 400.54C966.17 403.34 956.42 404.93 956.42 404.93C956.42 404.93 937.42 404.33 935.65 406.13C933.88 407.93 932.06 418.71 935.85 427.29C939.64 435.87 943.85 442.29 947.03 443.46C950.21 444.63 970.39 437.87 986.76 436.27C1003.13 434.67 1020.9 421.7 1020.9 421.7C1020.9 421.7 1040.47 414.7 1043.9 402.93C1047.33 391.16 1039.76 326.47 1039.76 326.47C1039.76 326.47 1033.92 296.37 1017.76 304.51Z" fill="white"/>
<path opacity="0.1" d="M1017.35 400.37C1017.35 400.37 1002.35 397.37 1007.57 402.37C1012.79 407.37 1012.76 411.75 1019.15 411.55C1025.54 411.35 1017.35 400.37 1017.35 400.37Z" fill="black"/>
<path opacity="0.1" d="M1042.7 507.95C1042.7 507.95 1035.92 512.54 1048.89 523.12C1061.86 533.7 1042.7 507.95 1042.7 507.95Z" fill="black"/>
<path opacity="0.1" d="M1029.76 545.68C1029.76 546.28 1027.36 567.68 1036.34 573.03C1045.32 578.38 1029.76 545.68 1029.76 545.68Z" fill="black"/>
<path d="M887.18 377.96C879.94 378.21 864.3 380.42 872.41 395.55C879.58 408.94 891.63 399.99 898.41 393.2C896.756 386.869 892.737 381.415 887.18 377.96V377.96Z" fill="#FFB0B1"/>
<path d="M898.5 393.08L898.8 392.77L898.5 393.08Z" fill="#FFB0B1"/>
<path opacity="0.1" d="M1015.36 285.37C1007.68 290.62 1001.24 295.05 999.98 295.97C996.54 298.52 989.98 313.49 985.75 321.13C982.38 327.28 971.43 328.86 967.3 329.25L967.83 324.68C977.22 320.48 984.41 307.1 984.41 307.1L1002.97 274.56L1009.36 280.37C1009.36 280.37 1011.76 282.37 1015.36 285.37Z" fill="black"/>
<path d="M1015.36 284.77C1007.68 290.02 1001.24 294.45 999.98 295.38C996.54 297.92 989.98 312.89 985.75 320.53C982.38 326.68 971.43 328.26 967.3 328.65L967.83 324.08C977.22 319.88 984.41 306.5 984.41 306.5L1002.97 273.96L1009.36 279.75C1009.36 279.75 1011.76 281.73 1015.36 284.77Z" fill="#DCE7FF"/>
<path d="M1000.58 259.29C1000.58 265.293 998.764 271.155 995.36 276.1C991.34 281.946 985.358 286.158 978.498 287.971C971.639 289.784 964.356 289.077 957.973 285.98C951.59 282.883 946.528 277.6 943.706 271.091C940.885 264.581 940.49 257.275 942.594 250.499C944.698 243.723 949.162 237.926 955.174 234.16C961.187 230.393 968.351 228.907 975.366 229.97C982.381 231.034 988.782 234.577 993.408 239.956C998.034 245.335 1000.58 252.195 1000.58 259.29V259.29Z" fill="#FFB0B1"/>
<path opacity="0.1" d="M1052.34 359.04C1048.28 356.542 1044.97 352.989 1042.77 348.76C1041.1 345.46 1039.99 341.65 1037.14 339.31C1034.57 337.21 1031.14 336.7 1027.94 335.76C1017.42 332.65 1008.6 323.05 1008.27 312.09C1008.11 306.93 1009.72 301.78 1008.99 296.67C1008.57 293.778 1007.42 291.041 1005.65 288.72C1004.77 287.61 1003.8 286.57 1002.76 285.61C1001.36 284.29 999.89 283.01 998.61 281.61C997.804 280.743 997.099 279.787 996.51 278.76C996.034 277.92 995.649 277.031 995.36 276.11C993.36 269.99 995.18 262.73 992.98 256.54L992.86 256.2C992.03 254 990.34 251.8 987.99 251.63C985.64 251.46 983.63 253.41 981.39 254.28C976.7 256.1 971.64 253 967.73 249.84C963.82 246.68 959.41 243.07 954.44 243.77C951.15 244.24 948.55 246.48 945.52 247.64C944.836 247.905 944.13 248.109 943.41 248.25C945.974 241.855 950.686 236.553 956.734 233.254C962.783 229.955 969.792 228.866 976.557 230.174C983.321 231.481 989.42 235.104 993.803 240.419C998.187 245.734 1000.58 252.41 1000.58 259.3C1000.58 261.381 1000.37 263.456 999.93 265.49C999.98 265.63 1000.03 265.76 1000.09 265.9C1001.25 268.9 1002.56 271.98 1003.71 274.64L1009.36 279.76C1009.36 279.76 1011.76 281.76 1015.36 284.76C1023.19 291.36 1036.72 302.98 1043.7 310.09C1049.84 316.37 1051.76 340.71 1052.34 359.04Z" fill="black"/>
<path d="M945.17 229.37C946.6 226.46 947.31 223.2 949.02 220.44C951.53 216.44 955.91 213.88 960.41 212.33C972.16 208.28 996.99 202.4 1004.41 212.33C1005.87 214.33 1007.08 216.55 1009.1 217.93C1010.64 218.98 1012.5 219.43 1014.19 220.22C1018.92 222.44 1021.94 227.28 1023.55 232.22C1025.16 237.16 1025.64 242.46 1026.82 247.55C1028.33 254.08 1030.98 260.27 1033.62 266.42C1036.73 273.68 1040.03 281.21 1046.03 286.34C1054.22 293.34 1056.03 303.25 1063.63 310.93C1072.63 320.05 1072.34 335.1 1067.7 347.05C1067.09 348.62 1066.4 350.26 1066.64 351.93C1066.88 353.6 1068.12 355.12 1069.29 356.45L1074.21 362C1062.57 364.81 1049.4 358.73 1043.98 348.06C1042.31 344.76 1041.2 340.96 1038.34 338.61C1035.78 336.51 1032.34 336.01 1029.15 335.07C1018.63 331.95 1009.81 322.34 1009.48 311.38C1009.32 306.23 1010.93 301.08 1010.2 295.98C1009.79 293.069 1008.64 290.312 1006.85 287.98C1004.1 284.39 999.95 281.98 997.71 277.98C993.92 271.29 996.8 262.6 994.07 255.42C993.23 253.22 991.55 251.02 989.2 250.85C986.85 250.68 984.84 252.63 982.59 253.5C977.91 255.32 972.85 252.23 968.94 249.06C965.03 245.89 960.62 242.29 955.64 243C952.35 243.46 949.76 245.7 946.73 246.87C944.49 247.73 939.95 248.5 937.99 246.61C933.85 242.8 943.44 232.93 945.17 229.37Z" fill="#591D4B"/>
<path opacity="0.1" d="M1046.76 344.76C1045.08 341.46 1043.98 337.66 1041.12 335.32C1038.56 333.22 1035.12 332.71 1031.92 331.77C1021.41 328.66 1012.59 319.05 1012.25 308.09C1012.09 302.94 1013.7 297.78 1012.98 292.68C1012.56 289.787 1011.41 287.05 1009.63 284.73C1006.87 281.14 1002.72 278.73 1000.49 274.73C996.7 268.05 999.58 259.36 996.84 252.17C996.01 249.98 994.32 247.78 991.98 247.6C989.64 247.42 987.61 249.39 985.37 250.26C980.69 252.08 975.62 248.98 971.72 245.82C967.82 242.66 963.39 239.05 958.42 239.75C955.13 240.22 952.53 242.46 949.51 243.62C947.27 244.48 942.72 245.26 940.76 243.37C936.64 239.37 946.23 229.52 947.95 225.98C949.38 223.06 950.09 219.81 951.81 217.05C951.9 216.9 952 216.75 952.1 216.6C950.813 217.666 949.703 218.928 948.81 220.34C947.1 223.1 946.39 226.34 944.96 229.27C943.23 232.81 933.64 242.69 937.77 246.66C939.77 248.56 944.27 247.78 946.51 246.92C949.51 245.75 952.13 243.51 955.42 243.05C960.42 242.34 964.82 245.95 968.72 249.11C972.62 252.27 977.72 255.37 982.38 253.55C984.62 252.68 986.58 250.72 988.98 250.9C991.38 251.08 992.98 253.27 993.85 255.47C996.58 262.65 993.7 271.34 997.49 278.03C999.73 281.96 1003.88 284.42 1006.63 288.03C1008.42 290.362 1009.57 293.119 1009.98 296.03C1010.71 301.13 1009.1 306.28 1009.26 311.43C1009.59 322.43 1018.41 332 1028.93 335.12C1032.1 336.06 1035.56 336.56 1038.12 338.66C1040.99 341.01 1042.12 344.81 1043.76 348.11C1049.18 358.78 1062.35 364.86 1073.99 362.05L1071.67 359.43C1061.58 359.58 1051.37 353.84 1046.76 344.76Z" fill="black"/>
<path opacity="0.1" d="M977.82 299.12C976.51 301.12 972.76 311.36 969.63 320.3C966.7 319.16 964.04 311.89 964.04 311.89L979.66 289.67C981.26 291.87 980.21 295.52 977.82 299.12Z" fill="black"/>
<path d="M978.42 298.52C977.11 300.52 973.36 310.76 970.23 319.7C967.3 318.57 964.64 311.29 964.64 311.29L980.26 289.08C981.86 291.27 980.81 294.93 978.42 298.52Z" fill="#DCE7FF"/>
<path d="M887.6 400.68L878.94 373.37C878.837 373.05 878.799 372.713 878.827 372.379C878.855 372.044 878.949 371.718 879.103 371.42C879.257 371.122 879.469 370.857 879.726 370.641C879.983 370.425 880.28 370.261 880.6 370.16V370.16C881.245 369.959 881.942 370.02 882.542 370.331C883.141 370.642 883.593 371.177 883.8 371.82L892.46 399.1L891.6 404.81L887.6 400.68Z" fill="#BE8B87"/>
<path opacity="0.1" d="M879.76 370.97C880.406 370.766 881.106 370.826 881.708 371.137C882.31 371.448 882.763 371.985 882.97 372.63L891.63 399.91L890.98 404.19L891.61 404.85L892.47 399.14L883.76 371.86C883.553 371.217 883.101 370.682 882.502 370.371C881.902 370.06 881.204 369.999 880.56 370.2V370.2C880.018 370.376 879.55 370.728 879.23 371.2C879.4 371.109 879.577 371.032 879.76 370.97V370.97Z" fill="white"/>
<path d="M887.6 400.68L892.46 399.14L891.75 403.82L891.6 404.85L890.18 403.37L887.6 400.68Z" fill="#EFC8C4"/>
<path d="M890.18 403.37C890.264 403.263 890.37 403.175 890.49 403.11C890.56 403.066 890.642 403.042 890.725 403.042C890.808 403.042 890.89 403.066 890.96 403.11C891.028 403.192 891.085 403.283 891.13 403.38C891.196 403.49 891.286 403.584 891.393 403.655C891.501 403.726 891.623 403.772 891.75 403.79L891.6 404.79L890.18 403.37Z" fill="#727A9C"/>
<path d="M878.89 383.07C878.89 383.07 896.26 382.97 892.17 390.36C888.08 397.75 881.69 398.64 881.69 398.64L878.89 383.07Z" fill="#FFB0B1"/>
<path d="M770.86 51.42H770.11C740.27 51.42 713.88 67.21 698.7 90.51C683.52 67.21 657.13 51.42 627.29 51.42H626.54C604.146 51.6334 582.741 60.676 566.977 76.5827C551.212 92.4894 542.362 113.975 542.35 136.37C542.35 164.18 554.53 203.64 578.28 236.11C623.53 297.98 698.7 352.11 698.7 352.11C698.7 352.11 773.87 297.99 819.11 236.11C842.87 203.64 855.04 164.18 855.04 136.37C855.028 113.977 846.179 92.4927 830.417 76.5862C814.655 60.6798 793.252 51.636 770.86 51.42V51.42ZM760.13 240.87C756.732 240.857 753.417 239.817 750.62 237.886C747.824 235.955 745.676 233.223 744.46 230.05H726.62C725.445 230.043 724.302 229.669 723.35 228.98C722.398 228.292 721.685 227.323 721.31 226.21L715.83 209.7L698.49 270.29C698.152 271.456 697.445 272.482 696.475 273.212C695.505 273.942 694.324 274.338 693.11 274.34H692.76C691.493 274.279 690.285 273.785 689.339 272.94C688.393 272.096 687.765 270.952 687.56 269.7L669.69 162.22L656.63 225.82C656.331 227.028 655.635 228.101 654.655 228.868C653.674 229.635 652.465 230.051 651.22 230.05H626.09C625.337 230.082 624.585 229.961 623.879 229.695C623.174 229.428 622.53 229.022 621.985 228.5C621.441 227.979 621.008 227.352 620.712 226.659C620.416 225.965 620.264 225.219 620.264 224.465C620.264 223.711 620.416 222.965 620.712 222.271C621.008 221.578 621.441 220.951 621.985 220.43C622.53 219.908 623.174 219.502 623.879 219.235C624.585 218.969 625.337 218.848 626.09 218.88H646.82L665.32 133.37C665.624 132.106 666.357 130.986 667.395 130.203C668.433 129.419 669.71 129.021 671.009 129.075C672.308 129.13 673.548 129.633 674.517 130.501C675.486 131.368 676.123 132.545 676.32 133.83L694.57 243.47L710.11 189.26C710.434 188.118 711.118 187.112 712.06 186.391C713.003 185.67 714.153 185.273 715.34 185.26H715.45C716.625 185.26 717.77 185.632 718.722 186.321C719.674 187.011 720.384 187.983 720.75 189.1L730.66 218.91H744.24C745.206 215.977 746.963 213.367 749.318 211.369C751.673 209.372 754.534 208.063 757.585 207.589C760.637 207.115 763.76 207.493 766.611 208.681C769.461 209.87 771.927 211.823 773.738 214.325C775.548 216.826 776.632 219.78 776.87 222.859C777.108 225.938 776.491 229.023 775.086 231.773C773.681 234.523 771.544 236.832 768.91 238.444C766.276 240.057 763.248 240.91 760.16 240.91L760.13 240.87Z" fill="#0077CC"/>
</g>
<path d="M123.25 783V902H100.64L41.31 829.75V902H14.11V783H36.89L96.05 855.25V783H123.25ZM239.125 856.61C239.125 856.95 238.955 859.33 238.615 863.75H169.425C170.672 869.417 173.618 873.893 178.265 877.18C182.912 880.467 188.692 882.11 195.605 882.11C200.365 882.11 204.558 881.43 208.185 880.07C211.925 878.597 215.382 876.33 218.555 873.27L232.665 888.57C224.052 898.43 211.472 903.36 194.925 903.36C184.612 903.36 175.488 901.377 167.555 897.41C159.622 893.33 153.502 887.72 149.195 880.58C144.888 873.44 142.735 865.337 142.735 856.27C142.735 847.317 144.832 839.27 149.025 832.13C153.332 824.877 159.168 819.267 166.535 815.3C174.015 811.22 182.345 809.18 191.525 809.18C200.478 809.18 208.582 811.107 215.835 814.96C223.088 818.813 228.755 824.367 232.835 831.62C237.028 838.76 239.125 847.09 239.125 856.61ZM191.695 829.24C185.688 829.24 180.645 830.94 176.565 834.34C172.485 837.74 169.992 842.387 169.085 848.28H214.135C213.228 842.5 210.735 837.91 206.655 834.51C202.575 830.997 197.588 829.24 191.695 829.24ZM346.371 856.61C346.371 856.95 346.201 859.33 345.861 863.75H276.671C277.918 869.417 280.864 873.893 285.511 877.18C290.158 880.467 295.938 882.11 302.851 882.11C307.611 882.11 311.804 881.43 315.431 880.07C319.171 878.597 322.628 876.33 325.801 873.27L339.911 888.57C331.298 898.43 318.718 903.36 302.171 903.36C291.858 903.36 282.734 901.377 274.801 897.41C266.868 893.33 260.748 887.72 256.441 880.58C252.134 873.44 249.981 865.337 249.981 856.27C249.981 847.317 252.078 839.27 256.271 832.13C260.578 824.877 266.414 819.267 273.781 815.3C281.261 811.22 289.591 809.18 298.771 809.18C307.724 809.18 315.828 811.107 323.081 814.96C330.334 818.813 336.001 824.367 340.081 831.62C344.274 838.76 346.371 847.09 346.371 856.61ZM298.941 829.24C292.934 829.24 287.891 830.94 283.811 834.34C279.731 837.74 277.238 842.387 276.331 848.28H321.381C320.474 842.5 317.981 837.91 313.901 834.51C309.821 830.997 304.834 829.24 298.941 829.24ZM457.187 775.86V902H431.857V891.46C425.284 899.393 415.764 903.36 403.297 903.36C394.684 903.36 386.864 901.433 379.837 897.58C372.924 893.727 367.484 888.23 363.517 881.09C359.55 873.95 357.567 865.677 357.567 856.27C357.567 846.863 359.55 838.59 363.517 831.45C367.484 824.31 372.924 818.813 379.837 814.96C386.864 811.107 394.684 809.18 403.297 809.18C414.97 809.18 424.094 812.863 430.667 820.23V775.86H457.187ZM407.887 881.6C414.574 881.6 420.127 879.333 424.547 874.8C428.967 870.153 431.177 863.977 431.177 856.27C431.177 848.563 428.967 842.443 424.547 837.91C420.127 833.263 414.574 830.94 407.887 830.94C401.087 830.94 395.477 833.263 391.057 837.91C386.637 842.443 384.427 848.563 384.427 856.27C384.427 863.977 386.637 870.153 391.057 874.8C395.477 879.333 401.087 881.6 407.887 881.6ZM588.867 897.58C586.26 899.507 583.03 900.98 579.177 902C575.437 902.907 571.47 903.36 567.277 903.36C556.397 903.36 547.953 900.583 541.947 895.03C536.053 889.477 533.107 881.317 533.107 870.55V832.98H518.997V812.58H533.107V790.31H559.627V812.58H582.407V832.98H559.627V870.21C559.627 874.063 560.59 877.067 562.517 879.22C564.557 881.26 567.39 882.28 571.017 882.28C575.21 882.28 578.78 881.147 581.727 878.88L588.867 897.58ZM644.451 903.36C634.818 903.36 626.148 901.377 618.441 897.41C610.848 893.33 604.898 887.72 600.591 880.58C596.285 873.44 594.131 865.337 594.131 856.27C594.131 847.203 596.285 839.1 600.591 831.96C604.898 824.82 610.848 819.267 618.441 815.3C626.148 811.22 634.818 809.18 644.451 809.18C654.085 809.18 662.698 811.22 670.291 815.3C677.885 819.267 683.835 824.82 688.141 831.96C692.448 839.1 694.601 847.203 694.601 856.27C694.601 865.337 692.448 873.44 688.141 880.58C683.835 887.72 677.885 893.33 670.291 897.41C662.698 901.377 654.085 903.36 644.451 903.36ZM644.451 881.6C651.251 881.6 656.805 879.333 661.111 874.8C665.531 870.153 667.741 863.977 667.741 856.27C667.741 848.563 665.531 842.443 661.111 837.91C656.805 833.263 651.251 830.94 644.451 830.94C637.651 830.94 632.041 833.263 627.621 837.91C623.201 842.443 620.991 848.563 620.991 856.27C620.991 863.977 623.201 870.153 627.621 874.8C632.041 879.333 637.651 881.6 644.451 881.6ZM762.342 783H789.882V879.56H849.552V902H762.342V783ZM905.926 903.36C896.293 903.36 887.623 901.377 879.916 897.41C872.323 893.33 866.373 887.72 862.066 880.58C857.759 873.44 855.606 865.337 855.606 856.27C855.606 847.203 857.759 839.1 862.066 831.96C866.373 824.82 872.323 819.267 879.916 815.3C887.623 811.22 896.293 809.18 905.926 809.18C915.559 809.18 924.173 811.22 931.766 815.3C939.359 819.267 945.309 824.82 949.616 831.96C953.923 839.1 956.076 847.203 956.076 856.27C956.076 865.337 953.923 873.44 949.616 880.58C945.309 887.72 939.359 893.33 931.766 897.41C924.173 901.377 915.559 903.36 905.926 903.36ZM905.926 881.6C912.726 881.6 918.279 879.333 922.586 874.8C927.006 870.153 929.216 863.977 929.216 856.27C929.216 848.563 927.006 842.443 922.586 837.91C918.279 833.263 912.726 830.94 905.926 830.94C899.126 830.94 893.516 833.263 889.096 837.91C884.676 842.443 882.466 848.563 882.466 856.27C882.466 863.977 884.676 870.153 889.096 874.8C893.516 879.333 899.126 881.6 905.926 881.6ZM1068.15 810.54V886.7C1068.15 903.473 1063.79 915.94 1055.06 924.1C1046.34 932.26 1033.59 936.34 1016.81 936.34C1007.97 936.34 999.586 935.263 991.653 933.11C983.719 930.957 977.146 927.84 971.933 923.76L982.473 904.72C986.326 907.893 991.199 910.387 997.093 912.2C1002.99 914.127 1008.88 915.09 1014.77 915.09C1023.95 915.09 1030.7 912.993 1035 908.8C1039.42 904.72 1041.63 898.487 1041.63 890.1V886.19C1034.72 893.783 1025.09 897.58 1012.73 897.58C1004.35 897.58 996.639 895.767 989.613 892.14C982.699 888.4 977.203 883.187 973.123 876.5C969.043 869.813 967.003 862.107 967.003 853.38C967.003 844.653 969.043 836.947 973.123 830.26C977.203 823.573 982.699 818.417 989.613 814.79C996.639 811.05 1004.35 809.18 1012.73 809.18C1025.99 809.18 1036.08 813.543 1042.99 822.27V810.54H1068.15ZM1018 875.82C1025.03 875.82 1030.75 873.78 1035.17 869.7C1039.71 865.507 1041.97 860.067 1041.97 853.38C1041.97 846.693 1039.71 841.31 1035.17 837.23C1030.75 833.037 1025.03 830.94 1018 830.94C1010.98 830.94 1005.2 833.037 1000.66 837.23C996.129 841.31 993.863 846.693 993.863 853.38C993.863 860.067 996.129 865.507 1000.66 869.7C1005.2 873.78 1010.98 875.82 1018 875.82ZM1092.84 810.54H1119.36V902H1092.84V810.54ZM1106.1 797.79C1101.22 797.79 1097.26 796.373 1094.2 793.54C1091.14 790.707 1089.61 787.193 1089.61 783C1089.61 778.807 1091.14 775.293 1094.2 772.46C1097.26 769.627 1101.22 768.21 1106.1 768.21C1110.97 768.21 1114.94 769.57 1118 772.29C1121.06 775.01 1122.59 778.41 1122.59 782.49C1122.59 786.91 1121.06 790.593 1118 793.54C1114.94 796.373 1110.97 797.79 1106.1 797.79ZM1199.56 809.18C1210.89 809.18 1220.02 812.58 1226.93 819.38C1233.96 826.18 1237.47 836.267 1237.47 849.64V902H1210.95V853.72C1210.95 846.467 1209.36 841.083 1206.19 837.57C1203.02 833.943 1198.43 832.13 1192.42 832.13C1185.73 832.13 1180.41 834.227 1176.44 838.42C1172.47 842.5 1170.49 848.62 1170.49 856.78V902H1143.97V810.54H1169.3V821.25C1172.81 817.397 1177.18 814.45 1182.39 812.41C1187.6 810.257 1193.33 809.18 1199.56 809.18Z" fill="#3F3D56"/>
<defs>
<linearGradient id="paint0_linear" x1="421.33" y1="774.87" x2="421.33" y2="159.53" gradientUnits="userSpaceOnUse">
<stop stop-color="#808080" stop-opacity="0.25"/>
<stop offset="0.54" stop-color="#808080" stop-opacity="0.12"/>
<stop offset="1" stop-color="#808080" stop-opacity="0.1"/>
</linearGradient>
<linearGradient id="paint1_linear" x1="223280" y1="464282" x2="223280" y2="148423" gradientUnits="userSpaceOnUse">
<stop stop-color="#808080" stop-opacity="0.25"/>
<stop offset="0.54" stop-color="#808080" stop-opacity="0.12"/>
<stop offset="1" stop-color="#808080" stop-opacity="0.1"/>
</linearGradient>
<clipPath id="clip0">
<rect width="1105.04" height="782.74" fill="white" transform="translate(65)"/>
</clipPath>
</defs>
</svg>
